<?xml version="1.0"?>
<svg xmlns="http://www.w3.org/2000/svg" xmlns:xlink="http://www.w3.org/1999/xlink" xmlns:svgjs="http://svgjs.com/svgjs" version="1.1" width="512" height="512" x="0" y="0" viewBox="0 0 503.322 503.322" style="enable-background:new 0 0 512 512" xml:space="preserve" class=""><g>
<g xmlns="http://www.w3.org/2000/svg">
	<circle style="" cx="251.661" cy="251.661" r="251.661" fill="#67b9cc" data-original="#67b9cc" class=""/>
	<g>
		<path style="" d="M400.922,49.812l-1.736,2.256l-61.961,21.695c-9.612,7.859-18.659,16.385-27.075,25.513    c-3.124,5.38-23.691,13.538-23.691,13.538s-62.568,4.339-69.597,9.199c-6.942,4.86-6.335,33.237-6.335,33.237l23.778,45.82    c1.763,3.213,5.761,4.443,9.025,2.777c3.558-1.822,7.29-4.079,11.021-5.988c4.506-3.114,10.032-4.387,15.447-3.558    c3.65,1.039,6.464,3.953,7.376,7.637c0.127,4.262-1.693,8.351-4.946,11.108c-6.161,6.682-12.149,13.451-18.224,20.393    c-6.248,7.203-12.41,14.319-18.658,21.521c-1.215,1.475-2.517,2.864-3.732,4.339c-4.734,6.67-6.751,14.893-5.641,22.997    l0.868,5.901c1.16,8.239-0.993,16.602-5.988,23.257l-17.182,23.257c-1.145,1.485-2.134,3.085-2.951,4.773l-18.744,37.923    c-1.284,2.716-4.025,4.442-7.029,4.426h-17.529c-2.608-0.015-4.988-1.489-6.161-3.818c-1.457-3.105-0.872-6.785,1.475-9.285    l1.736-1.649c1.984-1.969,2.777-4.842,2.083-7.55l-16.575-67.081c-0.087-0.26-0.087-0.521-0.174-0.781l-11.889-32.022    c-0.866-2.302-1.307-4.743-1.302-7.203v-1.562c0.033-7.776-4.336-14.901-11.281-18.397l-1.041-0.521    c-3.501-1.801-7.456-2.526-11.368-2.083l-23.344,2.603c-6.682,0.778-13.306-1.865-17.616-7.029l-14.753-17.443    c-3.129-3.718-4.85-8.418-4.86-13.277v-15.36c-0.037-5.423,2.086-10.637,5.901-14.492l18.918-19.178    c1.153-1.186,2.172-2.495,3.037-3.905l6.161-10.414c3.611-6.153,10.222-9.921,17.356-9.893h25.079    c5.753-0.045,11.238,2.428,15.013,6.769c3.851,4.226,9.295,6.649,15.013,6.682h9.285l7.984-26.468    c-5.928-5.418-10.836-11.855-14.492-19.005c-3.818-9.199-25.34-17.877-30.72-18.397c-8.801-4.572-16.897-10.388-24.038-17.269    l-0.607-0.781c89.245-69.453,213.869-70.802,304.597-3.298L400.922,49.812z" fill="#24ae5f" data-original="#24ae5f" class=""/>
		<path style="" d="M502.281,251.661c0.06,97.286-56.013,185.874-143.967,227.449l-33.15-70.292    c-0.446-1.073-0.682-2.222-0.694-3.384v-16.141c0.022-3.387-2.102-6.416-5.294-7.55l-15.1-5.294    c-1.214-0.443-2.312-1.155-3.211-2.083l-4.773-5.12c-1.825-2.003-2.504-4.798-1.801-7.415c0.703-2.617,2.69-4.696,5.273-5.516    l35.666-10.761c2.54-0.726,5.274-0.212,7.376,1.388l24.038,19.178c1.439,1.12,3.21,1.731,5.033,1.736h14.232    c2.7,0.05,5.24-1.281,6.734-3.531c1.494-2.25,1.736-5.107,0.643-7.576l-20.74-43.997c-0.949-2-0.999-4.31-0.137-6.349    c0.862-2.039,2.554-3.613,4.65-4.325l6.769-2.343c4.006-1.368,6.198-5.675,4.946-9.719l-7.116-22.91    c-3.451-10.905-1.928-22.776,4.165-32.456l2.864-4.513c1.483-2.36,4.068-3.8,6.856-3.818h9.719    c2.096,0.03,4.118-0.777,5.617-2.244c1.499-1.466,2.351-3.47,2.367-5.566v-8.852c0.011-4.014,3.038-7.378,7.029-7.81l44.778-5.901    c4.834-0.656,9.752,0.224,14.058,2.517l3.471,1.822c3.084,1.644,6.49,2.592,9.98,2.777l5.033,0.174    C500.742,219.186,502.312,235.405,502.281,251.661L502.281,251.661z" fill="#24ae5f" data-original="#24ae5f" class=""/>
	</g>
</g>
<g xmlns="http://www.w3.org/2000/svg">
</g>
<g xmlns="http://www.w3.org/2000/svg">
</g>
<g xmlns="http://www.w3.org/2000/svg">
</g>
<g xmlns="http://www.w3.org/2000/svg">
</g>
<g xmlns="http://www.w3.org/2000/svg">
</g>
<g xmlns="http://www.w3.org/2000/svg">
</g>
<g xmlns="http://www.w3.org/2000/svg">
</g>
<g xmlns="http://www.w3.org/2000/svg">
</g>
<g xmlns="http://www.w3.org/2000/svg">
</g>
<g xmlns="http://www.w3.org/2000/svg">
</g>
<g xmlns="http://www.w3.org/2000/svg">
</g>
<g xmlns="http://www.w3.org/2000/svg">
</g>
<g xmlns="http://www.w3.org/2000/svg">
</g>
<g xmlns="http://www.w3.org/2000/svg">
</g>
<g xmlns="http://www.w3.org/2000/svg">
</g>
</g></svg>
