<svg width="32" height="34" viewBox="0 0 32 34" fill="none" xmlns="http://www.w3.org/2000/svg">
<path d="M2.82803 14.9958V19.1896C2.57712 17.8633 2.16133 14.8883 2.50543 13.5979C2.84953 12.3075 3.58075 11.1247 3.90335 10.6945C4.58438 9.87014 6.07549 7.87722 10.0327 6.07069C14.9791 3.81252 21.7536 5.85562 23.3666 6.28575C24.9796 6.71587 29.1733 11.2322 29.3884 12.5226C29.5198 13.3113 29.4906 15.1849 29.4971 16.3259C29.6015 16.6765 29.6483 16.967 29.6034 17.1465C29.5198 17.4809 29.5012 17.0515 29.4971 16.3259C29.2009 15.3319 28.4409 13.8552 27.9905 13.0602C26.8435 11.3756 22.6354 7.92023 14.9791 7.57612C7.32286 7.23202 3.68828 12.3792 2.82803 14.9958Z" fill="#7D7D7D"/>
<path d="M1.02424 18.1381L1.75233 17.3615L1.8562 20.5858L1.07617 19.7502L1.02424 18.1381Z" fill="white" stroke="black" stroke-width="0.2"/>
<path d="M2.07532 20.9101L2.14001 21.4924C2.16439 21.7118 2.34991 21.8779 2.57074 21.8779C2.82478 21.8779 3.02427 21.6615 2.99814 21.4088C2.76739 19.177 2.1592 15.1287 2.50544 13.813C3.04309 11.7699 4.11842 10.8021 4.44102 10.2644C6.37659 7.89875 10.2628 5.76044 11.9682 5.53305C16.8072 4.88785 18.3126 4.99539 20.0331 5.53305C21.216 5.74811 23.6892 6.60837 25.1946 7.68368C27.1217 9.06014 28.3131 10.2644 29.0658 12.4151C30.0483 15.2223 29.7826 18.9387 29.6034 21.3402V22.2382C29.6034 22.5143 29.8273 22.7381 30.1034 22.7381C30.3185 22.7381 30.5119 22.6012 30.5749 22.3954C30.8099 21.6285 30.8803 20.9216 30.7863 17.254C30.6709 12.7525 30.6788 12.0925 29.2808 8.65148C27.7754 5.10293 23.044 0.694121 16.377 1.01673C8.50042 1.39786 6.26326 4.8357 4.65607 7.14603C2.93556 9.61926 1.86026 11.7699 1.86024 14.8883L2.07532 20.9101Z" fill="white" stroke="black" stroke-width="0.5"/>
<path d="M31.6466 18.1143L30.8938 17.3616V20.5875L31.6466 19.7273V18.1143Z" fill="white" stroke="black" stroke-width="0.2"/>
<path d="M14.8137 28.6357C13.3799 28.6715 9.93176 28.4206 7.60908 27.1302C6.64129 26.6643 4.6197 25.2592 4.27559 23.3666C4.13222 20.8934 3.75944 15.1512 4.2756 14.1189C4.81326 13.2945 6.06063 11.7317 7.17896 11.2155C11.0501 9.17242 11.8272 9.17242 16.3192 9.17242C19.8677 9.17243 23.0578 10.4987 24.9217 11.6457C26.9648 13.2586 27.3949 14.549 27.7175 15.5168C28.079 16.6012 28.1476 20.7859 27.9326 22.6139C27.7175 24.4419 25.6744 26.7001 23.5238 27.6679C21.8033 28.4421 17.0002 28.6357 14.8137 28.6357Z" fill="#1F1F1F" stroke="black"/>
<path d="M6.91424 20.3557C6.91424 19.2374 8.34799 14.8716 9.06487 12.8285H9.38747L19.1729 9.71008C20.6783 9.27995 24.7645 13.2586 25.1946 14.549C25.6248 15.8394 26.1266 20.1765 26.0549 21.431C25.9474 22.9365 25.7968 25.5603 26.0549 27.4528C26.313 29.3454 25.123 29.0658 25.1946 28.9583L19.4955 30.4637L8.31215 29.2809C7.66696 28.2414 5.83893 26.6571 6.26905 26.485C6.80671 26.27 6.91424 21.7536 6.91424 20.3557Z" fill="black"/>
<rect x="13.5242" y="26.7433" width="5.44097" height="5.44097" fill="#F1BFBF"/>
<rect x="8.62737" y="9.23993" width="15.2347" height="19.5875" rx="7.61735" fill="#FFDFD1"/>
<ellipse cx="19.1012" cy="17.8094" rx="0.680121" ry="1.76831" fill="black"/>
<ellipse cx="13.6603" cy="17.8094" rx="0.680121" ry="1.76831" fill="black"/>
<path d="M19.2373 22.0262C19.2373 23.5287 18.0193 24.7467 16.5168 24.7467C15.0143 24.7467 13.7963 23.5287 13.7963 22.0262" stroke="black" stroke-width="0.5"/>
<line x1="16.4947" y1="19.5778" x2="16.4947" y2="21.4821" stroke="black" stroke-width="0.5"/>
<line x1="16.2447" y1="21.2321" x2="17.0609" y2="21.2321" stroke="black" stroke-width="0.5"/>
<path d="M17.8305 14.7403C14.5659 14.0874 13.2963 11.1583 12.6615 9.97941C10.9204 14.5498 9.48764 17.234 8.58082 17.4607C8.76218 17.4154 8.19995 15.4476 8.85287 13.38C9.50578 11.3125 11.7547 10.3421 12.6615 9.97941C13.3417 9.087 18.7106 7.5646 22.2835 11.733C22.96 12.5222 24.5386 15.0029 23.9516 18.0048C23.3168 17.234 21.095 15.3932 17.8305 14.7403Z" fill="black"/>
<path fill-rule="evenodd" clip-rule="evenodd" d="M2.93558 15.2109C3.47324 12.2 7.77451 7.146 15.5168 7.57613C23.2591 8.00626 27.3453 11.9132 28.4206 13.813C29.0299 14.7449 30.0981 17.5981 29.4959 21.5553C28.8937 25.5124 27.7396 27.2903 27.2378 27.6846C26.9868 28.2581 25.4312 29.5771 21.216 30.2653C17.0007 30.9535 13.2945 30.6955 11.9682 30.4804C10.5345 30.1578 7.58095 29.4051 7.23685 28.9749C7.14539 28.8606 6.90808 28.7171 6.59004 28.5248C5.41236 27.8127 3.12778 26.4313 3.04311 23.3833L2.93558 15.2109ZM7.55945 27.1469C9.88213 28.4373 13.3303 28.6882 14.7641 28.6524C16.9506 28.6524 21.7536 28.4588 23.4741 27.6846C25.6248 26.7168 27.6679 24.4586 27.8829 22.6306C28.098 20.8025 28.0294 16.6179 27.6679 15.5335C27.3453 14.5657 26.9152 13.2753 24.8721 11.6623C23.0082 10.5153 19.8181 9.18911 16.2695 9.1891C11.7776 9.1891 11.0005 9.1891 7.12933 11.2322C6.011 11.7484 4.76362 13.3112 4.22597 14.1356C3.73931 15.1089 4.04288 20.2691 4.19934 22.9287C4.20882 23.0899 4.21777 23.2419 4.22596 23.3833C4.57006 25.2759 6.59166 26.6809 7.55945 27.1469Z" fill="black"/>
<path d="M15.5168 7.57613L15.4891 8.07536L15.5168 7.57613ZM2.93558 15.2109L2.44336 15.123L2.43499 15.1699L2.43562 15.2175L2.93558 15.2109ZM28.4206 13.813L27.9855 14.0593L27.9934 14.0732L28.0021 14.0866L28.4206 13.813ZM29.4959 21.5553L29.9902 21.6305L29.9902 21.6305L29.4959 21.5553ZM27.2378 27.6846L26.9288 27.2914L26.83 27.369L26.7797 27.4842L27.2378 27.6846ZM21.216 30.2653L21.2965 30.7588L21.2965 30.7588L21.216 30.2653ZM11.9682 30.4804L11.8585 30.9682L11.8733 30.9715L11.8882 30.9739L11.9682 30.4804ZM7.23685 28.9749L7.62728 28.6626L7.62728 28.6626L7.23685 28.9749ZM6.59004 28.5248L6.33133 28.9527L6.33133 28.9527L6.59004 28.5248ZM3.04311 23.3833L2.5431 23.3899L2.5433 23.3972L3.04311 23.3833ZM14.7641 28.6524L14.7641 28.1522L14.7516 28.1525L14.7641 28.6524ZM7.55945 27.1469L7.80227 26.7098L7.78951 26.7027L7.77635 26.6964L7.55945 27.1469ZM23.4741 27.6846L23.269 27.2286L23.269 27.2286L23.4741 27.6846ZM27.8829 22.6306L28.3795 22.689L28.3795 22.689L27.8829 22.6306ZM27.6679 15.5335L28.1422 15.3754L28.1422 15.3754L27.6679 15.5335ZM24.8721 11.6623L25.1819 11.2699L25.159 11.2518L25.1341 11.2365L24.8721 11.6623ZM16.2695 9.1891L16.2695 8.6891L16.2695 9.1891ZM7.12933 11.2322L7.33886 11.6862L7.35094 11.6806L7.36271 11.6744L7.12933 11.2322ZM4.22597 14.1356L3.80716 13.8624L3.79154 13.8864L3.77875 13.912L4.22597 14.1356ZM4.19934 22.9287L3.7002 22.958L3.7002 22.958L4.19934 22.9287ZM4.22596 23.3833L3.7268 23.4122L3.72857 23.4427L3.73403 23.4727L4.22596 23.3833ZM15.5445 7.0769C7.5722 6.63399 3.02928 11.8419 2.44336 15.123L3.42779 15.2988C3.91719 12.5581 7.97681 7.65801 15.4891 8.07536L15.5445 7.0769ZM28.8557 13.5667C27.6901 11.5075 23.4434 7.51573 15.5445 7.0769L15.4891 8.07536C23.0747 8.49678 27.0004 12.319 27.9855 14.0593L28.8557 13.5667ZM29.9902 21.6305C30.6093 17.562 29.5213 14.5827 28.8391 13.5393L28.0021 14.0866C28.5386 14.9071 29.5869 17.6341 29.0016 21.48L29.9902 21.6305ZM27.5467 28.0777C27.896 27.8032 28.3507 27.1681 28.7883 26.1541C29.2345 25.1201 29.6838 23.644 29.9902 21.6305L29.0016 21.48C28.7058 23.4237 28.277 24.8151 27.8701 25.7579C27.4546 26.7207 27.0813 27.1716 26.9288 27.2914L27.5467 28.0777ZM21.2965 30.7588C23.4425 30.4084 24.9379 29.8934 25.9423 29.3765C26.4444 29.1181 26.8292 28.8564 27.1121 28.6101C27.3878 28.37 27.5918 28.1227 27.6958 27.885L26.7797 27.4842C26.7582 27.5332 26.6737 27.6658 26.4554 27.8559C26.2443 28.0397 25.9297 28.2583 25.4847 28.4874C24.5947 28.9454 23.2047 29.434 21.1354 29.7719L21.2965 30.7588ZM11.8882 30.9739C13.265 31.1972 17.0256 31.4561 21.2965 30.7588L21.1354 29.7719C16.9759 30.451 13.3239 30.1937 12.0483 29.9868L11.8882 30.9739ZM6.84641 29.2873C6.95725 29.4258 7.1198 29.5241 7.24411 29.5907C7.38493 29.6661 7.5543 29.7402 7.73742 29.8119C8.10487 29.9557 8.56703 30.1049 9.05296 30.2477C10.027 30.5339 11.1349 30.8054 11.8585 30.9682L12.078 29.9926C11.3679 29.8328 10.2821 29.5666 9.33489 29.2883C8.8602 29.1488 8.42985 29.009 8.10192 28.8807C7.93736 28.8162 7.80833 28.7585 7.71616 28.7091C7.60749 28.6509 7.60247 28.6316 7.62728 28.6626L6.84641 29.2873ZM6.33133 28.9527C6.49384 29.051 6.62119 29.1281 6.7197 29.1942C6.82951 29.268 6.85326 29.2959 6.84641 29.2873L7.62728 28.6626C7.52897 28.5397 7.38835 28.4387 7.27713 28.364C7.1546 28.2818 7.00428 28.191 6.84875 28.097L6.33133 28.9527ZM2.5433 23.3972C2.63614 26.7393 5.16282 28.2461 6.33133 28.9527L6.84876 28.097C5.6619 27.3793 3.61941 26.1233 3.54292 23.3694L2.5433 23.3972ZM2.43562 15.2175L2.54315 23.3899L3.54307 23.3767L3.43553 15.2043L2.43562 15.2175ZM14.7516 28.1525C14.0658 28.1697 12.8767 28.118 11.5764 27.9036C10.2717 27.6885 8.89246 27.3155 7.80227 26.7098L7.31663 27.584C8.54912 28.2687 10.0553 28.6663 11.4138 28.8903C12.7767 29.115 14.0286 29.1709 14.7766 29.1522L14.7516 28.1525ZM23.269 27.2286C22.8972 27.3959 22.3243 27.5448 21.6087 27.6699C20.9016 27.7935 20.0872 27.8888 19.251 27.9606C17.5789 28.1043 15.8461 28.1524 14.7641 28.1524V29.1524C15.8686 29.1524 17.6305 29.1036 19.3367 28.957C20.1897 28.8836 21.0353 28.7853 21.781 28.6549C22.5182 28.526 23.1908 28.3604 23.6793 28.1405L23.269 27.2286ZM27.3864 22.5722C27.2955 23.3444 26.8021 24.2737 26.0295 25.1494C25.2642 26.0166 24.2719 26.7773 23.269 27.2286L23.6793 28.1405C24.827 27.6241 25.9316 26.7717 26.7793 25.811C27.6197 24.8586 28.2553 23.7448 28.3795 22.689L27.3864 22.5722ZM27.1935 15.6916C27.264 15.903 27.3326 16.3167 27.3864 16.8896C27.439 17.4483 27.4742 18.1182 27.4918 18.8157C27.527 20.2164 27.4899 21.6925 27.3864 22.5722L28.3795 22.689C28.4911 21.7406 28.5272 20.2104 28.4915 18.7906C28.4735 18.0779 28.4373 17.384 28.382 16.796C28.3281 16.2222 28.2525 15.7062 28.1422 15.3754L27.1935 15.6916ZM24.5622 12.0548C25.5449 12.8306 26.1223 13.5147 26.4912 14.1049C26.8604 14.6956 27.0333 15.2108 27.1935 15.6916L28.1422 15.3754C27.9799 14.8884 27.7764 14.2745 27.3392 13.5749C26.9015 12.8746 26.2423 12.1071 25.1819 11.2699L24.5622 12.0548ZM16.2695 9.6891C19.7023 9.68911 22.8024 10.9758 24.61 12.0882L25.1341 11.2365C23.2139 10.0549 19.9339 8.68911 16.2695 8.6891L16.2695 9.6891ZM7.36271 11.6744C9.29278 10.6558 10.4018 10.1744 11.5675 9.93421C12.7462 9.69137 14.0056 9.6891 16.2695 9.6891L16.2695 8.6891C14.0415 8.6891 12.6663 8.68683 11.3657 8.95477C10.0521 9.2254 8.83702 9.76556 6.89595 10.79L7.36271 11.6744ZM4.64477 14.4087C4.89921 14.0186 5.32812 13.4445 5.82614 12.9087C6.33268 12.3636 6.87025 11.9025 7.33886 11.6862L6.9198 10.7782C6.27007 11.0781 5.62479 11.6564 5.09364 12.2279C4.55398 12.8086 4.09038 13.4282 3.80716 13.8624L4.64477 14.4087ZM4.69848 22.8993C4.62015 21.5679 4.50578 19.6226 4.47139 17.8898C4.45418 17.0227 4.45722 16.2179 4.4937 15.5744C4.51195 15.2523 4.53816 14.9787 4.57251 14.7621C4.60864 14.5343 4.64791 14.4097 4.67318 14.3592L3.77875 13.912C3.68236 14.1048 3.62466 14.3544 3.58485 14.6054C3.54327 14.8677 3.51458 15.1777 3.4953 15.5178C3.45671 16.1986 3.45418 17.0326 3.47158 17.9097C3.50643 19.6652 3.62207 21.6299 3.7002 22.958L4.69848 22.8993ZM4.72512 23.3544C4.71692 23.2128 4.70796 23.0605 4.69848 22.8993L3.7002 22.958C3.70969 23.1193 3.71862 23.2711 3.7268 23.4122L4.72512 23.3544ZM7.77635 26.6964C7.33584 26.4843 6.63359 26.046 6.00606 25.4403C5.3749 24.8311 4.86372 24.0959 4.7179 23.2939L3.73403 23.4727C3.93231 24.5633 4.60398 25.4769 5.31159 26.1598C6.02283 26.8463 6.81527 27.3435 7.34254 27.5974L7.77635 26.6964Z" fill="black"/>
<path d="M3.04309 27.362V23.2758C3.04309 23.792 3.47322 25.2831 3.68828 25.9641C5.92494 29.6632 11.789 30.588 14.4415 30.588C16.6638 30.6955 21.9042 30.588 25.0871 29.2976C28.27 28.0072 29.3525 23.5984 29.4959 21.5553C29.8185 23.3833 29.1733 27.2545 29.2808 28.1147C29.4182 29.2133 26.3775 30.2654 24.9796 30.9106C23.8612 31.4267 18.7069 31.4841 16.2695 31.4482C8.44118 31.7923 3.68828 29.5126 3.04309 27.362Z" fill="white" stroke="black" stroke-width="0.5"/>
<path d="M3.04314 27.3621C2.74662 28.6523 6.61316 31.4482 14.8716 31.4482C25.1946 31.4482 24.1193 31.018 25.3022 30.8031C26.328 30.6167 29.5292 29.2926 29.3776 28.2434C29.3457 28.1599 29.313 28.0806 29.2809 28.0073C29.3345 28.0839 29.366 28.1629 29.3776 28.2434C29.5952 28.8128 29.7772 29.5814 29.4959 30.0504C29.1734 30.5881 27.6679 31.6633 25.7323 32.0935C23.7968 32.5236 9.81764 34.5667 4.11846 30.588C2.50546 29.462 2.50544 28.0072 3.04314 27.3621Z" fill="white"/>
<path d="M3.04314 27.3621C2.74662 28.6523 6.61316 31.4482 14.8716 31.4482C25.1946 31.4482 24.1193 31.018 25.3022 30.8031C26.4068 30.6023 30.0336 29.0826 29.2809 28.0073C29.5318 28.5808 29.8185 29.5126 29.4959 30.0504C29.1734 30.5881 27.6679 31.6633 25.7323 32.0935C23.7968 32.5236 9.81764 34.5667 4.11846 30.588C2.50546 29.462 2.50544 28.0072 3.04314 27.3621Z" stroke="black" stroke-width="0.5"/>
</svg>
