<svg width="76" height="79" viewBox="0 0 76 79" fill="none" xmlns="http://www.w3.org/2000/svg">
<path d="M5.42413 34.872V45.0215C4.8169 41.8118 3.81063 34.6118 4.6434 31.4888C5.47618 28.3659 7.24583 25.5033 8.02656 24.4623C9.67476 22.4671 13.2835 17.6439 22.8604 13.2719C34.8316 7.80678 51.2269 12.7514 55.1305 13.7923C59.0341 14.8333 69.1836 25.7635 69.7041 28.8864C70.0222 30.7953 69.9514 35.3297 69.9672 38.091C70.22 38.9395 70.3331 39.6426 70.2246 40.0769C70.0222 40.8862 69.9772 39.8471 69.9672 38.091C69.2505 35.6853 67.4112 32.1115 66.3209 30.1876C63.545 26.1105 53.3608 17.748 34.8316 16.9152C16.3023 16.0825 7.50607 28.5394 5.42413 34.872Z" fill="#7D7D7D"/>
<path d="M1.05866 42.4768L2.82075 40.5974L3.07213 48.4006L1.18435 46.3784L1.05866 42.4768Z" fill="white" stroke="black"/>
<path d="M3.60243 49.1854L3.75898 50.5945C3.81799 51.1257 4.26697 51.5276 4.80142 51.5276C5.41623 51.5276 5.89903 51.0038 5.8358 50.3923C5.27733 44.991 3.80542 35.1936 4.64337 32.0094C5.94458 27.0647 8.54704 24.7225 9.32777 23.4213C14.0121 17.696 23.4174 12.521 27.5448 11.9707C39.2557 10.4092 42.8991 10.6694 47.063 11.9707C49.9256 12.4911 55.9112 14.5731 59.5546 17.1755C64.2183 20.5067 67.1017 23.4213 68.9234 28.6262C71.3012 35.42 70.6583 44.4143 70.2245 50.2264V52.3996C70.2245 53.0678 70.7662 53.6095 71.4344 53.6095C71.9552 53.6095 72.4232 53.278 72.5757 52.7801C73.1443 50.924 73.3148 49.2132 73.0872 40.3371C72.8079 29.4428 72.827 27.8455 69.4438 19.5177C65.8004 10.9297 54.3497 0.259728 38.2147 1.04048C19.1521 1.96289 13.7379 10.283 9.84822 15.8743C5.68434 21.8599 3.08194 27.0647 3.08191 34.6118L3.60243 49.1854Z" fill="white" stroke="black"/>
<path d="M75.1692 42.4191L73.3475 40.5974V48.4047L75.1692 46.3228V42.4191Z" fill="white" stroke="black"/>
<path d="M34.4312 67.8824C30.9613 67.9691 22.6162 67.3619 16.9949 64.239C14.6527 63.1113 9.76016 59.7108 8.92739 55.1305C8.58039 49.1449 7.67823 35.2479 8.92739 32.7496C10.2286 30.7544 13.2474 26.9722 15.954 25.7231C25.3227 20.7784 27.2034 20.7784 38.0746 20.7784C46.6626 20.7784 54.3831 23.9881 58.894 26.764C63.8386 30.6677 64.8796 33.7906 65.6603 36.1328C66.5351 38.7572 66.7013 48.8847 66.1808 53.3088C65.6603 57.7329 60.7157 63.198 55.5108 65.5402C51.347 67.4139 39.7228 67.8824 34.4312 67.8824Z" fill="#1F1F1F" stroke="black"/>
<rect x="31.3105" y="63.3025" width="13.1679" height="13.1679" fill="#5C4740"/>
<circle cx="53.569" cy="64.4993" r="4.16388" fill="#3C3C3C"/>
<circle cx="22.3399" cy="63.4583" r="4.16388" fill="#3C3C3C"/>
<rect x="19.4593" y="20.9418" width="36.8702" height="47.4046" rx="18.4351" fill="#89695F"/>
<ellipse cx="44.8076" cy="41.6813" rx="1.64599" ry="4.27958" fill="black"/>
<ellipse cx="31.6397" cy="41.6813" rx="1.64599" ry="4.27958" fill="black"/>
<path d="M45.1368 51.8864C45.1368 55.5226 42.1891 58.4704 38.5528 58.4704C34.9166 58.4704 31.9689 55.5226 31.9689 51.8864" stroke="black"/>
<line x1="38.3944" y1="45.9609" x2="38.3944" y2="50.5697" stroke="black"/>
<line x1="37.8944" y1="50.0697" x2="39.8696" y2="50.0697" stroke="black"/>
<circle cx="17.6555" cy="41.5978" r="4.16388" fill="#3C3C3C"/>
<circle cx="16.6146" cy="52.5281" r="4.16388" fill="#3C3C3C"/>
<circle cx="17.135" cy="63.4583" r="4.16388" fill="#3C3C3C"/>
<circle cx="12.4507" cy="58.7739" r="4.16388" fill="#3C3C3C"/>
<circle cx="13.4917" cy="48.8846" r="4.16388" fill="#3C3C3C"/>
<circle cx="59.8149" cy="47.3232" r="4.16388" fill="#3C3C3C"/>
<circle cx="61.8968" cy="57.733" r="4.16388" fill="#3C3C3C"/>
<circle cx="57.2124" cy="50.9666" r="4.16388" fill="#3C3C3C"/>
<circle cx="57.2124" cy="61.8968" r="4.16388" fill="#3C3C3C"/>
<circle cx="21.378" cy="30.9952" r="4.16388" transform="rotate(30 21.378 30.9952)" fill="#3C3C3C"/>
<circle cx="32.2721" cy="24.1066" r="4.16388" transform="rotate(71.9773 32.2721 24.1066)" fill="#3C3C3C"/>
<circle cx="43.3399" cy="24.0819" r="4.16388" transform="rotate(100.706 43.3399 24.0819)" fill="#3C3C3C"/>
<circle cx="52.4209" cy="28.9768" r="4.16388" transform="rotate(135.788 52.4209 28.9768)" fill="#3C3C3C"/>
<circle cx="54.2522" cy="34.4738" r="4.16388" transform="rotate(135.788 54.2522 34.4738)" fill="#3C3C3C"/>
<circle cx="20.7784" cy="34.8315" r="4.16388" fill="#3C3C3C"/>
<circle cx="27.5074" cy="24.905" r="4.16388" transform="rotate(30 27.5074 24.905)" fill="#3C3C3C"/>
<circle cx="39.6727" cy="24.9828" r="4.16388" transform="rotate(71.9773 39.6727 24.9828)" fill="#3C3C3C"/>
<circle cx="49.4082" cy="28.4075" r="4.16388" transform="rotate(100.706 49.4082 28.4075)" fill="#3C3C3C"/>
<circle cx="54.2522" cy="31.3509" r="4.16388" transform="rotate(135.788 54.2522 31.3509)" fill="#3C3C3C"/>
<circle cx="57.8956" cy="40.1991" r="4.16388" transform="rotate(135.788 57.8956 40.1991)" fill="#3C3C3C"/>
<circle cx="18.176" cy="36.9135" r="4.16388" fill="#3C3C3C"/>
<circle cx="17.135" cy="47.8437" r="4.16388" fill="#3C3C3C"/>
<circle cx="17.6555" cy="58.7739" r="4.16388" fill="#3C3C3C"/>
<circle cx="12.9712" cy="54.0895" r="4.16388" fill="#3C3C3C"/>
<circle cx="14.0121" cy="44.2003" r="4.16388" fill="#3C3C3C"/>
<circle cx="60.3353" cy="42.6389" r="4.16388" fill="#3C3C3C"/>
<circle cx="62.4173" cy="53.0486" r="4.16388" fill="#3C3C3C"/>
<circle cx="57.7329" cy="46.2822" r="4.16388" fill="#3C3C3C"/>
<circle cx="57.7329" cy="57.2125" r="4.16388" fill="#3C3C3C"/>
<circle cx="23.864" cy="28.0279" r="4.16388" transform="rotate(30 23.864 28.0279)" fill="#3C3C3C"/>
<circle cx="36.9565" cy="22.9034" r="4.16388" transform="rotate(71.9773 36.9565 22.9034)" fill="#3C3C3C"/>
<circle cx="47.5037" cy="25.6434" r="4.16388" transform="rotate(100.706 47.5037 25.6434)" fill="#3C3C3C"/>
<circle cx="56.0504" cy="32.7074" r="4.16388" transform="rotate(135.788 56.0504 32.7074)" fill="#3C3C3C"/>
<circle cx="57.8816" cy="38.2045" r="4.16388" transform="rotate(135.788 57.8816 38.2045)" fill="#3C3C3C"/>
<path fill-rule="evenodd" clip-rule="evenodd" d="M5.68439 35.3925C6.9856 28.1057 17.3953 15.8743 36.1328 16.9153C54.8703 17.9563 64.7595 27.4117 67.3619 32.0094C68.8366 34.2648 71.4217 41.1699 69.9643 50.7468C68.507 60.3238 65.7137 64.6265 64.4992 65.5807C63.892 66.9686 60.1272 70.1609 49.9257 71.8265C39.7241 73.4921 30.7544 72.8675 27.5448 72.347C24.0749 71.5663 16.9269 69.7446 16.0941 68.7036C15.8728 68.4269 15.2984 68.0796 14.5287 67.6142C11.6786 65.8908 6.14954 62.5476 5.94463 55.171L5.68439 35.3925ZM16.8748 64.2794C22.496 67.4023 30.8411 68.0096 34.311 67.9228C39.6026 67.9228 51.2268 67.4544 55.3907 65.5806C60.5956 63.2385 65.5402 57.7734 66.0607 53.3492C66.5811 48.9251 66.415 38.7977 65.5402 36.1732C64.7594 33.831 63.7185 30.7081 58.7739 26.8045C54.263 24.0286 46.5425 20.8189 37.9545 20.8189C27.0833 20.8189 25.2026 20.8189 15.8338 25.7635C13.1273 27.0127 10.1085 30.7949 8.80727 32.7901C7.6295 35.1456 8.36417 47.634 8.74283 54.0707C8.76578 54.4609 8.78743 54.8288 8.80726 55.1709C9.64004 59.7512 14.5326 63.1517 16.8748 64.2794Z" fill="black"/>
<path d="M36.1328 16.9153L36.1051 17.4145L36.1328 16.9153ZM5.68439 35.3925L5.19217 35.3046L5.1838 35.3515L5.18443 35.3991L5.68439 35.3925ZM67.3619 32.0094L66.9268 32.2557L66.9347 32.2696L66.9434 32.283L67.3619 32.0094ZM69.9643 50.7468L70.4586 50.8221L70.4586 50.8221L69.9643 50.7468ZM64.4992 65.5807L64.1903 65.1875L64.0915 65.2651L64.0412 65.3803L64.4992 65.5807ZM49.9257 71.8265L49.8451 71.333L49.8451 71.333L49.9257 71.8265ZM27.5448 72.347L27.435 72.8348L27.4498 72.8381L27.4647 72.8405L27.5448 72.347ZM16.0941 68.7036L15.7037 69.0159L15.7037 69.0159L16.0941 68.7036ZM14.5287 67.6142L14.27 68.0421L14.27 68.0421L14.5287 67.6142ZM5.94463 55.171L5.44462 55.1775L5.44482 55.1848L5.94463 55.171ZM34.311 67.9228V67.4227L34.2986 67.423L34.311 67.9228ZM16.8748 64.2794L17.1176 63.8424L17.1048 63.8353L17.0917 63.8289L16.8748 64.2794ZM55.3907 65.5806L55.1855 65.1247L55.1855 65.1247L55.3907 65.5806ZM66.0607 53.3492L65.5641 53.2908L65.5641 53.2908L66.0607 53.3492ZM65.5402 36.1732L65.0658 36.3313L65.0658 36.3313L65.5402 36.1732ZM58.7739 26.8045L59.0837 26.412L59.0608 26.3939L59.0359 26.3786L58.7739 26.8045ZM37.9545 20.8189L37.9545 20.3189L37.9545 20.3189L37.9545 20.8189ZM15.8338 25.7635L16.0434 26.2175L16.0554 26.2119L16.0672 26.2057L15.8338 25.7635ZM8.80727 32.7901L8.38846 32.5169L8.37284 32.5409L8.36005 32.5664L8.80727 32.7901ZM8.74283 54.0707L9.24197 54.0413L9.24197 54.0413L8.74283 54.0707ZM8.80726 55.1709L8.3081 55.1999L8.30986 55.2303L8.31533 55.2604L8.80726 55.1709ZM36.1605 16.4161C17.193 15.3623 6.54164 27.7476 5.19217 35.3046L6.1766 35.4804C7.42956 28.4639 17.5976 16.3863 36.1051 17.4145L36.1605 16.4161ZM67.797 31.7631C65.1043 27.006 55.0546 17.4657 36.1605 16.4161L36.1051 17.4145C54.6859 18.4468 64.4146 27.8175 66.9268 32.2557L67.797 31.7631ZM70.4586 50.8221C71.9329 41.1338 69.328 34.1026 67.7804 31.7357L66.9434 32.283C68.3453 34.427 70.9105 41.206 69.47 50.6716L70.4586 50.8221ZM64.8082 65.9738C65.5139 65.4194 66.5565 64.013 67.5998 61.5954C68.6517 59.1577 69.7247 55.6455 70.4586 50.8221L69.47 50.6716C68.7467 55.4251 67.6943 58.8527 66.6816 61.1992C65.6604 63.5657 64.6991 64.7878 64.1903 65.1875L64.8082 65.9738ZM50.0062 72.32C55.1453 71.4809 58.6896 70.2533 61.0391 69.0441C62.2138 68.4395 63.0952 67.8368 63.7289 67.285C64.3553 66.7395 64.7642 66.2224 64.9573 65.7811L64.0412 65.3803C63.9306 65.6329 63.6412 66.0353 63.0722 66.5308C62.5104 67.02 61.6991 67.5797 60.5815 68.1549C58.3464 69.3052 54.9075 70.5065 49.8451 71.333L50.0062 72.32ZM27.4647 72.8405C30.725 73.3692 39.749 73.9946 50.0062 72.32L49.8451 71.333C39.6993 72.9895 30.7839 72.3657 27.6248 71.8534L27.4647 72.8405ZM15.7037 69.0159C15.8756 69.2308 16.1571 69.4126 16.4469 69.5678C16.7531 69.7318 17.1344 69.8995 17.5644 70.0678C18.4256 70.4049 19.5215 70.7594 20.6896 71.1026C23.0278 71.7897 25.6933 72.4429 27.435 72.8348L27.6545 71.8592C25.9263 71.4703 23.2829 70.8224 20.9715 70.1432C19.8147 69.8032 18.7506 69.4583 17.9289 69.1366C17.5174 68.9756 17.1765 68.8241 16.9189 68.6862C16.6448 68.5394 16.5208 68.4366 16.4845 68.3912L15.7037 69.0159ZM14.27 68.0421C14.6584 68.2769 14.9829 68.4733 15.2383 68.6448C15.5051 68.8239 15.6456 68.9433 15.7037 69.0159L16.4845 68.3912C16.3213 68.1872 16.0639 67.9946 15.7958 67.8146C15.5163 67.6269 15.1688 67.417 14.7874 67.1864L14.27 68.0421ZM5.44482 55.1848C5.6579 62.8556 11.429 66.3242 14.27 68.0421L14.7874 67.1864C11.9281 65.4574 6.64117 62.2396 6.44444 55.1571L5.44482 55.1848ZM5.18443 35.3991L5.44467 55.1775L6.44459 55.1644L6.18434 35.3859L5.18443 35.3991ZM34.2986 67.423C32.5947 67.4656 29.6724 67.3376 26.481 66.8114C23.2852 66.2845 19.8571 65.3643 17.1176 63.8424L16.632 64.7165C19.5137 66.3175 23.0688 67.2623 26.3183 67.7981C29.5723 68.3346 32.5575 68.4668 34.3235 68.4227L34.2986 67.423ZM55.1855 65.1247C54.203 65.5668 52.7456 65.939 50.9984 66.2446C49.2597 66.5486 47.2665 66.7813 45.231 66.9562C41.16 67.3061 36.9456 67.4228 34.311 67.4228V68.4228C36.9681 68.4228 41.2116 68.3053 45.3166 67.9526C47.369 67.7762 49.3933 67.5404 51.1706 67.2296C52.9394 66.9203 54.4965 66.5313 55.5959 66.0366L55.1855 65.1247ZM65.5641 53.2908C65.3205 55.3611 64.0254 57.7412 62.1074 59.9149C60.1968 62.0802 57.7156 63.9862 55.1855 65.1247L55.5959 66.0366C58.2707 64.8329 60.8642 62.8353 62.8572 60.5765C64.8429 58.326 66.2803 55.7615 66.5572 53.4077L65.5641 53.2908ZM65.0658 36.3313C65.2646 36.9277 65.4355 38.0016 65.566 39.3888C65.695 40.7618 65.7811 42.4001 65.8238 44.0989C65.9094 47.5023 65.8203 51.1131 65.5641 53.2908L66.5572 53.4077C66.8215 51.1612 66.9096 47.4963 66.8235 44.0738C66.7804 42.3597 66.6934 40.6975 66.5616 39.2952C66.4311 37.9072 66.2531 36.7309 66.0145 36.0151L65.0658 36.3313ZM58.464 27.1969C60.8975 29.1181 62.353 30.833 63.2945 32.3394C64.2364 33.8464 64.6765 35.1633 65.0658 36.3313L66.0145 36.0151C65.6231 34.8409 65.1524 33.4253 64.1425 31.8094C63.1322 30.1929 61.5948 28.3945 59.0837 26.412L58.464 27.1969ZM37.9545 21.3189C46.4267 21.3189 54.0572 24.489 58.5118 27.2303L59.0359 26.3786C54.4687 23.5681 46.6583 20.3189 37.9545 20.3189L37.9545 21.3189ZM16.0672 26.2057C20.7461 23.7363 23.5054 22.5295 26.4316 21.9267C29.3709 21.3212 32.5009 21.3189 37.9545 21.3189L37.9545 20.3189C32.5369 20.3189 29.291 20.3166 26.2298 20.9472C23.1557 21.5806 20.2903 22.8461 15.6005 25.3213L16.0672 26.2057ZM9.22607 33.0632C9.86229 32.0877 10.925 30.6661 12.1598 29.3374C13.4032 27.9996 14.7807 26.8003 16.0434 26.2175L15.6243 25.3095C14.1805 25.9759 12.6953 27.2923 11.4273 28.6566C10.1508 30.0301 9.05346 31.4973 8.38846 32.5169L9.22607 33.0632ZM9.24197 54.0413C9.05254 50.8214 8.77484 46.0998 8.69129 41.89C8.6495 39.7844 8.6565 37.816 8.74628 36.232C8.79118 35.4397 8.85637 34.7518 8.94465 34.1951C9.03469 33.6272 9.14283 33.237 9.25448 33.0137L8.36005 32.5664C8.17727 32.932 8.05072 33.4473 7.95699 34.0384C7.86149 34.6407 7.79381 35.3651 7.74788 36.1754C7.65599 37.7967 7.6495 39.7943 7.69149 41.9099C7.77549 46.1424 8.05446 50.8834 8.24369 54.1001L9.24197 54.0413ZM9.30642 55.142C9.28658 54.7996 9.26492 54.4315 9.24197 54.0413L8.24369 54.1001C8.26665 54.4903 8.28828 54.858 8.3081 55.1999L9.30642 55.142ZM17.0917 63.8289C15.964 63.286 14.2004 62.1834 12.6222 60.6601C11.0404 59.1334 9.68935 57.2274 9.29919 55.0815L8.31533 55.2604C8.75794 57.6948 10.2695 59.7791 11.9278 61.3796C13.5896 62.9837 15.4434 64.1452 16.6579 64.7299L17.0917 63.8289Z" fill="black"/>
<path d="M5.94461 64.7999V54.9107C5.94461 56.1599 6.98558 59.7686 7.50607 61.4168C12.9191 70.3691 27.111 72.6072 33.5303 72.6072C38.9087 72.8675 51.5912 72.6072 59.2944 69.4843C66.9976 66.3614 69.6173 55.6914 69.9643 50.7468C70.7451 55.171 69.1836 64.5397 69.4438 66.6216C69.7762 69.2803 62.4173 71.8265 59.0341 73.3879C56.3276 74.6371 43.8533 74.7759 37.9545 74.6892C19.0088 75.5219 7.50607 70.0048 5.94461 64.7999Z" fill="white" stroke="black"/>
<path d="M5.94471 64.8001C5.22709 67.9228 14.5847 74.6891 34.5713 74.6891C59.5546 74.6891 56.9522 73.6481 59.815 73.1279C62.2976 72.6767 70.0449 69.4723 69.678 66.9331C69.6007 66.7309 69.5216 66.5392 69.4439 66.3616C69.5738 66.5471 69.6498 66.7382 69.678 66.9331C70.2046 68.311 70.6452 70.1713 69.9644 71.3062C69.1838 72.6075 65.5403 75.2098 60.8559 76.2508C56.1716 77.2918 22.34 82.2364 8.54714 72.6074C4.64346 69.8822 4.64342 66.3616 5.94471 64.8001Z" fill="white"/>
<path d="M5.94471 64.8001C5.22709 67.9228 14.5847 74.6891 34.5713 74.6891C59.5546 74.6891 56.9522 73.6481 59.815 73.1279C62.4882 72.6421 71.2656 68.964 69.4439 66.3616C70.0512 67.7495 70.7451 70.0047 69.9644 71.3062C69.1838 72.6075 65.5403 75.2098 60.8559 76.2508C56.1716 77.2918 22.34 82.2364 8.54714 72.6074C4.64346 69.8822 4.64342 66.3616 5.94471 64.8001Z" stroke="black"/>
</svg>
