<svg width="33" height="34" viewBox="0 0 33 34" fill="none" xmlns="http://www.w3.org/2000/svg">
<path d="M2.84912 15.1572V19.3993C2.59532 18.0578 2.17473 15.0485 2.5228 13.7432C2.87087 12.4379 3.61052 11.2415 3.93684 10.8064C4.62573 9.97245 6.13403 7.95655 10.1368 6.12918C15.1404 3.84497 21.993 5.91163 23.6246 6.34672C25.2561 6.78181 29.4982 11.3502 29.7158 12.6555C29.8488 13.4534 29.8192 15.3485 29.8258 16.5027C29.9314 16.8573 29.9787 17.1512 29.9333 17.3327C29.8488 17.671 29.83 17.2367 29.8258 16.5027C29.5262 15.4972 28.7574 14.0035 28.3018 13.1993C27.1415 11.4953 22.8849 8.00005 15.1403 7.65198C7.39579 7.30391 3.71929 12.5105 2.84912 15.1572Z" fill="#7D7D7D"/>
<path d="M1.02451 18.3358L1.761 17.5503L1.86607 20.8117L1.07704 19.9665L1.02451 18.3358Z" fill="white" stroke="black" stroke-width="0.5"/>
<path d="M2.08771 21.1397L2.15315 21.7287C2.17781 21.9507 2.36547 22.1187 2.58885 22.1187C2.84582 22.1187 3.04761 21.8998 3.02118 21.6442C2.78776 19.3867 2.17256 15.2917 2.52279 13.9608C3.06665 11.8941 4.15438 10.9152 4.4807 10.3713C6.43859 7.97831 10.3696 5.81535 12.0947 5.58533C16.9895 4.93269 18.5123 5.04147 20.2526 5.58533C21.4491 5.80288 23.9509 6.67305 25.4737 7.76077C27.4229 9.1531 28.6281 10.3713 29.3895 12.5467C30.3833 15.3863 30.1146 19.1456 29.9333 21.5748V22.4832C29.9333 22.7624 30.1597 22.9889 30.439 22.9889C30.6567 22.9889 30.8523 22.8503 30.916 22.6422C31.1537 21.8664 31.2249 21.1514 31.1298 17.4415C31.0131 12.888 31.021 12.2204 29.607 8.73973C28.0842 5.15025 23.2982 0.690593 16.5544 1.01692C8.58692 1.40245 6.32395 4.87994 4.69823 7.21692C2.95788 9.71867 1.87017 11.8941 1.87016 15.0485L2.08771 21.1397Z" fill="white" stroke="black" stroke-width="0.5"/>
<path d="M32 18.3116L31.2386 17.5502V20.8134L32 19.9432V18.3116Z" fill="white" stroke="black" stroke-width="0.5"/>
<path d="M14.973 28.9544C13.5227 28.9906 10.0348 28.7368 7.68529 27.4316C6.70634 26.9602 4.66143 25.539 4.31336 23.6246C4.16833 21.1228 3.79126 15.3144 4.31336 14.2702C4.85722 13.4363 6.11898 11.8554 7.25021 11.3333C11.166 9.26666 11.9521 9.26666 16.4958 9.26666C20.0853 9.26667 23.3122 10.6082 25.1976 11.7684C27.2642 13.4 27.6993 14.7053 28.0256 15.6842C28.3913 16.7811 28.4607 21.014 28.2432 22.8632C28.0256 24.7123 25.959 26.9965 23.7835 27.9754C22.0432 28.7586 17.1847 28.9544 14.973 28.9544Z" fill="#1F1F1F" stroke="black"/>
<rect x="13.6687" y="27.0401" width="5.50372" height="5.50372" fill="#F1BFBF"/>
<rect x="8.71531" y="9.3349" width="15.4104" height="19.8134" rx="7.70521" fill="#FFD1D1"/>
<ellipse cx="19.31" cy="18.0032" rx="0.687965" ry="1.78871" fill="#3B8AD3"/>
<ellipse cx="13.8063" cy="18.0032" rx="0.687965" ry="1.78871" fill="#3B8AD3"/>
<path d="M19.4476 22.2686C19.4476 23.7884 18.2155 25.0205 16.6957 25.0205C15.1759 25.0205 13.9438 23.7884 13.9438 22.2686" stroke="black" stroke-width="0.5"/>
<line x1="16.6705" y1="19.792" x2="16.6705" y2="21.7183" stroke="black" stroke-width="0.5"/>
<line x1="16.4205" y1="21.4683" x2="17.2461" y2="21.4683" stroke="black" stroke-width="0.5"/>
<path d="M18.0246 15.1162C14.7223 14.4558 13.4381 11.4929 12.796 10.3005C11.0348 14.9236 9.58553 17.6388 8.66824 17.8681C8.8517 17.8222 8.28298 15.8317 8.94343 13.7403C9.60388 11.6489 11.8788 10.6674 12.796 10.3005C13.484 9.39776 18.9149 7.8578 22.5289 12.0742C23.2133 12.8726 24.8101 15.3819 24.2163 18.4185C23.5742 17.6388 21.3268 15.7767 18.0246 15.1162Z" fill="#FFBC12"/>
<path fill-rule="evenodd" clip-rule="evenodd" d="M2.95789 15.3749C3.50175 12.3292 7.85262 7.21696 15.6842 7.65205C23.5158 8.08714 27.6491 12.0392 28.7368 13.9608C29.3532 14.9035 30.4337 17.7896 29.8246 21.7924C29.2154 25.7952 28.0479 27.5936 27.5403 27.9924C27.2865 28.5725 25.713 29.9068 21.4491 30.6029C17.1853 31.2991 13.4363 31.038 12.0947 30.8205C10.6444 30.4942 7.65683 29.7328 7.30876 29.2977C7.21625 29.182 6.9762 29.0369 6.6545 28.8424C5.46324 28.122 3.1523 26.7247 3.06666 23.6415L2.95789 15.3749ZM7.63507 27.4485C9.98454 28.7538 13.4725 29.0076 14.9228 28.9714C17.1345 28.9714 21.993 28.7756 23.7333 27.9924C25.9088 27.0135 27.9754 24.7292 28.193 22.8801C28.4105 21.031 28.3411 16.7981 27.9754 15.7012C27.6491 14.7222 27.214 13.417 25.1474 11.7854C23.262 10.6251 20.0351 9.28363 16.4456 9.28362C11.9019 9.28362 11.1158 9.28362 7.19999 11.3503C6.06876 11.8724 4.807 13.4532 4.26314 14.2871C3.77087 15.2717 4.07794 20.4914 4.23621 23.1817C4.2458 23.3447 4.25485 23.4985 4.26314 23.6415C4.61121 25.5559 6.65612 26.9772 7.63507 27.4485Z" fill="black"/>
<path d="M15.6842 7.65205L15.6565 8.15128L15.6842 7.65205ZM2.95789 15.3749L2.46567 15.287L2.4573 15.3338L2.45793 15.3814L2.95789 15.3749ZM28.7368 13.9608L28.3017 14.2071L28.3096 14.2211L28.3184 14.2344L28.7368 13.9608ZM29.8246 21.7924L30.3189 21.8676L30.3189 21.8676L29.8246 21.7924ZM27.5403 27.9924L27.2314 27.5992L27.1326 27.6769L27.0823 27.792L27.5403 27.9924ZM12.0947 30.8205L11.985 31.3083L11.9997 31.3116L12.0147 31.314L12.0947 30.8205ZM7.30876 29.2977L7.6992 28.9853L7.6992 28.9853L7.30876 29.2977ZM6.6545 28.8424L6.39578 29.2702L6.39579 29.2702L6.6545 28.8424ZM3.06666 23.6415L2.56665 23.6481L2.56685 23.6554L3.06666 23.6415ZM14.9228 28.9714V28.4712L14.9103 28.4715L14.9228 28.9714ZM7.63507 27.4485L7.87789 27.0115L7.86513 27.0044L7.85197 26.998L7.63507 27.4485ZM23.7333 27.9924L23.5281 27.5364L23.5281 27.5364L23.7333 27.9924ZM28.193 22.8801L28.6895 22.9385L28.6895 22.9385L28.193 22.8801ZM27.9754 15.7012L28.4498 15.5431L28.4498 15.5431L27.9754 15.7012ZM25.1474 11.7854L25.4572 11.3929L25.4343 11.3749L25.4094 11.3596L25.1474 11.7854ZM16.4456 9.28362L16.4456 8.78362L16.4456 9.28362ZM7.19999 11.3503L7.40952 11.8043L7.4216 11.7987L7.43337 11.7925L7.19999 11.3503ZM4.26314 14.2871L3.84433 14.014L3.82871 14.038L3.81593 14.0635L4.26314 14.2871ZM4.23621 23.1817L4.73534 23.1523L4.73534 23.1523L4.23621 23.1817ZM4.26314 23.6415L3.76397 23.6705L3.76574 23.7009L3.7712 23.731L4.26314 23.6415ZM15.7119 7.15282C7.65032 6.70495 3.05779 11.9711 2.46567 15.287L3.4501 15.4628C3.9457 12.6874 8.05493 7.72897 15.6565 8.15128L15.7119 7.15282ZM29.172 13.7145C27.994 11.6334 23.7001 7.59661 15.7119 7.15282L15.6565 8.15128C23.3314 8.57767 27.3043 12.445 28.3017 14.2071L29.172 13.7145ZM30.3189 21.8676C30.9449 17.7535 29.8446 14.7413 29.1553 13.6872L28.3184 14.2344C28.8619 15.0657 29.9224 17.8257 29.3302 21.7172L30.3189 21.8676ZM27.8493 28.3856C28.2015 28.1088 28.661 27.4674 29.1035 26.442C29.5546 25.3966 30.009 23.904 30.3189 21.8676L29.3302 21.7172C29.031 23.6836 28.5971 25.0916 28.1853 26.0458C27.7649 27.02 27.3868 27.4772 27.2314 27.5992L27.8493 28.3856ZM21.5297 31.0964C23.6999 30.7421 25.212 30.2213 26.2273 29.6987C26.7349 29.4375 27.1237 29.173 27.4095 28.9242C27.688 28.6817 27.8937 28.4322 27.9984 28.1928L27.0823 27.792C27.0601 27.8427 26.9739 27.9775 26.7528 28.1701C26.5389 28.3563 26.2202 28.5777 25.7697 28.8096C24.8688 29.2732 23.4622 29.7676 21.3686 30.1095L21.5297 31.0964ZM12.0147 31.314C13.4068 31.5398 17.2101 31.8016 21.5297 31.0964L21.3686 30.1095C17.1604 30.7965 13.4657 30.5363 12.1748 30.3269L12.0147 31.314ZM6.91833 29.61C7.02966 29.7492 7.19318 29.8481 7.31884 29.9154C7.461 29.9915 7.63209 30.0664 7.81722 30.1389C8.18867 30.2843 8.65598 30.4352 9.14745 30.5796C10.1326 30.8691 11.2531 31.1436 11.985 31.3083L12.2045 30.3327C11.4861 30.171 10.3876 29.9017 9.42938 29.6201C8.94915 29.479 8.51365 29.3376 8.18172 29.2077C8.01515 29.1425 7.8844 29.0839 7.79088 29.0338C7.68086 28.9749 7.67488 28.9549 7.6992 28.9853L6.91833 29.61ZM6.39579 29.2702C6.56013 29.3696 6.68908 29.4477 6.78886 29.5147C6.89995 29.5893 6.92465 29.6179 6.91833 29.61L7.6992 28.9853C7.60036 28.8618 7.45879 28.76 7.34629 28.6845C7.2225 28.6014 7.07057 28.5096 6.91321 28.4145L6.39579 29.2702ZM2.56685 23.6554C2.66066 27.0327 5.2137 28.5555 6.39578 29.2702L6.91321 28.4145C5.71278 27.6886 3.64394 26.4167 3.56646 23.6276L2.56685 23.6554ZM2.45793 15.3814L2.5667 23.6481L3.56661 23.6349L3.45784 15.3683L2.45793 15.3814ZM14.9103 28.4715C14.2163 28.4889 13.0131 28.4366 11.6975 28.2197C10.3773 28.002 8.98147 27.6246 7.87789 27.0115L7.39224 27.8856C8.63814 28.5778 10.161 28.9799 11.5348 29.2064C12.913 29.4336 14.179 29.4901 14.9353 29.4712L14.9103 28.4715ZM23.5281 27.5364C23.1514 27.706 22.5713 27.8566 21.8474 27.9832C21.1319 28.1083 20.3079 28.2047 19.462 28.2774C17.7703 28.4228 16.0174 28.4714 14.9228 28.4714V29.4714C16.0399 29.4714 17.822 29.422 19.5476 29.2737C20.4104 29.1996 21.2655 29.1001 22.0196 28.9683C22.7652 28.8379 23.445 28.6704 23.9385 28.4484L23.5281 27.5364ZM27.6964 22.8217C27.6043 23.6045 27.1044 24.5456 26.3224 25.4318C25.5479 26.3096 24.5435 27.0795 23.5281 27.5364L23.9385 28.4484C25.0986 27.9263 26.2152 27.0647 27.0723 26.0934C27.9219 25.1304 28.5641 24.0049 28.6895 22.9385L27.6964 22.8217ZM27.5011 15.8593C27.5726 16.0738 27.642 16.4929 27.6965 17.0724C27.7496 17.6378 27.7853 18.3155 27.803 19.0211C27.8387 20.4381 27.8011 21.9315 27.6964 22.8217L28.6895 22.9385C28.8024 21.9796 28.8388 20.432 28.8027 18.996C28.7846 18.2752 28.748 17.5734 28.6921 16.9788C28.6375 16.3984 28.5611 15.877 28.4498 15.5431L27.5011 15.8593ZM24.8375 12.1778C25.832 12.9629 26.4165 13.6554 26.79 14.253C27.1639 14.8512 27.339 15.3729 27.5011 15.8593L28.4498 15.5431C28.2856 15.0505 28.0799 14.4301 27.638 13.723C27.1957 13.0153 26.5294 12.2394 25.4572 11.3929L24.8375 12.1778ZM16.4456 9.78362C19.9193 9.78363 23.0562 11.0856 24.8853 12.2112L25.4094 11.3596C23.4677 10.1647 20.1509 8.78363 16.4456 8.78362L16.4456 9.78362ZM7.43337 11.7925C9.38576 10.7621 10.5082 10.2748 11.6882 10.0317C12.8812 9.78589 14.1557 9.78362 16.4456 9.78362L16.4456 8.78362C14.1917 8.78362 12.8013 8.78135 11.4864 9.05224C10.1585 9.32582 8.93 9.87186 6.96661 10.9081L7.43337 11.7925ZM4.68194 14.5603C4.93948 14.1654 5.37354 13.5845 5.87755 13.0422C6.39007 12.4907 6.93446 12.0235 7.40952 11.8043L6.99046 10.8963C6.33428 11.1992 5.68218 11.7834 5.14505 12.3614C4.5994 12.9485 4.13065 13.575 3.84433 14.014L4.68194 14.5603ZM4.73534 23.1523C4.65611 21.8055 4.54042 19.8377 4.50562 18.0848C4.48822 17.2077 4.49129 16.3934 4.5282 15.7422C4.54667 15.4163 4.57319 15.1394 4.60799 14.92C4.64455 14.6894 4.68438 14.5627 4.71035 14.5107L3.81593 14.0635C3.71883 14.2577 3.66058 14.5095 3.62033 14.7633C3.57831 15.0283 3.54929 15.3417 3.5298 15.6856C3.49078 16.3741 3.48821 17.2175 3.50582 18.1047C3.54106 19.8803 3.65803 21.8675 3.73707 23.211L4.73534 23.1523ZM4.7623 23.6126C4.75399 23.4693 4.74493 23.3153 4.73534 23.1523L3.73707 23.211C3.74666 23.3742 3.7557 23.5277 3.76397 23.6705L4.7623 23.6126ZM7.85197 26.998C7.40588 26.7833 6.69501 26.3396 6.05976 25.7264C5.42088 25.1098 4.90288 24.365 4.75507 23.5521L3.7712 23.731C3.97146 24.8324 4.64995 25.7555 5.36529 26.4459C6.08425 27.1399 6.88531 27.6425 7.41816 27.899L7.85197 26.998Z" fill="black"/>
<path d="M3.06666 27.666V23.5327C3.06666 24.0548 3.50175 25.5631 3.71929 26.252C5.98175 29.9938 11.9134 30.9292 14.5965 30.9292C16.8444 31.038 22.1453 30.9292 25.3649 29.6239C28.5846 28.3187 29.6795 23.859 29.8246 21.7924C30.1509 23.6415 29.4982 27.5573 29.607 28.4274C29.7459 29.5387 26.6702 30.6029 25.2561 31.2555C24.1249 31.7776 18.9111 31.8356 16.4456 31.7994C8.52701 32.1474 3.71929 29.8415 3.06666 27.666Z" fill="white" stroke="black" stroke-width="0.5"/>
<path d="M3.0667 27.6661C2.76676 28.9712 6.67789 31.7993 15.0316 31.7993C25.4737 31.7993 24.386 31.3642 25.5825 31.1468C26.6201 30.9582 29.8583 29.6189 29.7049 28.5576C29.6726 28.4731 29.6395 28.3929 29.6071 28.3187C29.6613 28.3963 29.6931 28.4761 29.7049 28.5576C29.925 29.1335 30.1091 29.911 29.8246 30.3854C29.4983 30.9293 27.9755 32.017 26.0176 32.452C24.0597 32.8871 9.91934 34.9538 4.15442 30.9292C2.52282 29.7902 2.5228 28.3187 3.0667 27.6661Z" fill="white"/>
<path d="M3.0667 27.6661C2.76676 28.9712 6.67789 31.7993 15.0316 31.7993C25.4737 31.7993 24.386 31.3642 25.5825 31.1468C26.6998 30.9437 30.3685 29.4064 29.6071 28.3187C29.8609 28.8988 30.1509 29.8414 29.8246 30.3854C29.4983 30.9293 27.9755 32.017 26.0176 32.452C24.0597 32.8871 9.91934 34.9538 4.15442 30.9292C2.52282 29.7902 2.5228 28.3187 3.0667 27.6661Z" stroke="black" stroke-width="0.5"/>
</svg>
