<svg width="34" height="35" viewBox="0 0 34 35" fill="none" xmlns="http://www.w3.org/2000/svg">
<path d="M2.90875 15.7023V20.0812C2.64676 18.6964 2.21261 15.59 2.57191 14.2426C2.9312 12.8953 3.69471 11.6602 4.03156 11.211C4.74267 10.3502 6.29963 8.2693 10.4316 6.38298C15.5965 4.02508 22.6702 6.15841 24.3544 6.60753C26.0386 7.05666 30.4175 11.7724 30.6421 13.1198C30.7794 13.9434 30.7488 15.8997 30.7556 17.0911C30.8647 17.4572 30.9135 17.7605 30.8667 17.9479C30.7794 18.2971 30.7599 17.8488 30.7556 17.0911C30.4464 16.0532 29.6528 14.5113 29.1824 13.6812C27.9848 11.9222 23.5909 8.3142 15.5965 7.9549C7.60208 7.5956 3.80699 12.9701 2.90875 15.7023Z" fill="#7D7D7D"/>
<path d="M1.02531 18.9833L1.78556 18.1724L1.89401 21.5391L1.07954 20.6666L1.02531 18.9833Z" fill="white" stroke="black" stroke-width="0.5"/>
<path d="M2.1228 21.8777L2.19034 22.4857C2.2158 22.7149 2.40951 22.8882 2.6401 22.8882C2.90536 22.8882 3.11366 22.6623 3.08638 22.3984C2.84543 20.0681 2.21038 15.841 2.57191 14.4672C3.13331 12.3338 4.25613 11.3233 4.59298 10.7619C6.61403 8.29174 10.6719 6.059 12.4526 5.82156C17.5053 5.14787 19.0772 5.26016 20.8737 5.82156C22.1088 6.04612 24.6912 6.94437 26.2632 8.06718C28.2753 9.50442 29.5193 10.7619 30.3053 13.0075C31.3312 15.9387 31.0538 19.8192 30.8666 22.3268V23.2645C30.8666 23.5528 31.1004 23.7865 31.3887 23.7865C31.6133 23.7865 31.8153 23.6435 31.8811 23.4286C32.1264 22.6278 32.1999 21.8897 32.1017 18.0602C31.9812 13.3598 31.9895 12.6707 30.5298 9.07772C28.9579 5.37245 24.0175 0.76893 17.0561 1.10578C8.83166 1.50375 6.49569 5.09342 4.81752 7.50578C3.02103 10.0882 1.89824 12.3338 1.89822 15.59L2.1228 21.8777Z" fill="white" stroke="black" stroke-width="0.5"/>
<path d="M33 18.9584L32.214 18.1724V21.5408L33 20.6426V18.9584Z" fill="white" stroke="black" stroke-width="0.5"/>
<path d="M15.4237 29.9445C13.9267 29.9819 10.3262 29.7199 7.90092 28.3725C6.8904 27.886 4.77952 26.4188 4.42022 24.4427C4.27051 21.8602 3.88127 15.8645 4.42022 14.7866C4.98162 13.9257 6.28409 12.2939 7.45181 11.755C11.4939 9.62164 12.3053 9.62164 16.9957 9.62164C20.7009 9.62165 24.0319 11.0064 25.9781 12.2041C28.1115 13.8883 28.5606 15.2357 28.8974 16.2462C29.2749 17.3785 29.3465 21.748 29.122 23.6567C28.8974 25.5655 26.7641 27.9234 24.5185 28.9339C22.722 29.7424 17.7068 29.9445 15.4237 29.9445Z" fill="#1F1F1F" stroke="black"/>
<path d="M7.17545 21.2989C7.17545 20.1311 8.67253 15.5725 9.42106 13.4392H9.75791L19.9755 10.1831C21.5474 9.73394 25.8141 13.8883 26.2632 15.2357C26.7123 16.5831 27.2363 21.1117 27.1614 22.4217C27.0491 23.9936 26.892 26.7332 27.1614 28.7094C27.4309 30.6855 26.1883 30.3936 26.2632 30.2813L20.3123 31.8532L8.6351 30.6182C7.96141 29.5328 6.05265 27.8785 6.50177 27.6989C7.06318 27.4743 7.17545 22.7585 7.17545 21.2989Z" fill="#452123"/>
<rect x="14.0774" y="27.9685" width="5.68126" height="5.68126" fill="#F1BFBF"/>
<rect x="8.9642" y="9.69214" width="15.9075" height="20.4525" rx="7.95376" fill="#FFDAD1"/>
<ellipse cx="19.9006" cy="18.6401" rx="0.710157" ry="1.84641" fill="#553234"/>
<ellipse cx="14.2194" cy="18.6401" rx="0.710157" ry="1.84641" fill="#553234"/>
<path d="M20.0427 23.043C20.0427 24.6119 18.7709 25.8837 17.202 25.8837C15.6332 25.8837 14.3614 24.6119 14.3614 23.043" stroke="black" stroke-width="0.5"/>
<line x1="17.168" y1="20.4865" x2="17.168" y2="22.475" stroke="black" stroke-width="0.5"/>
<line x1="16.918" y1="22.2249" x2="17.7702" y2="22.2249" stroke="black" stroke-width="0.5"/>
<path d="M18.5738 15.4354C15.165 14.7536 13.8394 11.6952 13.1766 10.4642C11.3586 15.2365 9.86249 18.0393 8.91561 18.276C9.10499 18.2286 8.51793 16.1739 9.19968 14.015C9.88143 11.8562 12.2297 10.843 13.1766 10.4642C13.8867 9.53242 19.4928 7.94279 23.2234 12.2952C23.9298 13.1194 25.5781 15.7096 24.9652 18.8441C24.3024 18.0393 21.9825 16.1171 18.5738 15.4354Z" fill="#452123"/>
<path fill-rule="evenodd" clip-rule="evenodd" d="M3.02106 15.9268C3.58246 12.783 8.07369 7.50577 16.1579 7.95489C24.2421 8.40401 28.5088 12.4835 29.6316 14.4672C30.2679 15.4403 31.3832 18.4195 30.7544 22.5514C30.1256 26.6833 28.9205 28.5397 28.3965 28.9514C28.1345 29.5502 26.5102 30.9275 22.1088 31.6461C17.7074 32.3647 13.8374 32.0953 12.4526 31.8707C10.9556 31.5338 7.87159 30.7479 7.51229 30.2988C7.41679 30.1794 7.169 30.0296 6.83692 29.8288C5.60723 29.0852 3.22174 27.6428 3.13334 24.4602L3.02106 15.9268ZM7.84912 28.39C10.2744 29.7374 13.8749 29.9993 15.3719 29.9619C17.655 29.9619 22.6702 29.7598 24.4667 28.9514C26.7123 27.9409 28.8456 25.583 29.0702 23.6742C29.2947 21.7654 29.2231 17.396 28.8456 16.2637C28.5088 15.2531 28.0597 13.9058 25.9263 12.2216C23.9801 11.0239 20.6491 9.6391 16.9439 9.6391C12.2535 9.6391 11.4421 9.6391 7.40001 11.7724C6.23228 12.3114 4.92982 13.9432 4.36842 14.804C3.86028 15.8203 4.17725 21.2084 4.34062 23.9855C4.35052 24.1538 4.35986 24.3126 4.36842 24.4602C4.72772 26.4363 6.83859 27.9034 7.84912 28.39Z" fill="black"/>
<path d="M16.1579 7.95489L16.1302 8.45412L16.1579 7.95489ZM3.02106 15.9268L2.52884 15.8389L2.52047 15.8858L2.5211 15.9334L3.02106 15.9268ZM29.6316 14.4672L29.1965 14.7135L29.2043 14.7274L29.2131 14.7408L29.6316 14.4672ZM30.7544 22.5514L31.2487 22.6266L31.2487 22.6266L30.7544 22.5514ZM28.3965 28.9514L28.0876 28.5582L27.9888 28.6359L27.9384 28.751L28.3965 28.9514ZM22.1088 31.6461L22.1893 32.1396L22.1893 32.1396L22.1088 31.6461ZM12.4526 31.8707L12.3429 32.3585L12.3577 32.3618L12.3726 32.3642L12.4526 31.8707ZM7.51229 30.2988L7.90272 29.9864L7.90272 29.9864L7.51229 30.2988ZM6.83692 29.8288L6.5782 30.2566L6.5782 30.2566L6.83692 29.8288ZM3.13334 24.4602L2.63333 24.4667L2.63353 24.474L3.13334 24.4602ZM15.3719 29.9619L15.3719 29.4618L15.3594 29.4621L15.3719 29.9619ZM7.84912 28.39L8.09194 27.9529L8.07918 27.9458L8.06603 27.9395L7.84912 28.39ZM24.4667 28.9514L24.2615 28.4954L24.2615 28.4954L24.4667 28.9514ZM29.0702 23.6742L28.5736 23.6158L28.5736 23.6158L29.0702 23.6742ZM28.8456 16.2637L28.3713 16.4218L28.3713 16.4218L28.8456 16.2637ZM25.9263 12.2216L26.2361 11.8291L26.2132 11.811L26.1884 11.7957L25.9263 12.2216ZM16.9439 9.6391L16.9439 9.1391L16.9439 9.6391ZM7.40001 11.7724L7.60953 12.2264L7.62162 12.2208L7.63338 12.2146L7.40001 11.7724ZM4.36842 14.804L3.94962 14.5309L3.93399 14.5548L3.92121 14.5804L4.36842 14.804ZM4.34062 23.9855L4.83976 23.9561L4.83976 23.9561L4.34062 23.9855ZM4.36842 24.4602L3.86926 24.4891L3.87102 24.5196L3.87648 24.5496L4.36842 24.4602ZM16.1856 7.45566C7.87139 6.99376 3.1385 12.4248 2.52884 15.8389L3.51327 16.0147C4.02642 13.1411 8.27599 8.01778 16.1302 8.45412L16.1856 7.45566ZM30.0667 14.2209C28.8536 12.0778 24.4265 7.91349 16.1856 7.45566L16.1302 8.45412C24.0578 8.89454 28.1639 12.8893 29.1965 14.7135L30.0667 14.2209ZM31.2487 22.6266C31.8944 18.3834 30.7592 15.2781 30.0501 14.1936L29.2131 14.7408C29.7765 15.6025 30.8719 18.4555 30.2601 22.4762L31.2487 22.6266ZM28.7054 29.3446C29.0659 29.0613 29.5388 28.4022 29.9952 27.3446C30.4603 26.267 30.929 24.7275 31.2487 22.6266L30.2601 22.4762C29.951 24.5072 29.5028 25.9619 29.0771 26.9484C28.6427 27.9548 28.2511 28.4298 28.0876 28.5582L28.7054 29.3446ZM22.1893 32.1396C24.4284 31.774 25.9875 31.2369 27.0337 30.6984C27.5568 30.4292 27.957 30.1569 28.2508 29.9011C28.5374 29.6516 28.7478 29.3959 28.8546 29.1518L27.9384 28.751C27.9142 28.8063 27.8233 28.9474 27.5941 29.1469C27.3721 29.3402 27.0421 29.5695 26.5761 29.8093C25.6443 30.2888 24.1906 30.7996 22.0282 31.1527L22.1893 32.1396ZM12.3726 32.3642C13.808 32.597 17.7322 32.8673 22.1893 32.1396L22.0282 31.1527C17.6825 31.8622 13.8669 31.5935 12.5327 31.3771L12.3726 32.3642ZM7.12185 30.6111C7.23459 30.752 7.40084 30.8529 7.5303 30.9222C7.67626 31.0004 7.85222 31.0774 8.04302 31.1521C8.42582 31.3019 8.90769 31.4575 9.41483 31.6065C10.4313 31.9052 11.5876 32.1886 12.3429 32.3585L12.5624 31.3829C11.8206 31.216 10.6864 30.9379 9.69676 30.6471C9.20086 30.5014 8.7508 30.3552 8.40752 30.2209C8.23528 30.1535 8.09966 30.0928 8.00234 30.0406C7.88853 29.9797 7.87981 29.9578 7.90272 29.9864L7.12185 30.6111ZM6.5782 30.2566C6.74774 30.3591 6.88122 30.44 6.9846 30.5094C7.09929 30.5864 7.12668 30.6171 7.12185 30.6111L7.90272 29.9864C7.80239 29.861 7.65814 29.7571 7.54204 29.6792C7.41463 29.5936 7.25818 29.4992 7.09563 29.4009L6.5782 30.2566ZM2.63353 24.474C2.73011 27.9508 5.35769 29.5186 6.5782 30.2566L7.09563 29.4009C5.85677 28.6518 3.71338 27.3348 3.63315 24.4463L2.63353 24.474ZM2.5211 15.9334L2.63338 24.4667L3.63329 24.4536L3.52101 15.9202L2.5211 15.9334ZM15.3594 29.4621C14.642 29.48 13.399 29.426 12.0399 29.2019C10.6764 28.9771 9.23342 28.5871 8.09194 27.9529L7.6063 28.8271C8.89009 29.5403 10.46 29.9549 11.8773 30.1886C13.299 30.423 14.6048 30.4812 15.3844 30.4618L15.3594 29.4621ZM24.2615 28.4954C23.8708 28.6713 23.2703 28.8271 22.5226 28.9578C21.7835 29.0871 20.9324 29.1866 20.0589 29.2616C18.3122 29.4118 16.5022 29.4619 15.3719 29.4619V30.4619C16.5247 30.4619 18.3638 30.411 20.1446 30.258C21.0349 30.1815 21.9171 30.0789 22.6949 29.9429C23.4642 29.8083 24.1643 29.6357 24.6719 29.4073L24.2615 28.4954ZM28.5736 23.6158C28.478 24.4284 27.9596 25.4028 27.1514 26.3188C26.3505 27.2265 25.3119 28.0227 24.2615 28.4954L24.6719 29.4073C25.867 28.8695 27.0179 27.9816 27.9012 26.9804C28.7772 25.9877 29.4378 24.8287 29.5668 23.7326L28.5736 23.6158ZM28.3713 16.4218C28.4457 16.6451 28.5175 17.0794 28.5737 17.6776C28.6286 18.2617 28.6655 18.9617 28.6838 19.6903C28.7206 21.1533 28.6818 22.6957 28.5736 23.6158L29.5668 23.7326C29.6831 22.7439 29.7208 21.1472 29.6835 19.6652C29.6648 18.9213 29.627 18.1974 29.5693 17.584C29.513 16.9849 29.4342 16.4483 29.32 16.1056L28.3713 16.4218ZM25.6165 12.614C26.6443 13.4254 27.249 14.1416 27.6357 14.7602C28.0227 15.3795 28.2039 15.9196 28.3713 16.4218L29.32 16.1056C29.1505 15.5972 28.9387 14.9583 28.4837 14.2302C28.0282 13.5015 27.3417 12.7019 26.2361 11.8291L25.6165 12.614ZM16.9439 10.1391C20.5333 10.1391 23.7744 11.4844 25.6643 12.6474L26.1884 11.7957C24.1859 10.5634 20.7649 9.1391 16.9439 9.1391L16.9439 10.1391ZM7.63338 12.2146C9.64894 11.1509 10.8093 10.6469 12.0297 10.3955C13.2632 10.1414 14.5807 10.1391 16.9439 10.1391L16.9439 9.1391C14.6167 9.1391 13.1833 9.13683 11.828 9.41605C10.4596 9.69796 9.19318 10.2607 7.16663 11.3302L7.63338 12.2146ZM4.78723 15.0771C5.05354 14.6688 5.50216 14.0684 6.02309 13.5079C6.55254 12.9382 7.11624 12.4541 7.60953 12.2264L7.19048 11.3185C6.51605 11.6297 5.84466 12.231 5.29059 12.8271C4.72802 13.4325 4.24471 14.0784 3.94962 14.5309L4.78723 15.0771ZM4.83976 23.9561C4.75797 22.5659 4.63852 20.5344 4.6026 18.7245C4.58463 17.8189 4.5878 16.9779 4.62593 16.3051C4.64501 15.9684 4.67243 15.682 4.70846 15.4547C4.74626 15.2163 4.78768 15.0835 4.81563 15.0276L3.92121 14.5804C3.82212 14.7786 3.76229 15.0365 3.7208 15.2981C3.67755 15.5709 3.64764 15.8938 3.62753 16.2485C3.58728 16.9586 3.58463 17.8288 3.6028 18.7444C3.63917 20.5769 3.75989 22.6279 3.84148 24.0148L4.83976 23.9561ZM4.86758 24.4312C4.85901 24.2834 4.84966 24.1244 4.83976 23.9561L3.84148 24.0148C3.85139 24.1832 3.86071 24.3417 3.86926 24.4891L4.86758 24.4312ZM8.06603 27.9395C7.60414 27.7171 6.86889 27.2581 6.2118 26.6239C5.55107 25.9862 5.01377 25.2145 4.86035 24.3707L3.87648 24.5496C4.08236 25.6819 4.78015 26.6319 5.51732 27.3434C6.25813 28.0584 7.08357 28.5763 7.63221 28.8405L8.06603 27.9395Z" fill="black"/>
<path d="M3.13333 28.6146V24.3479C3.13333 24.8868 3.58245 26.4438 3.80702 27.1549C6.14246 31.0174 12.2655 31.983 15.0351 31.983C17.3556 32.0953 22.8274 31.983 26.1509 30.6356C29.4744 29.2882 30.6047 24.6847 30.7544 22.5514C31.0912 24.4602 30.4176 28.5023 30.5298 29.4005C30.6732 30.5476 27.4983 31.6461 26.0386 32.3198C24.8709 32.8588 19.4889 32.9186 16.9439 32.8812C8.76982 33.2405 3.80702 30.8602 3.13333 28.6146Z" fill="white" stroke="black" stroke-width="0.5"/>
<path d="M3.13339 28.6146C2.82377 29.9619 6.86107 32.8812 15.4842 32.8812C26.2632 32.8812 25.1404 32.4321 26.3755 32.2076C27.4466 32.013 30.7892 30.6304 30.6309 29.5349C30.5975 29.4477 30.5634 29.3649 30.5299 29.2883C30.5859 29.3684 30.6187 29.4508 30.6309 29.5349C30.8581 30.1294 31.0482 30.932 30.7544 31.4216C30.4177 31.9831 28.8457 33.1059 26.8246 33.555C24.8036 34.0041 10.2071 36.1374 4.2562 31.983C2.57197 30.8073 2.57195 29.2883 3.13339 28.6146Z" fill="white"/>
<path d="M3.13339 28.6146C2.82377 29.9619 6.86107 32.8812 15.4842 32.8812C26.2632 32.8812 25.1404 32.4321 26.3755 32.2076C27.5289 31.998 31.3159 30.4111 30.5299 29.2883C30.7919 29.8871 31.0913 30.8601 30.7544 31.4216C30.4177 31.9831 28.8457 33.1059 26.8246 33.555C24.8036 34.0041 10.2071 36.1374 4.2562 31.983C2.57197 30.8073 2.57195 29.2883 3.13339 28.6146Z" stroke="black" stroke-width="0.5"/>
</svg>
