<svg width="33" height="35" viewBox="0 0 33 35" fill="none" xmlns="http://www.w3.org/2000/svg">
<path d="M2.88516 15.4332V19.758C2.62642 18.3903 2.19763 15.3223 2.55249 13.9916C2.90734 12.6609 3.66141 11.4411 3.99409 10.9975C4.6964 10.1474 6.23411 8.09216 10.3149 6.22918C15.416 3.90044 22.4022 6.00738 24.0656 6.45095C25.7289 6.89452 30.0537 11.552 30.2755 12.8827C30.4111 13.6961 30.3809 15.6282 30.3876 16.8049C30.4953 17.1664 30.5436 17.466 30.4973 17.6511C30.4111 17.9959 30.3919 17.5532 30.3876 16.8049C30.0822 15.7798 29.2985 14.257 28.8339 13.4372C27.6511 11.6998 23.3115 8.13651 15.416 7.78166C7.52045 7.4268 3.7723 12.7348 2.88516 15.4332Z" fill="#7D7D7D"/>
<path d="M1.02499 18.6737L1.77584 17.8728L1.88296 21.1979L1.07855 20.3362L1.02499 18.6737Z" fill="white" stroke="black" stroke-width="0.5"/>
<path d="M2.10891 21.5323L2.17562 22.1327C2.20077 22.3591 2.39208 22.5303 2.61982 22.5303C2.88179 22.5303 3.08752 22.3071 3.06057 22.0465C2.82261 19.745 2.19541 15.5702 2.55247 14.2134C3.10693 12.1065 4.21586 11.1084 4.54854 10.554C6.5446 8.11433 10.5523 5.90921 12.311 5.67471C17.3011 5.00935 18.8536 5.12025 20.6279 5.67471C21.8477 5.89649 24.3982 6.78363 25.9507 7.89255C27.938 9.31202 29.1666 10.554 29.9428 12.7718C30.9561 15.6667 30.6821 19.4993 30.4973 21.9759V22.9019C30.4973 23.1866 30.7281 23.4175 31.0128 23.4175C31.2347 23.4175 31.4342 23.2762 31.4992 23.064C31.7414 22.2731 31.8141 21.5442 31.7171 17.762C31.5981 13.1198 31.6062 12.4391 30.1646 8.89059C28.6121 5.23115 23.7329 0.684563 16.8576 1.01725C8.7348 1.4103 6.42773 4.95557 4.77031 7.3381C2.99604 9.88862 1.88713 12.1065 1.88712 15.3223L2.10891 21.5323Z" fill="white" stroke="black" stroke-width="0.5"/>
<path d="M32.6042 18.6491L31.828 17.8729V21.1996L32.6042 20.3125V18.6491Z" fill="white" stroke="black" stroke-width="0.5"/>
<path d="M15.2454 29.4993C13.7668 29.5362 10.2109 29.2775 7.81561 27.9468C6.81758 27.4662 4.73281 26.0173 4.37795 24.0656C4.2301 21.515 3.84567 15.5934 4.37795 14.5288C4.93241 13.6787 6.21877 12.067 7.37205 11.5347C11.3642 9.4278 12.1656 9.42779 16.7979 9.4278C20.4573 9.4278 23.7471 10.7955 25.6692 11.9783C27.7762 13.6417 28.2198 14.9724 28.5524 15.9704C28.9252 17.0887 28.996 21.4041 28.7742 23.2893C28.5524 25.1745 26.4455 27.5032 24.2276 28.5012C22.4534 29.2997 17.5002 29.4993 15.2454 29.4993Z" fill="#1F1F1F" stroke="black"/>
<rect x="13.9156" y="27.5477" width="5.611" height="5.611" fill="#5C4740"/>
<rect x="8.86572" y="9.49744" width="15.7108" height="20.1996" rx="7.8554" fill="#634D46"/>
<ellipse cx="19.6669" cy="18.3347" rx="0.701375" ry="1.82357" fill="black"/>
<ellipse cx="14.0559" cy="18.3347" rx="0.701375" ry="1.82357" fill="black"/>
<path d="M19.8072 22.6832C19.8072 24.2327 18.5511 25.4887 17.0017 25.4887C15.4522 25.4887 14.1962 24.2327 14.1962 22.6832" stroke="black" stroke-width="0.5"/>
<line x1="16.9711" y1="20.1583" x2="16.9711" y2="22.1222" stroke="black" stroke-width="0.5"/>
<line x1="16.7211" y1="21.8722" x2="17.5628" y2="21.8722" stroke="black" stroke-width="0.5"/>
<circle cx="9.6833" cy="13.7812" r="1.77427" transform="rotate(30 9.6833 13.7812)" fill="#3C3C3C"/>
<circle cx="8.52477" cy="12.7386" r="1.77427" transform="rotate(30 8.52477 12.7386)" fill="#3C3C3C"/>
<circle cx="9.85545" cy="10.9644" r="1.77427" transform="rotate(30 9.85545 10.9644)" fill="#3C3C3C"/>
<circle cx="14.769" cy="10.9986" r="1.77427" transform="rotate(71.9773 14.769 10.9986)" fill="#3C3C3C"/>
<circle cx="19.0415" cy="10.8354" r="1.77427" transform="rotate(100.706 19.0415 10.8354)" fill="#3C3C3C"/>
<circle cx="22.911" cy="12.9212" r="1.77427" transform="rotate(135.788 22.911 12.9212)" fill="#3C3C3C"/>
<circle cx="23.026" cy="13.711" r="1.77427" transform="rotate(135.788 23.026 13.711)" fill="#3C3C3C"/>
<circle cx="8.98423" cy="14.9724" r="1.77427" fill="#3C3C3C"/>
<circle cx="12.2951" cy="11.1862" r="1.77427" transform="rotate(30 12.2951 11.1862)" fill="#3C3C3C"/>
<circle cx="17.4788" cy="11.2193" r="1.77427" transform="rotate(71.9773 17.4788 11.2193)" fill="#3C3C3C"/>
<circle cx="21.4811" cy="11.9444" r="1.77427" transform="rotate(100.706 21.4811 11.9444)" fill="#3C3C3C"/>
<circle cx="23.6914" cy="13.9328" r="1.77427" transform="rotate(135.788 23.6914 13.9328)" fill="#3C3C3C"/>
<circle cx="24.5785" cy="12.1585" r="1.77427" transform="rotate(135.788 24.5785 12.1585)" fill="#3C3C3C"/>
<circle cx="10.9644" cy="12.7386" r="1.77427" transform="rotate(30 10.9644 12.7386)" fill="#3C3C3C"/>
<circle cx="16.3215" cy="10.3333" r="1.77427" transform="rotate(71.9773 16.3215 10.3333)" fill="#3C3C3C"/>
<circle cx="19.485" cy="11.7226" r="1.77427" transform="rotate(100.706 19.485 11.7226)" fill="#3C3C3C"/>
<circle cx="21.9247" cy="10.6136" r="1.77427" transform="rotate(100.706 21.9247 10.6136)" fill="#3C3C3C"/>
<circle cx="24.3567" cy="14.8199" r="1.77427" transform="rotate(135.788 24.3567 14.8199)" fill="#3C3C3C"/>
<path fill-rule="evenodd" clip-rule="evenodd" d="M2.99606 15.655C3.55052 12.55 7.98621 7.33808 15.9704 7.78165C23.9547 8.22521 28.1686 12.2543 29.2775 14.2134C29.9059 15.1745 31.0074 18.1168 30.3864 22.1976C29.7654 26.2785 28.5752 28.1119 28.0577 28.5185C27.7989 29.1099 26.1947 30.4702 21.8477 31.1799C17.5008 31.8896 13.6787 31.6235 12.311 31.4017C10.8324 31.069 7.7866 30.2927 7.43175 29.8492C7.33743 29.7313 7.0927 29.5833 6.76473 29.385C5.55025 28.6506 3.19427 27.2261 3.10696 24.0828L2.99606 15.655ZM7.76441 27.964C10.1597 29.2947 13.7156 29.5535 15.1942 29.5165C17.449 29.5165 22.4022 29.3169 24.1764 28.5185C26.3943 27.5205 28.5012 25.1917 28.723 23.3066C28.9448 21.4214 28.874 17.106 28.5012 15.9877C28.1686 14.9896 27.725 13.6589 25.618 11.9956C23.6959 10.8127 20.4061 9.44504 16.7467 9.44504C12.1144 9.44504 11.313 9.44504 7.32085 11.552C6.16757 12.0843 4.88121 13.6959 4.32675 14.5461C3.82489 15.5498 4.13795 20.8713 4.2993 23.614C4.30908 23.7802 4.3183 23.937 4.32675 24.0828C4.68161 26.0345 6.76638 27.4835 7.76441 27.964Z" fill="black"/>
<path d="M15.9704 7.78165L15.9427 8.28088L15.9704 7.78165ZM2.99606 15.655L2.50385 15.5671L2.49548 15.614L2.49611 15.6616L2.99606 15.655ZM29.2775 14.2134L28.8424 14.4597L28.8503 14.4736L28.859 14.487L29.2775 14.2134ZM30.3864 22.1976L29.8921 22.1224L29.8921 22.1224L30.3864 22.1976ZM28.0577 28.5185L27.7488 28.1253L27.65 28.2029L27.5996 28.3181L28.0577 28.5185ZM21.8477 31.1799L21.7672 30.6864L21.7672 30.6864L21.8477 31.1799ZM12.311 31.4017L12.2012 31.8895L12.216 31.8928L12.231 31.8952L12.311 31.4017ZM7.43175 29.8492L7.82218 29.5368L7.82218 29.5368L7.43175 29.8492ZM6.76473 29.385L6.50602 29.8129L6.50602 29.8129L6.76473 29.385ZM3.10696 24.0828L2.60695 24.0894L2.60715 24.0967L3.10696 24.0828ZM15.1942 29.5165V29.0164L15.1817 29.0167L15.1942 29.5165ZM7.76441 27.964L8.00723 27.5269L7.99447 27.5199L7.98131 27.5135L7.76441 27.964ZM24.1764 28.5185L23.9713 28.0625L23.9713 28.0625L24.1764 28.5185ZM28.723 23.3066L28.2264 23.2481L28.2264 23.2481L28.723 23.3066ZM28.5012 15.9877L28.0269 16.1458L28.0269 16.1458L28.5012 15.9877ZM25.618 11.9956L25.9279 11.6031L25.9049 11.585L25.8801 11.5697L25.618 11.9956ZM16.7467 9.44504L16.7467 8.94504L16.7467 9.44504ZM7.32085 11.552L7.53038 12.006L7.54246 12.0004L7.55423 11.9942L7.32085 11.552ZM4.32675 14.5461L3.90795 14.2729L3.89233 14.2969L3.87954 14.3225L4.32675 14.5461ZM4.2993 23.614L4.79843 23.5846L4.79843 23.5846L4.2993 23.614ZM4.32675 24.0828L3.82759 24.1117L3.82936 24.1422L3.83482 24.1722L4.32675 24.0828ZM15.9982 7.28242C7.78391 6.82607 3.10657 12.1919 2.50385 15.5671L3.48828 15.7429C3.99448 12.9081 8.18851 7.85009 15.9427 8.28088L15.9982 7.28242ZM29.7126 13.9671C28.5134 11.8485 24.139 7.73469 15.9982 7.28242L15.9427 8.28088C23.7703 8.71574 27.8237 12.6601 28.8424 14.4597L29.7126 13.9671ZM30.8807 22.2728C31.5187 18.0807 30.3972 15.0123 29.696 13.9398L28.859 14.487C29.4145 15.3366 30.4962 18.1529 29.8921 22.1224L30.8807 22.2728ZM28.3666 28.9116C28.7238 28.631 29.1914 27.9788 29.6423 26.934C30.1019 25.8691 30.5649 24.3482 30.8807 22.2728L29.8921 22.1224C29.5869 24.1279 29.1444 25.5641 28.7242 26.5378C28.2953 27.5315 27.909 27.9994 27.7488 28.1253L28.3666 28.9116ZM21.9283 31.6734C24.1401 31.3122 25.6806 30.7816 26.7146 30.2494C27.2315 29.9833 27.6272 29.7142 27.9179 29.4611C28.2013 29.2143 28.4098 28.9611 28.5158 28.7189L27.5996 28.3181C27.5762 28.3716 27.4872 28.5101 27.2612 28.7069C27.0424 28.8975 26.7168 29.1236 26.257 29.3602C25.3374 29.8335 23.9023 30.3378 21.7672 30.6864L21.9283 31.6734ZM12.231 31.8952C13.6492 32.1252 17.5256 32.3922 21.9283 31.6734L21.7672 30.6864C17.4759 31.387 13.7081 31.1217 12.391 30.9081L12.231 31.8952ZM7.04131 30.1615C7.15349 30.3018 7.31867 30.4019 7.44662 30.4704C7.59107 30.5477 7.76511 30.6239 7.95366 30.6977C8.33197 30.8458 8.80808 30.9995 9.30902 31.1467C10.3131 31.4418 11.4552 31.7216 12.2012 31.8895L12.4208 30.9139C11.6882 30.749 10.5682 30.4744 9.59095 30.1873C9.10125 30.0434 8.65695 29.8991 8.31816 29.7665C8.14817 29.7 8.01447 29.6401 7.91866 29.5888C7.80635 29.5287 7.79871 29.5075 7.82218 29.5368L7.04131 30.1615ZM6.50602 29.8129C6.6735 29.9141 6.80519 29.9939 6.90715 30.0624C7.02041 30.1384 7.04673 30.1683 7.04131 30.1615L7.82218 29.5368C7.72244 29.4122 7.57925 29.3091 7.46458 29.2321C7.3386 29.1475 7.18394 29.0542 7.02344 28.9571L6.50602 29.8129ZM2.60715 24.0967C2.70263 27.534 5.30071 29.084 6.50602 29.8129L7.02344 28.9571C5.79979 28.2172 3.68591 26.9181 3.60676 24.0689L2.60715 24.0967ZM2.49611 15.6616L2.607 24.0894L3.60691 24.0762L3.49602 15.6484L2.49611 15.6616ZM15.1817 29.0167C14.4735 29.0344 13.2463 28.9811 11.9044 28.7598C10.558 28.5378 9.13371 28.1528 8.00723 27.5269L7.52158 28.4011C8.79038 29.106 10.3417 29.5157 11.7417 29.7465C13.1462 29.9781 14.4363 30.0356 15.2067 30.0164L15.1817 29.0167ZM23.9713 28.0625C23.5861 28.2359 22.9937 28.3896 22.2554 28.5187C21.5256 28.6464 20.6852 28.7446 19.8227 28.8187C18.0977 28.967 16.3103 29.0165 15.1942 29.0165V30.0165C16.3328 30.0165 18.1494 29.9662 19.9083 29.8151C20.7877 29.7395 21.6592 29.6382 22.4276 29.5038C23.1876 29.3709 23.8797 29.2003 24.3816 28.9744L23.9713 28.0625ZM28.2264 23.2481C28.1322 24.049 27.6212 25.0102 26.8233 25.9144C26.0329 26.8102 25.0078 27.5961 23.9713 28.0625L24.3816 28.9744C25.5629 28.4429 26.7002 27.5653 27.5732 26.576C28.4387 25.595 29.092 24.4493 29.2196 23.365L28.2264 23.2481ZM28.0269 16.1458C28.1002 16.3657 28.171 16.7939 28.2265 17.3847C28.2807 17.9614 28.3171 18.6526 28.3352 19.3721C28.3716 20.8169 28.3333 22.3399 28.2264 23.2481L29.2196 23.365C29.3345 22.388 29.3717 20.8108 29.3349 19.347C29.3164 18.6122 29.2791 17.8971 29.2221 17.2911C29.1665 16.6994 29.0887 16.1688 28.9756 15.8296L28.0269 16.1458ZM25.3082 12.388C26.3228 13.189 26.9195 13.8958 27.301 14.5061C27.6828 15.1171 27.8616 15.6499 28.0269 16.1458L28.9756 15.8296C28.8082 15.3275 28.5988 14.6959 28.149 13.9761C27.6987 13.2557 27.0202 12.4655 25.9279 11.6031L25.3082 12.388ZM16.7467 9.94504C20.2903 9.94504 23.4902 11.2732 25.356 12.4214L25.8801 11.5697C23.9016 10.3522 20.5219 8.94504 16.7467 8.94504L16.7467 9.94504ZM7.55423 11.9942C9.54479 10.9436 10.6902 10.4463 11.8946 10.1981C13.112 9.94731 14.4125 9.94504 16.7467 9.94504L16.7467 8.94504C14.4485 8.94504 13.0321 8.94277 11.6928 9.21869C10.3404 9.4973 9.08902 10.0534 7.08747 11.1098L7.55423 11.9942ZM4.74556 14.8192C5.0084 14.4162 5.45126 13.8235 5.96549 13.2702C6.48824 12.7077 7.0443 12.2303 7.53038 12.006L7.11132 11.098C6.44411 11.406 5.78036 12.0005 5.23299 12.5894C4.67712 13.1876 4.19957 13.8258 3.90795 14.2729L4.74556 14.8192ZM4.79843 23.5846C4.71766 22.2116 4.5997 20.2053 4.56422 18.418C4.54647 17.5236 4.5496 16.6932 4.58725 16.029C4.60609 15.6965 4.63315 15.4139 4.6687 15.1897C4.70601 14.9544 4.7468 14.824 4.77397 14.7697L3.87954 14.3225C3.78124 14.5191 3.72204 14.7745 3.68104 15.0331C3.63827 15.3028 3.60872 15.6219 3.58885 15.9724C3.54909 16.6739 3.54647 17.5335 3.56442 18.4378C3.60034 20.2478 3.71958 22.2736 3.80016 23.6433L4.79843 23.5846ZM4.82591 24.0539C4.81745 23.9078 4.80821 23.7508 4.79843 23.5846L3.80016 23.6433C3.80994 23.8097 3.81915 23.9662 3.82759 24.1117L4.82591 24.0539ZM7.98131 27.5135C7.52568 27.2941 6.80007 26.8412 6.15163 26.2153C5.49955 25.586 4.96988 24.825 4.81869 23.9934L3.83482 24.1722C4.03847 25.2924 4.72862 26.2317 5.45715 26.9349C6.18931 27.6415 7.00511 28.1534 7.5475 28.4145L7.98131 27.5135Z" fill="black"/>
<path d="M3.10696 28.1858V23.9719C3.10696 24.5042 3.55053 26.0419 3.77232 26.7442C6.07887 30.5589 12.1262 31.5126 14.8615 31.5126C17.1533 31.6235 22.5574 31.5126 25.8398 30.1819C29.1223 28.8512 30.2386 24.3046 30.3864 22.1976C30.7191 24.0828 30.0537 28.0749 30.1646 28.9621C30.3063 30.0949 27.1706 31.1799 25.729 31.8452C24.5757 32.3775 19.2602 32.4367 16.7467 32.3997C8.67375 32.7546 3.77232 30.4036 3.10696 28.1858Z" fill="white" stroke="black" stroke-width="0.5"/>
<path d="M3.10699 28.1859C2.8012 29.5165 6.78857 32.3997 15.3051 32.3997C25.9507 32.3997 24.8418 31.9562 26.0617 31.7345C27.1195 31.5422 30.4208 30.1768 30.2644 29.0948C30.2315 29.0087 30.1978 28.9269 30.1647 28.8513C30.22 28.9303 30.2524 29.0117 30.2644 29.0948C30.4888 29.6819 30.6765 30.4746 30.3864 30.9582C30.0538 31.5127 28.5013 32.6216 26.5052 33.0652C24.5092 33.5087 10.0932 35.6157 4.21591 31.5127C2.55251 30.3514 2.55249 28.8513 3.10699 28.1859Z" fill="white"/>
<path d="M3.10699 28.1859C2.8012 29.5165 6.78857 32.3997 15.3051 32.3997C25.9507 32.3997 24.8418 31.9562 26.0617 31.7345C27.2007 31.5275 30.9409 29.9602 30.1647 28.8513C30.4234 29.4427 30.7191 30.4037 30.3864 30.9582C30.0538 31.5127 28.5013 32.6216 26.5052 33.0652C24.5092 33.5087 10.0932 35.6157 4.21591 31.5127C2.55251 30.3514 2.55249 28.8513 3.10699 28.1859Z" stroke="black" stroke-width="0.5"/>
</svg>
