<svg width="639" height="360" viewBox="0 0 639 360" fill="none" xmlns="http://www.w3.org/2000/svg">
<rect x="-1" width="640" height="360" fill="#031627"/>
<path d="M198.5 305L198.154 308.107L195 308.445L198.182 308.782L198.529 312L198.875 308.782L202 308.387L198.847 308.104L198.5 305" fill="white"/>
<path d="M131.5 246L131.154 249.107L128 249.445L131.182 249.782L131.529 253L131.875 249.782L135 249.387L131.847 249.104L131.5 246" fill="white"/>
<path d="M36.5 319L36.1538 322.107L33 322.445L36.182 322.782L36.529 326L36.8751 322.782L40 322.387L36.8469 322.104L36.5 319" fill="white"/>
<path d="M92.5 153L92.1538 156.107L89 156.445L92.182 156.782L92.529 160L92.8751 156.782L96 156.387L92.8469 156.104L92.5 153" fill="white"/>
<path d="M78.5 207L78.1538 210.107L75 210.445L78.182 210.782L78.529 214L78.8751 210.782L82 210.387L78.8469 210.104L78.5 207" fill="white"/>
<path d="M110.5 63L110.154 66.1065L107 66.4446L110.182 66.7818L110.529 70L110.875 66.7818L114 66.3872L110.847 66.1042L110.5 63" fill="white"/>
<path d="M18.5 41L18.1538 44.1065L15 44.4446L18.182 44.7818L18.529 48L18.8751 44.7818L22 44.3872L18.8469 44.1042L18.5 41" fill="white"/>
<path d="M219.5 173L219.154 176.107L216 176.445L219.182 176.782L219.529 180L219.875 176.782L223 176.387L219.847 176.104L219.5 173" fill="white"/>
<path d="M403.5 173L403.154 176.107L400 176.445L403.182 176.782L403.529 180L403.875 176.782L407 176.387L403.847 176.104L403.5 173" fill="white"/>
<path d="M458.5 309L458.154 312.107L455 312.445L458.182 312.782L458.529 316L458.875 312.782L462 312.387L458.847 312.104L458.5 309" fill="white"/>
<path d="M503.5 253L503.154 256.107L500 256.445L503.182 256.782L503.529 260L503.875 256.782L507 256.387L503.847 256.104L503.5 253" fill="white"/>
<path d="M601.5 284L601.154 287.107L598 287.445L601.182 287.782L601.529 291L601.875 287.782L605 287.387L601.847 287.104L601.5 284" fill="white"/>
<path d="M516.5 169L516.154 172.107L513 172.445L516.182 172.782L516.529 176L516.875 172.782L520 172.387L516.847 172.104L516.5 169" fill="white"/>
<path d="M592.5 136L592.154 139.107L589 139.445L592.182 139.782L592.529 143L592.875 139.782L596 139.387L592.847 139.104L592.5 136" fill="white"/>
<path d="M503.5 46L503.154 49.1065L500 49.4446L503.182 49.7818L503.529 53L503.875 49.7818L507 49.3872L503.847 49.1042L503.5 46" fill="white"/>
<path d="M617.5 18L617.154 21.1065L614 21.4446L617.182 21.7818L617.529 25L617.875 21.7818L621 21.3872L617.847 21.1042L617.5 18" fill="white"/>
<path d="M29.5 160L29.1538 163.107L26 163.445L29.182 163.782L29.529 167L29.8751 163.782L33 163.387L29.8469 163.104L29.5 160" fill="white"/>
<path d="M205 254L204.308 260.213L198 260.889L204.364 261.564L205.058 268L205.75 261.564L212 260.774L205.694 260.208L205 254" fill="white"/>
<path d="M114 302L113.308 308.213L107 308.889L113.364 309.564L114.058 316L114.75 309.564L121 308.774L114.694 308.208L114 302" fill="white"/>
<path d="M40 240L39.3077 246.213L33 246.889L39.3641 247.564L40.058 254L40.7503 247.564L47 246.774L40.6939 246.208L40 240" fill="white"/>
<path d="M159 175L158.308 181.213L152 181.889L158.364 182.564L159.058 189L159.75 182.564L166 181.774L159.694 181.208L159 175" fill="white"/>
<path d="M54 111L53.3077 117.213L47 117.889L53.3641 118.564L54.058 125L54.7503 118.564L61 117.774L54.6939 117.208L54 111" fill="white"/>
<path d="M209 40L208.308 46.213L202 46.8891L208.364 47.5636L209.058 54L209.75 47.5636L216 46.7744L209.694 46.2084L209 40" fill="white"/>
<path d="M270 175L269.308 181.213L263 181.889L269.364 182.564L270.058 189L270.75 182.564L277 181.774L270.694 181.208L270 175" fill="white"/>
<path d="M430 40L429.308 46.213L423 46.8891L429.364 47.5636L430.058 54L430.75 47.5636L437 46.7744L430.694 46.2084L430 40" fill="white"/>
<path d="M442 228L441.308 234.213L435 234.889L441.364 235.564L442.058 242L442.75 235.564L449 234.774L442.694 234.208L442 228" fill="white"/>
<path d="M556 304L555.308 310.213L549 310.889L555.364 311.564L556.058 318L556.75 311.564L563 310.774L556.694 310.208L556 304" fill="white"/>
<path d="M568 219L567.308 225.213L561 225.889L567.364 226.564L568.058 233L568.75 226.564L575 225.774L568.694 225.208L568 219" fill="white"/>
<path d="M566 64L565.308 70.213L559 70.8891L565.364 71.5636L566.058 78L566.75 71.5636L573 70.7744L566.694 70.2084L566 64" fill="white"/>
</svg>
