<svg width="640" height="150" viewBox="0 0 640 150" fill="none" xmlns="http://www.w3.org/2000/svg">
<path d="M-7 97.5L54.428 81.319C81.5794 74.1669 107.19 62.0995 129.991 45.7148L149.322 31.824C178.902 10.5678 214.801 -0.0620661 251.186 1.66143V1.66143C276.698 2.86989 301.559 10.1132 323.728 22.7964L377.958 53.822C388.6 59.9105 400.044 64.4742 411.956 67.3795L414.84 68.0829C441.196 74.5112 468.942 71.992 493.709 60.9218L505.002 55.8742C552.7 34.5545 608.821 50.5975 638.044 93.9065V93.9065C650.382 112.192 668.045 126.242 688.638 134.151L726 148.5" stroke="white" stroke-width="2" stroke-linecap="square" stroke-linejoin="round" stroke-dasharray="8 8"/>
</svg>
