<svg width="95" height="95" viewBox="0 0 95 95" fill="none" xmlns="http://www.w3.org/2000/svg">
<mask id="mask0" mask-type="alpha" maskUnits="userSpaceOnUse" x="0" y="0" width="95" height="95">
<circle cx="47.5" cy="47.5" r="47.5" fill="#C4C4C4"/>
</mask>
<g mask="url(#mask0)">
<path d="M47.5 95C73.7336 95 95 73.7335 95 47.5C95 21.2665 73.7336 0 47.5 0C21.2665 0 3.05176e-05 21.2665 3.05176e-05 47.5C3.05176e-05 73.7335 21.2665 95 47.5 95Z" fill="#0B59D9"/>
<path d="M5.22978 17.3908C9.20933 3.5559 29.9212 11.2177 35.4341 11.1236C39.5694 11.0533 43.7152 8.0665 47.6739 10.9412C49.7762 12.408 36.7802 13.7247 37.1251 16.2954C37.4044 18.3788 42.8507 21.7104 44.7583 20.8013C48.0976 19.1578 44.9626 16.7267 47.0906 15.2884C49.6356 13.568 55.9436 18.7341 55.4667 21.8083C54.9404 25.1998 38.0257 26.2619 36.1703 35.0085C35.8511 36.5143 38.3297 38.6869 36.329 39.5676C35.0037 40.1499 35.4806 37.4063 33.4315 35.8388C30.1274 33.3118 22.1284 41.8495 25.9388 43.8255C27.8474 44.8154 30.5254 40.5005 31.6645 42.2C32.7779 43.8616 28.4839 43.8084 30.5511 46.7239C32.9755 50.142 34.8983 51.2298 37.8138 49.4276C44.4752 45.6286 57.5339 53.8271 61.9866 62.0968C65.8331 69.2389 41.9482 75.3493 50.3947 93.2321C51.4976 95.5672 40.7588 93.4915 42.0546 80.3682C43.3504 67.2449 28.7594 65.3971 34.5268 55.5238C37.6552 50.1696 21.3218 47.2189 16.9623 38.5957C14.573 33.8676 14.9635 29.775 15.9258 23.8935C18.0462 10.9355 4.23988 20.8307 5.22978 17.3908Z" fill="#0BD96D"/>
<path d="M69.673 48.3142C73.4369 56.2657 80.4508 50.6835 83.6684 53.562C89.7731 59.0236 85.5048 77.8659 92.6801 80.7567C96.3661 82.2425 108.001 55.2549 108.213 51.7599C108.496 47.0944 96.179 38.9843 99.9961 37.8709C104.084 36.6786 104.405 46.8284 108.796 46.9358C113.187 47.0431 116.867 42.9315 115.475 40.4682C114.083 38.0048 108.358 37.8319 109.75 36.4392C111.142 35.0475 120.886 37.773 123.456 43.4493C126.026 49.1246 125.816 51.5927 127.958 51.4853C130.101 51.378 131.385 40.4549 134.813 41.6329C138.239 42.8109 145.374 61.7852 146.876 60.4125C148.525 58.9048 140.325 51.5062 142.094 47.9513C143.977 44.1665 145.097 50.8944 147.347 48.5375C149.596 46.1815 144.129 44.9522 146.593 42.7035C149.056 40.4549 154.732 40.776 154.089 36.8135C153.447 32.8511 148.199 31.352 150.019 29.7455C151.84 28.1391 154.378 34.1915 155.696 33.3859C157.725 32.1452 151.899 18.5327 156.081 16.4018C161.595 13.5917 161.339 22.8542 164.776 21.7028C168.62 20.4137 170.876 13.6791 160.3 9.61124C149.163 5.32769 139.096 3.61485 123.889 6.93414C118.527 8.10454 110.755 13.4673 103.755 11.9682C99.8042 11.1217 93.5304 9.05455 88.4412 10.4681C84.9148 11.4476 82.1228 16.3581 84.1577 17.8582C86.1916 19.3573 93.7128 11.3412 94.9734 13.5737C97.6515 18.3161 86.9849 18.8984 83.6865 20.5951C80.732 22.1142 74.233 29.2401 76.5653 30.6081C79.003 32.0398 81.9489 26.7264 84.7286 26.6324C87.609 26.5345 88.1629 31.7624 89.9536 30.3022C91.4024 29.1195 85.4763 25.6767 87.5378 25.519C90.554 25.29 91.5639 30.2053 93.3698 29.7075C96.444 28.8592 95.3249 25.2131 98.1863 24.8188C100.235 24.5367 105.103 27.685 104.502 29.0178C103.017 32.3048 97.8225 26.1023 95.9671 30.3963C95.0143 32.6012 102.116 29.6011 101.003 34.2134C100.069 38.0827 85.5124 32.1395 79.4808 32.093C74.3812 31.9809 66.9684 42.6 69.673 48.3142Z" fill="#0BD96D"/>
<path d="M32.7893 7.05381C34.5392 6.25866 41.7012 7.63711 39.0982 9.17421C35.8065 11.1179 31.0403 7.84896 32.7893 7.05381Z" fill="#0BD96D"/>
<path d="M48.204 9.08585C45.6143 8.0266 50.9609 6.13515 54.777 10.9592C56.4832 13.1148 52.1797 15.5601 52.1265 13.927C52.0562 11.7363 51.3143 10.3579 48.204 9.08585Z" fill="#0BD96D"/>
<path d="M61.5391 14.9873C64.2248 16.2128 81.852 7.51077 79.4922 4.52682C77.4374 1.92762 51.9755 7.27177e-05 52.1617 3.53692C52.4001 8.04847 60.7554 5.53097 61.1325 8.59472C61.5097 11.6575 58.8535 13.7627 61.5391 14.9873Z" fill="#0BD96D"/>
</g>
</svg>
