<svg version="1.1" xmlns="http://www.w3.org/2000/svg" xmlns:xlink="http://www.w3.org/1999/xlink" viewBox="0 0 100 100" width="100pt" height="100pt">
  <defs>
    <animateTransform href="#continents" attributeName="transform" type="translate" from="-176.6 0" to="0 0" dur="10s" repeatCount="indefinite" />
    <clipPath id="clipPath_earth">
      <circle cx="50" cy="50" r="50" fill="rgb(11,89,217)" />
    </clipPath>
  </defs>

  <g clip-path="url(#clipPath_earth)">
    <circle cx="50" cy="50" r="50" fill="rgb(11,89,217)" />
    <g id="continents">
      <g>
        <path d=" M 182.154 18.306 C 186.343 3.743 208.145 11.808 213.948 11.709 C 218.3 11.635 222.665 8.491 226.832 11.517 C 229.045 13.061 215.364 14.447 215.727 17.153 C 216.021 19.346 221.755 22.853 223.763 21.896 C 227.278 20.166 223.978 17.607 226.218 16.093 C 228.896 14.282 235.537 19.72 235.034 22.956 C 234.481 26.526 216.676 27.644 214.723 36.851 C 214.386 38.436 216.996 40.723 214.89 41.65 C 213.495 42.263 213.997 39.375 211.84 37.725 C 208.362 35.065 199.941 44.052 203.953 46.132 C 205.962 47.174 208.781 42.632 209.98 44.421 C 211.152 46.17 206.632 46.114 208.808 49.183 C 211.36 52.781 213.384 53.926 216.453 52.029 C 223.465 48.03 237.211 56.66 241.898 65.365 C 245.946 72.883 220.805 79.315 229.696 98.139 C 230.857 100.597 219.553 98.412 220.917 84.598 C 222.281 70.784 206.922 68.839 212.993 58.446 C 216.285 52.81 199.092 49.704 194.504 40.627 C 191.988 35.65 192.4 31.342 193.413 25.151 C 195.645 11.511 181.112 21.927 182.154 18.306 Z " fill="rgb(11,217,109)" />
        <path d=" M 249.989 50.857 C 253.951 59.227 261.334 53.351 264.721 56.381 C 271.146 62.13 266.654 81.964 274.207 85.007 C 278.087 86.571 290.334 58.163 290.557 54.484 C 290.854 49.573 277.89 41.036 281.908 39.864 C 286.21 38.609 286.549 49.293 291.171 49.406 C 295.792 49.519 299.667 45.191 298.201 42.598 C 296.736 40.005 290.709 39.823 292.175 38.357 C 293.64 36.892 303.897 39.761 306.603 45.736 C 309.308 51.71 309.087 54.308 311.342 54.195 C 313.596 54.082 314.949 42.584 318.557 43.824 C 322.164 45.064 329.674 65.037 331.254 63.592 C 332.99 62.005 324.36 54.217 326.222 50.475 C 328.204 46.491 329.383 53.573 331.75 51.092 C 334.118 48.612 328.364 47.318 330.957 44.951 C 333.55 42.584 339.524 42.922 338.848 38.751 C 338.172 34.58 332.648 33.002 334.564 31.311 C 336.481 29.62 339.152 35.991 340.539 35.143 C 342.675 33.837 336.543 19.508 340.945 17.265 C 346.749 14.307 346.48 24.057 350.097 22.845 C 354.144 21.488 356.518 14.399 345.386 10.117 C 333.662 5.608 323.066 3.805 307.058 7.299 C 301.414 8.531 293.233 14.176 285.865 12.598 C 281.705 11.707 275.101 9.531 269.745 11.019 C 266.032 12.05 263.093 17.219 265.235 18.798 C 267.377 20.376 275.294 11.938 276.621 14.288 C 279.439 19.28 268.211 19.893 264.739 21.679 C 261.63 23.278 254.789 30.779 257.243 32.219 C 259.81 33.726 262.91 28.133 265.837 28.034 C 268.868 27.931 269.451 33.434 271.336 31.897 C 272.862 30.652 266.623 27.028 268.794 26.862 C 271.969 26.621 273.031 31.795 274.932 31.271 C 278.169 30.378 276.991 26.54 280.003 26.125 C 282.16 25.828 287.284 29.142 286.651 30.545 C 285.088 34.005 279.62 27.476 277.667 31.996 C 276.664 34.317 284.14 31.159 282.968 36.014 C 281.985 40.087 266.661 33.831 260.312 33.782 C 254.944 33.664 247.142 44.842 249.989 50.857 Z " fill="rgb(11,217,109)" />
        <path d=" M 289.247 71.668 C 291.389 65.13 294.32 69.751 292.403 74.261 C 290.487 78.77 287.105 78.206 289.247 71.668 Z " fill="rgb(11,217,109)" />
        <path d=" M 350.723 87.648 C 346.945 88.22 345.959 86.347 343.954 84.849 C 341.949 83.351 338.925 82.226 331.07 84.294 C 325.941 85.643 332.197 74.306 344.033 70.541 C 352.239 67.93 359.19 77.812 356.501 80.208 C 353.307 83.056 353.674 87.202 350.723 87.648 Z " fill="rgb(11,217,109)" />
        <path d=" M 211.164 7.425 C 213.005 6.588 220.545 8.039 217.804 9.657 C 214.339 11.703 209.323 8.262 211.164 7.425 Z " fill="rgb(11,217,109)" />
        <path d=" M 227.39 9.564 C 224.664 8.449 230.291 6.458 234.309 11.536 C 236.105 13.805 231.574 16.379 231.519 14.66 C 231.445 12.354 230.663 10.903 227.39 9.564 Z " fill="rgb(11,217,109)" />
        <path d=" M 346.532 59.425 C 347.92 58.731 357.295 61.509 358.188 62.947 C 359.081 64.386 359.081 69.693 354.517 66.518 C 349.954 63.344 353.525 64.088 351.144 62.699 C 348.764 61.31 345.143 60.12 346.532 59.425 Z " fill="rgb(11,217,109)" />
        <path d=" M 332.792 57.739 C 332.296 59.425 336.016 63.096 337.455 62.352 C 338.893 61.608 340.083 59.425 339.191 57.392 C 338.298 55.358 333.288 56.053 332.792 57.739 Z " fill="rgb(11,217,109)" />
        <path d=" M 241.427 15.776 C 244.254 17.066 262.809 7.906 260.325 4.765 C 258.162 2.029 231.36 0 231.556 3.723 C 231.806 8.472 240.602 5.822 240.998 9.047 C 241.395 12.271 238.6 14.487 241.427 15.776 Z " fill="rgb(11,217,109)" />
        <path d=" M 348.888 30.21 C 349.557 36.572 344.2 37.651 342.712 36.311 C 340.687 34.488 347.827 33.112 346.656 29.764 C 345.484 26.416 341.001 23.905 341.838 21.896 C 342.675 19.887 348.218 23.849 348.888 30.21 Z " fill="rgb(11,217,109)" />
      </g>
      <g>
        <path d=" M 5.505 18.306 C 9.694 3.743 31.496 11.808 37.299 11.709 C 41.652 11.635 46.016 8.491 50.183 11.517 C 52.396 13.061 38.716 14.447 39.079 17.153 C 39.373 19.346 45.106 22.853 47.114 21.896 C 50.629 20.166 47.329 17.607 49.569 16.093 C 52.248 14.282 58.888 19.72 58.386 22.956 C 57.832 26.526 40.027 27.644 38.074 36.851 C 37.738 38.436 40.347 40.723 38.241 41.65 C 36.846 42.263 37.348 39.375 35.191 37.725 C 31.713 35.065 23.293 44.052 27.304 46.132 C 29.313 47.174 32.132 42.632 33.331 44.421 C 34.503 46.17 29.983 46.114 32.159 49.183 C 34.711 52.781 36.735 53.926 39.804 52.029 C 46.816 48.03 60.562 56.66 65.249 65.365 C 69.298 72.883 44.156 79.315 53.047 98.139 C 54.208 100.597 42.904 98.412 44.268 84.598 C 45.632 70.784 30.273 68.839 36.344 58.446 C 39.637 52.81 22.444 49.704 17.855 40.627 C 15.34 35.65 15.751 31.342 16.764 25.151 C 18.996 11.511 4.463 21.927 5.505 18.306 Z " fill="rgb(11,217,109)" />
        <path d=" M 73.34 50.857 C 77.302 59.227 84.685 53.351 88.072 56.381 C 94.498 62.13 90.005 81.964 97.558 85.007 C 101.438 86.571 113.685 58.163 113.908 54.484 C 114.206 49.573 101.241 41.036 105.259 39.864 C 109.562 38.609 109.9 49.293 114.522 49.406 C 119.144 49.519 123.018 45.191 121.553 42.598 C 120.087 40.005 114.061 39.823 115.526 38.357 C 116.992 36.892 127.248 39.761 129.954 45.736 C 132.659 51.71 132.438 54.308 134.693 54.195 C 136.948 54.082 138.3 42.584 141.908 43.824 C 145.515 45.064 153.025 65.037 154.606 63.592 C 156.342 62.005 147.711 54.217 149.573 50.475 C 151.555 46.491 152.734 53.573 155.102 51.092 C 157.469 48.612 151.715 47.318 154.308 44.951 C 156.901 42.584 162.876 42.922 162.199 38.751 C 161.523 34.58 155.999 33.002 157.915 31.311 C 159.832 29.62 162.503 35.991 163.89 35.143 C 166.026 33.837 159.894 19.508 164.296 17.265 C 170.1 14.307 169.831 24.057 173.448 22.845 C 177.495 21.488 179.869 14.399 168.737 10.117 C 157.014 5.608 146.417 3.805 130.409 7.299 C 124.765 8.531 116.584 14.176 109.216 12.598 C 105.057 11.707 98.453 9.531 93.096 11.019 C 89.384 12.05 86.445 17.219 88.587 18.798 C 90.728 20.376 98.645 11.938 99.972 14.288 C 102.791 19.28 91.563 19.893 88.091 21.679 C 84.981 23.278 78.14 30.779 80.595 32.219 C 83.161 33.726 86.262 28.133 89.188 28.034 C 92.22 27.931 92.803 33.434 94.688 31.897 C 96.213 30.652 89.975 27.028 92.145 26.862 C 95.32 26.621 96.383 31.795 98.284 31.271 C 101.52 30.378 100.342 26.54 103.354 26.125 C 105.511 25.828 110.635 29.142 110.002 30.545 C 108.439 34.005 102.971 27.476 101.018 31.996 C 100.015 34.317 107.491 31.159 106.319 36.014 C 105.336 40.087 90.013 33.831 83.664 33.782 C 78.296 33.664 70.493 44.842 73.34 50.857 Z " fill="rgb(11,217,109)" />
        <path d=" M 112.598 71.668 C 114.74 65.13 117.671 69.751 115.754 74.261 C 113.838 78.77 110.456 78.206 112.598 71.668 Z " fill="rgb(11,217,109)" />
        <path d=" M 174.074 87.648 C 166.519 88.791 170.131 80.159 154.421 84.294 C 149.293 85.643 155.548 74.306 167.385 70.541 C 175.59 67.93 182.542 77.812 179.853 80.208 C 176.658 83.056 177.025 87.202 174.074 87.648 Z " fill="rgb(11,217,109)" />
        <path d=" M 34.515 7.425 C 36.357 6.588 43.896 8.039 41.156 9.657 C 37.691 11.703 32.674 8.262 34.515 7.425 Z " fill="rgb(11,217,109)" />
        <path d=" M 50.741 9.564 C 48.015 8.449 53.643 6.458 57.66 11.536 C 59.456 13.805 54.926 16.379 54.87 14.66 C 54.796 12.354 54.015 10.903 50.741 9.564 Z " fill="rgb(11,217,109)" />
        <path d=" M 169.883 59.425 C 171.272 58.731 180.646 61.509 181.539 62.947 C 182.432 64.386 182.432 69.693 177.869 66.518 C 173.305 63.344 176.877 64.088 174.496 62.699 C 172.115 61.31 168.494 60.12 169.883 59.425 Z " fill="rgb(11,217,109)" />
        <path d=" M 156.143 57.739 C 155.647 59.425 159.367 63.096 160.806 62.352 C 162.244 61.608 163.435 59.425 162.542 57.392 C 161.649 55.358 156.639 56.053 156.143 57.739 Z " fill="rgb(11,217,109)" />
        <path d=" M 64.778 15.776 C 67.605 17.066 86.16 7.906 83.676 4.765 C 81.513 2.029 54.711 0 54.907 3.723 C 55.158 8.472 63.953 5.822 64.35 9.047 C 64.747 12.271 61.951 14.487 64.778 15.776 Z " fill="rgb(11,217,109)" />
        <path d=" M 172.239 30.21 C 172.908 36.572 167.552 37.651 166.064 36.311 C 164.038 34.488 171.179 33.112 170.007 29.764 C 168.835 26.416 164.352 23.905 165.189 21.896 C 166.026 19.887 171.569 23.849 172.239 30.21 Z " fill="rgb(11,217,109)" />

      </g>
    </g>
    <g opacity="0.5">
      <path d=" M 68 57 C 80.409 32.353 72.443 5.402 72.481 5.34 C 97.362 18.192 107.064 47.834 94.656 72.481 C 82.247 97.128 52.162 107.064 27.515 94.656 C 28.224 94.871 55.591 81.647 68 57 Z " fill="rgb(27,2,138)" />
    </g>
  </g>
</svg>