<svg width="89" height="89" viewBox="0 0 89 89" fill="none" xmlns="http://www.w3.org/2000/svg">
<mask id="mask0" mask-type="alpha" maskUnits="userSpaceOnUse" x="0" y="0" width="89" height="89">
<circle cx="44.5" cy="44.5" r="44.5" fill="#D5C8B5"/>
</mask>
<g mask="url(#mask0)">
<circle cx="44.5" cy="44.5" r="44.5" fill="#EAE9DF"/>
<path d="M71.8592 65.5963L84.0555 66.2556C85.8136 63.9482 89.3296 59.1356 89.3296 58.3445C89.3296 57.3556 89 53.4 88.6703 53.4C88.3407 53.4 87.3518 52.7408 86.6926 52.7408H81.0889H75.8148C74.2765 52.7408 71.0022 52.6749 70.2111 52.4112C69.2222 52.0815 66.2555 52.4112 65.9259 52.4112H58.0148L48.7852 52.7408H42.5222L36.9185 52.4112L30.9852 52.7408L17.4704 53.4H10.8778L5.27406 54.0593L0.659241 54.7186L1.3185 58.3445L3.62591 60.6519L5.60369 60.9815H8.24072L11.537 61.6408C12.7457 61.8605 15.2948 62.3 15.8222 62.3C16.3496 62.3 17.8 61.421 18.4592 60.9815L22.0852 60.6519H28.3481L32.3037 60.9815L36.9185 60.6519L39.5555 61.6408L41.2037 62.3L43.1815 65.5963L50.4333 66.9149L55.3778 65.5963L59.6629 64.9371L71.8592 65.5963Z" fill="#E9CBAC"/>
<path d="M83.1893 60.2619L86.1218 61.0439C86.9091 61.2539 87.6815 60.6605 87.6815 59.8457C87.6815 59.2517 87.2603 58.7412 86.6772 58.6282L85.2467 58.351C84.8949 58.2829 84.5338 58.2781 84.1804 58.337L83.3595 58.4738C82.9452 58.5429 82.5259 58.5776 82.1059 58.5776H77.1333H73.5074H69.2222H64.2778L61.9222 58.2831C61.7353 58.2598 61.5522 58.2125 61.3773 58.1426L60.2397 57.6875C60.0904 57.6278 59.9926 57.4833 59.9926 57.3225C59.9926 57.1054 60.1686 56.9294 60.3857 56.9294H62.9592L66.0716 57.1369C67.2913 57.2182 68.5153 57.2081 69.7335 57.1066L70.1789 57.0695C71.297 56.9763 72.4211 56.9805 73.5384 57.0821L73.8308 57.1087C74.9309 57.2087 76.0383 57.1976 77.1362 57.0756C78.0119 56.9783 78.8939 56.9515 79.7739 56.9955L84.7453 57.2441C84.9442 57.2541 85.1418 57.2834 85.335 57.3317L86.977 57.7422C87.39 57.8455 87.8199 57.6517 88.016 57.2738L88.1965 56.926C88.4189 56.4974 88.1254 55.982 87.6433 55.9546L86.6765 55.8277C84.2773 55.5126 81.8506 55.4642 79.4407 55.6833C78.1261 55.9024 76.7916 55.9776 75.4607 55.9075L71.2 55.6833H59.0037L56.7482 55.9454C56.394 55.9866 56.0956 56.2291 55.9828 56.5674C55.8917 56.8409 55.9342 57.1414 56.0978 57.3789L56.3259 57.7102C56.5646 58.0567 56.9216 58.3041 57.3299 58.4058L59.0037 58.8228C60.7586 59.2615 62.5473 59.5518 64.3509 59.6905L65.9259 59.8117L79.4407 60.1413H82.2689C82.5797 60.1413 82.8891 60.1819 83.1893 60.2619Z" fill="#A68070"/>
<path d="M82.2402 67.2931L83.884 67.7862C84.5593 67.9888 85.2072 67.3992 85.069 66.7078C85.0527 66.6264 85.0256 66.5475 84.9885 66.4732L84.7128 65.9218C84.0791 64.6544 82.9837 63.6782 81.6521 63.1939L81.2116 63.0338C80.4762 62.7663 79.6997 62.6295 78.9171 62.6295H73.1778L63.9481 62.2999C62.0802 61.9703 58.3444 61.2451 58.3444 60.9814C58.3444 60.7345 57.1889 60.2758 56.5005 60.0379C56.4116 60.0073 56.3195 59.9878 56.226 59.9784L54.6182 59.8177C54.0595 59.7618 53.855 59.0526 54.2983 58.7078C54.7936 58.3226 54.4715 57.5294 53.8477 57.5987L50.4851 57.9723C50.2345 58.0002 49.9942 58.0877 49.7844 58.2276L47.137 59.9925L46.3454 60.5862C45.9957 60.8485 45.6825 61.1562 45.4141 61.5013C44.2513 62.9964 43.3856 65.8256 45.1243 66.5768C45.137 66.5823 45.1487 66.5851 45.1592 66.5851C49.6337 66.5851 54.0331 67.7987 58.4285 66.9615L58.6741 66.9147L59.7463 66.5848C61.855 65.936 64.0921 65.8228 66.2555 66.2555L71.5296 66.5851L76.8408 67.1442C77.4711 67.2105 78.1081 67.1742 78.7268 67.0367L79.6016 66.8423C80.3505 66.6759 81.1338 66.7724 81.8199 67.1154L81.926 67.1685C82.027 67.219 82.1321 67.2607 82.2402 67.2931Z" fill="#DABB9D"/>
<ellipse cx="54.0592" cy="63.2888" rx="4.61482" ry="3.2963" fill="#F8A966"/>
<ellipse cx="54.7185" cy="63.6185" rx="1.31852" ry="0.988889" fill="#EC8955"/>
<path d="M8.89998 50.4333H-0.659275C-0.549399 49.1148 -0.329645 46.4118 -0.329645 46.1481C-0.329645 45.8844 1.42838 44.9395 2.30739 44.5C3.07653 44.0605 4.74665 43.1155 5.27406 42.8518L6.59258 42.1926L11.8666 41.5333C12.9654 41.7531 15.2948 42.1926 15.8222 42.1926C16.4815 42.1926 20.1074 40.8741 21.4259 40.8741C22.7444 40.8741 24.0629 41.5333 24.7222 41.8629C25.3815 42.1926 28.0185 42.8518 29.6666 43.1815C30.9852 43.4452 34.3913 43.2913 35.9296 43.1815C36.2592 42.8518 37.1822 42.0607 38.237 41.5333C39.5555 40.8741 40.8741 40.8741 44.1703 40.8741H47.4666C48.4555 40.8741 54.0592 42.5222 54.3889 42.1926C54.7185 41.8629 56.6963 41.2037 57.0259 41.2037H60.9815C61.2452 41.2037 63.7284 41.8629 64.937 42.1926C66.5852 42.4123 69.9474 42.8518 70.2111 42.8518C70.5407 42.8518 74.1666 42.1926 74.4963 41.8629C74.76 41.5992 76.5839 41.3136 77.4629 41.2037L80.4296 42.8518L84.0555 42.1926L89.3296 39.5555L90.9778 48.7852L86.0333 49.7741L82.737 49.4444C81.3086 49.7741 78.3859 50.4333 78.1222 50.4333C77.7926 50.4333 72.5185 51.0926 71.8592 51.0926C71.2 51.0926 65.9259 50.4333 64.2778 50.4333C62.6296 50.4333 59.0037 50.1037 58.0148 50.1037H55.0481C52.7407 50.4333 47.9941 51.0926 47.4666 51.0926C46.8074 51.0926 42.5222 50.1037 40.8741 50.1037C39.2259 50.1037 33.9518 49.4444 32.9629 49.4444C31.9741 49.4444 27.6889 50.1037 27.3592 50.1037H20.437C20.1733 50.1037 16.8111 49.6642 15.1629 49.4444L8.89998 50.4333Z" fill="#FAD4A2"/>
<path d="M10.9512 40.1114L2.48382 39.644C0.874713 39.5552 0.0260667 37.6971 1.01255 36.4228L2.08971 35.0313L4.81631 34.0153L9.24703 32.9992L10.9512 34.0153L12.3144 32.9992L15.7227 33.6766H19.4718L23.2208 32.3219C24.4705 32.0961 27.0381 31.6445 27.3107 31.6445C27.5834 31.6445 28.5604 32.0961 29.0149 32.3219H30.719L31.7415 33.3379C32.0141 33.6089 32.5367 33.6766 32.7639 33.6766C33.4456 33.225 34.877 32.3219 35.1497 32.3219C35.4224 32.3219 36.3994 33.225 36.8538 33.6766C37.4219 33.225 38.6261 32.3219 38.8988 32.3219C39.2396 32.3219 40.2621 31.6445 41.6254 31.6445C42.9887 31.6445 44.352 32.3219 44.6928 32.9992C44.9654 33.5411 46.3969 33.6766 47.0786 33.6766L47.7602 33.3379L48.4419 32.9992C49.3507 33.3379 51.5093 34.1507 52.8726 34.6926C54.5767 35.37 54.2359 34.6926 55.2584 34.6926C56.2808 34.6926 55.94 34.3539 56.6216 34.0153C57.3033 33.6766 57.6441 34.0153 59.3482 33.6766C60.7115 33.4056 61.5068 33.1121 61.734 32.9992L65.8239 34.0153L66.8464 33.6766L68.8913 34.0153H69.9138L74.6853 32.9992C75.7078 33.4508 77.7528 34.2862 77.7528 34.0153C77.7528 33.6766 78.7752 33.6766 79.1161 33.3379C79.3887 33.067 80.3658 32.5477 80.8202 32.3219H81.5018L85.2509 33.3379C86.5006 34.3539 89 36.7924 89 38.4181C89 40.0437 88.3183 39.9986 87.9775 39.7728C86.7278 40.2243 84.0921 41.1952 83.5468 41.4661C82.8651 41.8048 81.161 40.7888 80.8202 40.1114C80.5475 39.5696 78.6616 39.4341 77.7528 39.4341L73.3221 38.7567L68.8913 39.4341L66.8464 39.7728C66.0511 39.8857 64.3924 40.1114 64.1198 40.1114H57.3033C56.4853 40.1114 52.8726 39.2083 51.1685 38.7567L38.5579 39.7728H26.9699L15.7227 39.4341L10.9512 40.1114Z" fill="#D7A991"/>
<path d="M6.31167 32.2817L0.659241 32.9629C1.60131 30.6921 3.90939 26.1504 5.60512 26.1504H10.9043C13.0239 26.1504 12.6707 26.491 13.0239 26.1504C13.3772 25.8097 13.7305 26.1504 14.437 25.8098C15.1436 25.4691 16.2034 25.8098 17.6165 25.8098H21.8559H24.6821H28.2148C29.2747 25.8098 31.3943 25.8098 32.8074 25.4691C34.2206 25.1285 34.2206 25.4691 35.2804 25.4691H37.7533C39.1664 25.3556 42.3459 25.1285 43.759 25.1285C45.5254 25.1285 46.232 25.8098 47.2918 25.8098C48.3516 25.8098 48.3516 25.8098 49.4115 25.4691C50.4713 25.1285 50.118 25.4691 50.118 25.1285C50.118 24.7879 52.2377 24.7879 52.591 24.4472C52.9442 24.1066 55.4172 25.4691 56.1237 25.4691C56.8303 25.4691 60.0098 25.8098 61.0696 25.8098H62.4827C63.0715 25.8098 64.5317 25.7416 65.6622 25.4691C67.0753 25.1285 67.4286 25.8098 68.1351 25.8098H71.6679C72.2332 25.8098 74.2586 26.0368 75.2007 26.1504L78.0269 25.8098H80.8531L85.799 25.1285C86.3878 26.8316 87.4241 30.306 86.8588 30.5786C86.2936 30.8511 85.4457 31.1463 85.0924 31.2598L80.1466 32.2817L75.554 31.6004L70.2548 31.2598H66.0155H58.5967H56.1237L50.118 30.5786H45.5254C44.9602 30.5786 40.5795 31.2598 38.4599 31.6004H29.9812H24.6821C22.6802 31.6004 18.6057 31.7367 18.3231 32.2817C18.0405 32.8267 14.6726 32.5088 13.0239 32.2817C11.4931 32.0546 8.36068 31.6004 8.07806 31.6004C7.79544 31.6004 6.78271 32.0546 6.31167 32.2817Z" fill="#DDD3BD"/>
<path d="M81.3698 65.9479L87.0222 65.2667C86.0801 67.5375 83.7721 72.0792 82.0763 72.0792L76.7772 72.0792C74.6575 72.0792 75.0108 71.7386 74.6575 72.0792C74.3042 72.4199 73.951 72.0792 73.2444 72.4199C72.5379 72.7605 71.478 72.4199 70.0649 72.4199L65.8256 72.4199L62.9994 72.4199L59.4666 72.4199C58.4068 72.4199 56.2871 72.4199 54.874 72.7605C53.4609 73.1011 53.4609 72.7605 52.4011 72.7605L49.9281 72.7605C48.515 72.874 45.3355 73.1011 43.9224 73.1011C42.156 73.1011 41.4495 72.4199 40.3896 72.4199C39.3298 72.4199 39.3298 72.4199 38.27 72.7605C37.2102 73.1011 37.5634 72.7605 37.5634 73.1011C37.5634 73.4417 35.4438 73.4417 35.0905 73.7824C34.7372 74.123 32.2643 72.7605 31.5577 72.7605C30.8512 72.7605 27.6717 72.4199 26.6118 72.4199L25.1987 72.4199C24.6099 72.4199 23.1497 72.488 22.0192 72.7605C20.6061 73.1011 20.2529 72.4199 19.5463 72.4199L16.0135 72.4199C15.4483 72.4199 13.4228 72.1928 12.4808 72.0792L9.65455 72.4199L6.82833 72.4199L1.88245 73.1011C1.29366 71.398 0.257385 67.9236 0.822624 67.6511C1.38787 67.3786 2.28374 62.7432 2.63702 62.6296L6.82833 62.6296L11.4209 63.3109L16.7201 63.6515L20.9594 63.6515L28.3782 63.6515L30.8512 63.6515L36.8569 64.3328C38.1522 64.3328 41.5908 67.6511 42.156 67.6511C42.7213 67.6511 47.1019 66.9698 49.2216 66.6292L57.7002 66.6292L62.9994 66.6292C65.0013 66.6292 69.0757 66.4929 69.3584 65.9479C69.641 65.4029 73.0089 65.7208 74.6575 65.9479C76.1884 66.175 79.3208 66.6292 79.6034 66.6292C79.886 66.6292 80.8987 66.175 81.3698 65.9479Z" fill="#DDD3BD"/>
<path d="M12.2375 75.984H14.4625H17.4291C17.8 75.984 20.025 74.9105 20.7666 74.9105H23.3625H25.5875H31.15H35.2291H38.5666C39.16 74.9105 40.7916 74.5527 41.5333 74.3738H43.7583H47.0958C47.4666 74.5527 48.2825 74.9105 48.5791 74.9105H50.4333H52.2875C52.6583 74.9105 52.2875 75.4472 54.5125 74.9105C56.7375 74.3738 58.5917 73.837 58.9625 73.837C59.3333 73.837 63.4125 73.837 64.525 74.3738C65.6375 74.9105 66.3792 74.9105 68.2333 75.4472C70.0875 75.984 70.0875 76.5207 71.5708 75.984C73.0541 75.4472 73.425 75.4472 74.9083 74.9105C76.095 74.4811 76.8861 74.3738 77.1333 74.3738C75.7736 77.952 72.9058 85.2158 72.3125 85.6452C71.7192 86.0746 66.1319 84.035 63.4125 82.9615C63.5361 82.7826 63.4867 82.3174 62.3 81.8881C60.8167 81.3513 60.4458 81.3513 59.3333 81.3513H57.4791C57.1825 81.3513 56.6139 80.9935 56.3666 80.8146H53.4C53.0291 80.8146 53.0291 80.8146 52.6583 81.3513C52.2875 81.8881 52.6583 81.3513 51.5458 81.3513C50.6768 81.3513 50.2084 81.0101 50.0718 80.8275C49.9832 80.8666 49.3919 81.003 47.4666 81.3513C45.0933 81.7807 43.0166 82.2459 42.275 82.4248C42.275 82.6037 42.0525 82.8542 41.1625 82.4248C40.05 81.8881 39.6791 79.7411 37.0833 80.8146C33.0041 82.4248 33.0041 81.8881 31.5208 81.8881C30.0375 81.8881 30.4083 82.4248 28.5541 81.8881C26.7 81.3513 26.3291 80.8146 25.5875 81.3513C24.8458 81.8881 23.3625 81.8881 22.9916 82.4248C22.6208 82.9615 22.6208 82.4248 22.25 82.9615C21.8791 83.4983 20.3958 82.4248 20.025 82.4248C19.7283 82.4248 18.9125 82.067 18.5416 81.8881H15.2041H14.4625C13.5725 81.8881 12.3611 80.0989 11.8666 79.2044L12.2375 75.984Z" fill="#957F68"/>
<path d="M18.5922 80.9703L13.3872 83.4494L10.5481 85.9284C10.7059 87.581 11.1159 90.7624 11.4945 90.2666C11.9677 89.6469 17.6458 86.5481 18.5922 86.5481C19.3492 86.5481 21.1158 87.3745 21.9044 87.7876C23.4817 87.9942 26.7308 88.4074 27.1094 88.4074C27.5825 88.4074 31.8411 85.9284 34.6802 84.6889C36.9515 83.6973 39.412 84.6889 40.3583 85.3086C41.6201 85.5152 44.333 85.8044 45.0901 85.3086C46.0365 84.6889 53.1341 84.6889 54.0805 84.6889C54.8376 84.6889 57.235 85.102 58.3391 85.3086L69.2222 87.7876V82.2098C68.749 81.7967 67.708 80.9703 67.3295 80.9703C66.9509 80.9703 64.6481 80.5572 63.5441 80.3506H61.1782L54.0805 79.1111H46.0365H45.0901H37.5193C36.5729 79.1111 29.9484 80.9703 29.4752 80.9703H22.8508H18.5922Z" fill="#685F50"/>
<path d="M22.7444 86.6926L21.7555 87.3519V92.9556L66.2555 93.2852L62.6296 85.7037L60.3222 84.0556L56.3666 84.3852L53.4 84.0556L52.4111 83.726L51.0926 84.0556L49.1148 83.726L45.8185 84.0556L43.8407 84.7148L40.8741 84.3852L38.8963 83.726L37.2481 84.3852L33.2926 83.726L31.9741 84.3852L29.6666 85.0445L29.0074 85.7037L26.3703 86.0334L23.7333 85.7037L22.7444 86.6926Z" fill="#363C39"/>
<path d="M75.444 13.3456L73.219 13.3456L70.2523 13.3456C69.8815 13.3456 67.6565 14.4191 66.9148 14.4191L64.319 14.4191L62.094 14.4191L56.5315 14.4191L52.4523 14.4191L49.1148 14.4191C48.5215 14.4191 46.8898 14.7769 46.1481 14.9558L43.9231 14.9558L40.5856 14.9558C40.2148 14.7769 39.399 14.4191 39.1023 14.4191L37.2481 14.4191L35.394 14.4191C35.0231 14.4191 35.394 13.8823 33.169 14.4191C30.944 14.9558 29.0898 15.4925 28.719 15.4925C28.3481 15.4925 24.269 15.4925 23.1565 14.9558C22.044 14.4191 21.3023 14.4191 19.4481 13.8823C17.594 13.3456 17.594 12.8089 16.1106 13.3456C14.6273 13.8823 14.2565 13.8823 12.7731 14.4191C11.5865 14.8485 10.7954 14.9558 10.5481 14.9558C11.9078 11.3776 14.7756 4.11377 15.369 3.68438C15.9623 3.25499 21.5495 5.29459 24.269 6.36806C24.1454 6.54697 24.1948 7.01214 25.3815 7.44153C26.8648 7.97826 27.2356 7.97826 28.3481 7.97826L30.2023 7.97826C30.499 7.97826 31.0676 8.33608 31.3148 8.515L34.2815 8.515C34.6523 8.515 34.6523 8.515 35.0231 7.97826C35.394 7.44153 35.0231 7.97826 36.1356 7.97826C37.0047 7.97826 37.473 8.31944 37.6097 8.50208C37.6983 8.46299 38.2895 8.32659 40.2148 7.97826C42.5881 7.54887 44.6648 7.0837 45.4065 6.90479C45.4065 6.72588 45.629 6.4754 46.519 6.90479C47.6315 7.44153 48.0023 9.58847 50.5981 8.515C54.6773 6.90479 54.6773 7.44153 56.1606 7.44153C57.644 7.44153 57.2731 6.90479 59.1273 7.44153C60.9815 7.97826 61.3523 8.515 62.094 7.97826C62.8356 7.44153 64.319 7.44153 64.6898 6.90479C65.0606 6.36806 65.0606 6.90479 65.4315 6.36806C65.8023 5.83132 67.2856 6.90479 67.6565 6.90479C67.9531 6.90479 68.769 7.26262 69.1398 7.44153L72.4773 7.44153L73.219 7.44153C74.109 7.44153 75.3204 9.23065 75.8148 10.1252L75.444 13.3456Z" fill="#957F68"/>
<path d="M69.0893 8.35925L74.2943 5.88024L77.1333 3.40123C76.9756 1.74855 76.5655 -1.43284 76.187 -0.937042C75.7138 -0.317289 70.0357 2.78147 69.0893 2.78147C68.3322 2.78147 66.5657 1.95514 65.777 1.54197C64.1998 1.33538 60.9506 0.922215 60.5721 0.922215C60.0989 0.922215 55.8403 3.40123 53.0012 4.64073C50.73 5.63233 48.2695 4.64073 47.3231 4.02098C46.0613 3.81439 43.3484 3.52517 42.5913 4.02098C41.645 4.64073 34.5473 4.64073 33.6009 4.64073C32.8439 4.64073 30.4464 4.22756 29.3423 4.02098L18.4592 1.54196L18.4592 7.11974C18.9324 7.53291 19.9734 8.35924 20.352 8.35924C20.7305 8.35924 23.0333 8.77241 24.1374 8.979L26.5033 8.979L33.6009 10.2185L41.645 10.2185L42.5913 10.2185L50.1622 10.2185C51.1085 10.2185 57.733 8.35925 58.2062 8.35925L64.8307 8.35925L69.0893 8.35925Z" fill="#685F50"/>
<path d="M64.937 2.63697L65.9259 1.97771L65.9259 -3.62599L21.4259 -3.95563L25.0518 3.62586L27.3592 5.274L31.3148 4.94438L34.2815 5.27401L35.2704 5.60364L36.5889 5.27401L38.5667 5.60364L41.8629 5.27401L43.8407 4.61475L46.8074 4.94438L48.7852 5.60364L50.4333 4.94438L54.3889 5.60364L55.7074 4.94438L58.0148 4.28512L58.6741 3.62586L61.3111 3.29623L63.9481 3.62586L64.937 2.63697Z" fill="#363C39"/>
<path d="M6.92221 20.1747L2.96665 20.5043L-0.659275 23.8006C1.42838 23.5809 5.93332 23.0754 7.25184 22.8117C8.89998 22.4821 10.5481 23.1414 13.8444 23.471C17.1407 23.8006 19.7778 23.8006 20.1074 23.8006C20.437 23.8006 22.4148 23.471 23.0741 23.471C23.7333 23.471 30.6555 22.1525 31.9741 22.1525C33.2926 22.1525 36.9185 22.8117 38.5666 23.1414C40.2148 23.471 44.8296 23.471 45.1592 23.471C45.4889 23.471 47.7963 23.1414 49.1148 22.8117C50.4333 22.4821 55.0481 22.8117 56.3666 22.8117C57.6852 22.8117 59.9926 23.471 60.3222 23.471C60.6518 23.471 62.6296 23.8006 65.2666 23.8006C67.9037 23.8006 67.9037 23.471 69.8815 23.471H75.1555C76.474 23.8006 79.4407 24.4599 80.7592 24.4599C82.4074 24.4599 83.0666 24.4599 83.3963 23.471C83.7259 22.4821 82.737 20.1747 81.7481 19.5154C80.7592 18.8562 78.7815 18.1969 78.4518 18.1969C78.1222 18.1969 74.1666 17.208 70.8703 17.208C67.5741 17.208 66.2555 17.8673 65.5963 18.1969C64.937 18.5266 63.9481 18.5265 62.9592 18.1969C61.9703 17.8673 59.9926 17.8673 58.6741 17.8673C57.3555 17.8673 53.7296 17.208 51.7518 17.5377C50.1696 17.8014 48.6753 18.087 48.1259 18.1969L45.4889 17.5377C44.0605 17.5377 41.0718 17.4717 40.5444 17.208C39.8852 16.8784 34.9407 17.8673 33.9518 17.8673C32.9629 17.8673 24.7222 18.1969 23.4037 18.5265C22.0852 18.8562 17.1407 18.5265 16.8111 18.5265C16.5474 18.5265 13.6247 18.7463 12.1963 18.8562L6.92221 20.1747Z" fill="#BAA58A"/>
</g>
</svg>
