<svg width="88" height="88" viewBox="0 0 88 88" fill="none" xmlns="http://www.w3.org/2000/svg">
<circle cx="44" cy="44" r="44" fill="url(#paint0_linear)"/>
<path d="M43.208 11.8017L36.4048 10.2142L33.567 9.50481C33.3674 9.4549 33.185 9.35166 33.0395 9.20613C32.4993 8.66592 32.636 7.75712 33.3112 7.39966L36.041 5.95443C36.2827 5.82651 36.508 5.67007 36.7124 5.48844L36.9719 5.25778C38.125 4.2328 39.6141 3.66663 41.1569 3.66663H41.9048H44.8929C46.0393 3.66663 47.1815 3.80723 48.2937 4.08529L50.2781 4.58139C50.6294 4.66921 50.9616 4.82072 51.2583 5.02838C52.4941 5.89342 52.8824 7.54901 52.16 8.87327L52.0751 9.02899C51.9305 9.29398 51.7488 9.5369 51.5353 9.75034L51.1815 10.1042C49.9372 11.3485 48.2495 12.0476 46.4897 12.0476H45.3441C44.625 12.0476 43.9083 11.9651 43.208 11.8017Z" fill="#E9D6E0"/>
<path d="M44.528 51.0105L44.1235 50.9391C42.7014 50.6882 41.4346 49.8893 40.5952 48.7142L39.0238 46.619L38.5644 45.8839C38.0355 45.0378 37.1081 44.5238 36.1103 44.5238C35.4532 44.5238 34.8157 44.7474 34.3026 45.1579L34.1763 45.2589C33.9173 45.4661 33.6905 45.7105 33.5033 45.9842L31.3838 49.0819C30.8233 49.901 29.6683 50.0497 29.2876 49.1331C29.0459 48.5515 28.7439 47.993 28.244 47.6099C27.6097 47.1236 27.2835 46.7727 26.9762 46.619C26.4524 46.3571 25.9286 45.5714 25.4048 45.0476C24.8809 44.5238 24.0952 43.2142 23.8333 43.2142C23.1326 43.2142 23.2331 42.035 23.6299 41.4574C23.97 40.9624 24.4088 40.4255 24.8809 40.0714C25.9286 39.2857 26.7143 40.0714 27.5 40.0714C27.9808 40.0714 29.003 39.7649 29.7696 39.5036C30.1785 39.3642 30.5673 39.1738 30.9378 38.9516C31.4377 38.6516 31.8989 38.2915 32.3111 37.8793L33.7857 36.4047C35.4576 35.0672 36.5348 33.1018 36.6461 30.9636C36.659 30.7155 36.6667 30.5126 36.6667 30.3809C36.6667 29.3498 36.4079 28.3352 35.9142 27.4299L35.6667 26.9763C35.2891 26.284 34.7842 25.6693 34.1784 25.1645C33.744 24.8025 33.3606 24.3833 33.0388 23.9184L31.3796 21.5218C31.2409 21.3215 31.1667 21.0838 31.1667 20.8402C31.1667 20.1789 31.7027 19.6428 32.364 19.6428H33.0736C33.3697 19.6428 33.6617 19.7117 33.9264 19.8441L35.0952 20.4285C36.1286 20.9452 37.2682 21.2143 38.4236 21.2143H40.5952H43.2143H46.8252C49.2324 21.2143 51.5655 22.0471 53.4286 23.5714L54.7284 24.4125L54.8165 24.4695C56.8806 25.8054 59.0942 27.2381 61.5476 27.2381C62.3333 27.2381 62.8571 30.6428 62.8571 31.1666C62.8571 31.4128 62.375 32.2737 61.8356 33.1545C61.1536 34.2682 60.1475 35.1405 58.9794 35.7245L58.8786 35.775C57.387 36.5207 56.2011 37.7618 55.5238 39.2857L54.1305 42.769C54.0128 43.0631 53.9524 43.377 53.9524 43.6938V44.1394C53.9524 44.3889 54.0333 44.6317 54.183 44.8313C54.5073 45.2637 54.4878 45.8634 54.136 46.2738L52.3319 48.3786C51.848 48.9432 51.2346 49.3823 50.5442 49.6585L48.0817 50.6435C46.9544 51.0944 45.7236 51.2215 44.528 51.0105Z" fill="url(#paint1_linear)"/>
<path d="M69.5204 70.1904L73.8677 68.3273C75.8483 67.4785 77.6982 66.3522 79.3616 64.9823C80.654 63.918 81.8248 62.714 82.8527 61.3925L84.8621 58.809L82.3753 60.3269C82.19 60.4401 81.977 60.5 81.7598 60.5C81.6328 60.5 81.5058 60.4814 81.3897 60.4299C81.1008 60.3016 80.6902 60.0538 80.5205 59.7142C80.2586 59.1904 79.4728 59.7142 79.2109 59.7142C79.0014 59.7142 78.4252 60.4127 78.1633 60.7619C77.9014 61.1984 77.2728 62.1238 76.8538 62.3333C76.6551 62.4326 76.4487 62.6143 76.2678 62.8059C75.9512 63.1412 75.5292 63.3809 75.068 63.3809C74.7022 63.3809 74.3513 63.2356 74.0927 62.9769L73.9728 62.8571L73.9149 62.7919C72.5801 61.2903 70.7936 60.3509 68.9967 59.4523C68.9751 59.4416 68.9535 59.4303 68.9319 59.4186C68.233 59.0406 67.5026 58.6666 66.708 58.6666H66.6683C65.8188 58.6666 65.0118 59.0378 64.4591 59.6827C64.007 60.2101 63.7586 60.8817 63.7586 61.5763V61.8095L63.6818 62.4999C63.5609 63.5886 63.1334 64.6207 62.449 65.4762L61.585 66.7105C60.94 67.6319 60.4308 69.1428 59.3062 69.1428C58.5749 69.1428 59.5426 70.486 59.9994 71.057L60.3538 71.5C60.8484 72.1595 61.6247 72.5476 62.449 72.5476H62.4985C62.8123 72.5476 63.1238 72.4932 63.4191 72.3869L69.5204 70.1904Z" fill="#8D413B"/>
<path d="M17.0473 76.2377L10.4271 69.6175C9.94679 69.1372 9.61939 68.5255 9.48618 67.8594L8.59793 63.4181C8.32456 62.0513 9.84021 61.0363 11 61.8095L17.0238 66.2619L21.6897 70.2365C23.2759 71.5877 24.5622 73.2555 25.4661 75.1329L26.1623 76.5787C27.0332 78.3876 28.4368 79.8866 30.1845 80.8744L30.6381 81.1308C32.4938 82.1797 34.676 82.493 36.7519 82.0086L39.562 81.353C40.6923 81.0892 41.6046 80.2576 41.9716 79.1565C42.2632 78.2818 42.9034 77.5665 43.7406 77.1801L43.923 77.0959C45.1117 76.5473 46.499 76.6484 47.5956 77.3636L49.3814 78.5282C50.9746 79.5673 52.8975 79.9763 54.7758 79.6758L56.236 79.4422C57.6682 79.213 59.042 78.7073 60.2809 77.9532L63.501 75.9931C64.0927 75.633 64.8073 75.5346 65.4743 75.7213L67.1265 76.1839C68.595 76.5951 68.8702 78.5578 67.5714 79.3571L63.6376 81.2011C60.6842 82.5855 57.5708 83.5991 54.3685 84.219C52.1744 84.6436 49.9483 84.8815 47.714 84.9301L39.0238 85.119L38.3568 85.0584C36.8863 84.9247 35.4378 84.6118 34.0432 84.1268L31.1602 83.124C30.475 82.8857 29.8526 82.4954 29.3396 81.9824L28.5764 81.2192C27.7562 80.399 26.543 80.1126 25.4426 80.4794C24.5881 80.7642 23.6515 80.6584 22.882 80.1901L19.3086 78.0149C18.4868 77.5147 17.7276 76.918 17.0473 76.2377Z" fill="#AA513C"/>
<path d="M25.6667 65.7998V63.7348C25.6667 63.5394 25.8251 63.381 26.0204 63.381C26.1279 63.381 26.2296 63.4298 26.2967 63.5138L27.2381 64.6905L28.2612 66.3274C28.4473 66.6252 28.7234 66.856 29.0494 66.9865L29.1193 67.0144C29.5812 67.1992 30.1044 67.1447 30.5184 66.8687L30.5734 66.832C30.6196 66.8012 30.6626 66.766 30.7019 66.7268L30.8936 66.535C31.1704 66.2582 31.6311 66.3039 31.8482 66.6295C31.9161 66.7314 31.9524 66.8511 31.9524 66.9735V67.5715C31.9524 68.527 32.5151 69.393 33.3884 69.7811L34.3095 70.1905L37.2445 71.399C38.064 71.7365 38.4244 72.6989 38.028 73.4916L37.8935 73.7607C37.7797 73.9882 37.5723 74.1546 37.3256 74.2163L37.0384 74.2881C36.4567 74.4335 36.2932 75.1822 36.7615 75.5568C36.8705 75.6441 36.9521 75.761 36.9962 75.8935L37.1339 76.3066C37.47 77.3148 38.479 77.9384 39.5311 77.7881L40.4774 77.6529C41.069 77.5684 41.6204 77.3168 42.1192 76.9876C42.5283 76.7177 42.9679 76.4762 43.2143 76.4762H43.6613C45.5382 76.4762 47.322 77.2964 48.5435 78.7214L49.1831 79.4677C49.5611 79.9087 50.057 80.2327 50.6127 80.4018L52.8542 81.084C54.1427 81.4762 54.5092 83.1251 53.508 84.0261C53.2843 84.2275 53.012 84.367 52.7179 84.4309L48.8789 85.2655C47.7249 85.5164 46.5472 85.6429 45.3662 85.6429H42.0929C40.5764 85.6429 39.0656 85.4569 37.5943 85.0891L36.7648 84.8817C36.0033 84.6913 35.2659 84.4163 34.5586 84.0756C33.0697 83.3582 30.9909 82.4028 29.2019 81.6992C27.9067 81.1899 26.9762 79.9631 26.9762 78.5715V77.871C26.9762 76.9583 26.7281 76.0628 26.2586 75.2802L24.8219 72.8857C24.698 72.6793 24.7042 72.4199 24.8378 72.2196L24.8611 72.1845C25.0221 71.9431 25.3376 71.8593 25.5971 71.9891C25.9103 72.1457 26.2895 71.9886 26.4003 71.6564L26.5859 71.0995C26.6687 70.8511 26.6588 70.5812 26.5581 70.3395L25.8805 68.7133C25.5697 67.9672 25.4752 67.1486 25.6081 66.3513L25.6338 66.1975C25.6557 66.0661 25.6667 65.9331 25.6667 65.7998Z" fill="#873F41"/>
<path d="M38.9946 20.9524H43.8001C44.8408 20.9524 45.4262 19.7554 44.7873 18.934C44.6165 18.7144 44.5238 18.4443 44.5238 18.1661V17.4546C44.5238 16.5795 45.1039 15.8105 45.9453 15.5701L46.0629 15.5364C46.2568 15.4811 46.4364 15.3845 46.5895 15.2533C47.3497 14.6016 47.2001 13.3857 46.3044 12.9379L45.7693 12.6704C45.6379 12.6047 45.4989 12.5553 45.3554 12.5234L38.5 11L34.7173 10.6217C33.8663 10.5366 33.0699 11.0524 32.7994 11.8637C32.7587 11.986 32.7309 12.1122 32.7167 12.2403L32.5988 13.3018C32.226 16.6564 34.3384 19.7871 37.5887 20.6972L38.0237 20.819C38.3398 20.9075 38.6664 20.9524 38.9946 20.9524Z" fill="#98453B"/>
<path d="M71.5018 15.3747L71.6129 15.2001C72.0523 14.5096 72.2857 13.7082 72.2857 12.8898C72.2857 11.5353 71.648 10.2598 70.5644 9.44713L69.5749 8.70498C69.2873 8.48932 68.9831 8.29688 68.665 8.12947L64.1667 5.76193L58.4537 3.68449C58.4212 3.67266 58.3875 3.66422 58.3532 3.65932C57.8502 3.58747 57.5712 4.22279 57.9644 4.54452L59.3303 5.66203C59.4112 5.72821 59.502 5.78122 59.5994 5.81911L62.8758 7.09327C63.6541 7.39591 64.1667 8.14527 64.1667 8.98028C64.1667 9.44003 64.0102 9.88609 63.723 10.2451L63.676 10.3038C63.3184 10.7509 63.1455 11.318 63.1931 11.8885L63.316 13.3634C63.3591 13.8808 63.3339 14.4016 63.241 14.9124L63.1766 15.2667C62.9702 16.4019 62.3715 17.4285 61.4851 18.1672L60.0613 19.3537C59.8414 19.5369 59.7143 19.8083 59.7143 20.0945C59.7143 20.4598 59.9206 20.7937 60.2473 20.957L62.516 22.0914C63.0325 22.3496 63.6564 22.2484 64.0647 21.84C64.1325 21.7723 64.1928 21.6975 64.2446 21.6169L65.4282 19.7757C66.1331 18.6792 67.2219 17.8853 68.4814 17.5494L68.5636 17.5275C69.7783 17.2036 70.8269 16.4352 71.5018 15.3747Z" fill="#934337"/>
<path d="M65.8196 42.0365L61.9338 43.6196C60.701 44.1218 60.0968 45.5182 60.5746 46.7607C60.8567 47.494 61.4741 48.0471 62.2339 48.247L64.0289 48.7194C65.3079 49.056 66.6618 48.9656 67.8847 48.4621L68.4792 48.2173C69.772 47.6849 70.9023 46.8225 71.7572 45.7163L74.9048 41.6429L75.4702 40.9904C77.354 38.8169 78.9265 36.3921 80.1429 33.7857L81.4524 31.1667L82.3026 29.2537C82.4308 28.9651 82.6479 28.7251 82.922 28.5684C83.6797 28.1354 83.9016 27.1452 83.4012 26.4303L82.9095 25.7279C82.643 25.3471 82.5 24.8936 82.5 24.4288V23.0296C82.5 22.5452 82.2764 22.088 81.894 21.7906C81.0392 21.1257 79.7838 21.5058 79.4413 22.5332L79.4165 22.6077C79.3771 22.726 79.3242 22.8394 79.2588 22.9455L78.0977 24.8323C77.5512 25.7203 77.2619 26.7426 77.2619 27.7852C77.2619 29.2796 76.6683 30.7127 75.6117 31.7693L74.5643 32.8166C73.9218 33.4592 73.3779 34.1932 72.9503 34.995L72.6897 35.4837C71.904 36.9568 70.8405 38.2639 69.5579 39.3327L67.5872 40.975C67.056 41.4176 66.4598 41.7756 65.8196 42.0365Z" fill="#97483E"/>
<path d="M14.3519 55.5155L15.6827 58.7983C16.7808 61.5068 22 62.6369 22 59.7143C22 59.1905 22.7857 58.6667 23.5714 58.1429C24.2434 57.6949 24.2896 56.6713 24.484 55.8874C24.5627 55.5698 24.6191 55.2525 24.6191 55V54.0634C24.6191 53.6448 24.5312 53.2309 24.3612 52.8483L23.7891 51.5612C23.6568 51.2634 23.3614 51.0714 23.0354 51.0714H23.0269C22.8696 51.0714 22.7159 51.0249 22.5851 50.9376C22.2508 50.7148 22.1352 50.2781 22.3009 49.9122C22.472 49.5341 22.6622 49.0848 22.7857 48.7143C23.0476 47.9286 23.5714 46.8809 23.5714 46.0952C23.5714 44.8754 21.393 45.3847 20.2271 45.0259L19.4512 44.7872C18.8838 44.6126 18.2934 44.5238 17.6997 44.5238H16.5732C15.3754 44.5238 14.2499 45.0969 13.5453 46.0656C12.9251 46.9185 12.6932 47.9935 12.9069 49.0262L14.0302 54.4552C14.1051 54.8177 14.2128 55.1725 14.3519 55.5155Z" fill="#C15D36"/>
<path d="M43.871 72.8095H43.2616C42.4274 72.8095 42.0389 71.7755 42.6667 71.2262C42.8494 71.0663 43.0888 70.9867 43.3309 71.0053L44.88 71.1245C45.8175 71.1966 46.7398 70.8554 47.4048 70.1905L49.2381 68.619L50.9974 67.2507C51.3901 66.9452 51.8509 66.7392 52.3404 66.6502L53.4044 66.4568C54.0474 66.3399 54.5478 65.832 54.6553 65.1874C54.7091 64.8644 54.6592 64.5327 54.5128 64.2399L54.2189 63.6521C53.8759 62.9661 53.3196 62.4098 52.6336 62.0668L52.4921 61.996C52.245 61.8725 52.0195 61.7099 51.8242 61.5146C51.3422 61.0327 50.7288 60.1465 51.2728 59.7359C51.2913 59.7219 51.3115 59.7143 51.3333 59.7143C51.5952 59.7143 52.6429 58.9286 52.9048 58.6667C52.9782 58.5932 53.1612 58.539 53.3904 58.4997C54.2594 58.3505 55.5238 58.2389 55.5238 57.3571C55.5238 57.1405 55.7105 56.9145 55.9391 56.7226C56.3033 56.4169 56.6177 56.032 56.6958 55.563C56.7812 55.0508 57.1224 54.5791 57.6379 54.5171C57.9172 54.4835 58.1429 54.525 58.1429 54.7381V57.8809C58.1429 58.0272 57.8026 58.9475 57.4783 59.787C57.229 60.4325 57.0952 61.1175 57.0952 61.8095V63.7636C57.0952 63.8557 57.068 63.9456 57.017 64.0222L56.9472 64.1269C56.7797 64.378 56.4035 64.3546 56.2685 64.0846C56.083 63.7136 55.5238 63.8456 55.5238 64.2604V65.6014C55.5238 65.6917 55.5407 65.781 55.5753 65.8644C55.7769 66.3502 56.1887 67.2593 56.5714 67.8333C57.0952 68.619 57.0952 69.1429 56.8333 69.6667C56.6238 70.0857 55.873 71.2381 55.5238 71.7619L54.6139 73.1268C54.5242 73.2613 54.3958 73.3655 54.2457 73.4255L50.7154 74.8376C50.4636 74.9384 50.2688 74.604 50.4806 74.4346C50.5239 74.3999 50.5536 74.3511 50.5645 74.2967L50.6906 73.6658C50.7682 73.2782 50.9587 72.9223 51.2382 72.6428L52.2089 71.672C52.4868 71.3942 52.6429 71.0173 52.6429 70.6244V70.3105C52.6429 69.6656 52.1201 69.1429 51.4753 69.1429C51.2136 69.1429 50.9596 69.2307 50.7539 69.3923L48.8429 70.8939C47.8958 71.638 46.7963 72.1642 45.6227 72.435L44.1257 72.7805C44.0422 72.7998 43.9567 72.8095 43.871 72.8095Z" fill="#7A3A3E"/>
<defs>
<linearGradient id="paint0_linear" x1="88" y1="41.6429" x2="2.35714" y2="42.4286" gradientUnits="userSpaceOnUse">
<stop stop-color="#CA6233"/>
<stop offset="1" stop-color="#D97428"/>
</linearGradient>
<linearGradient id="paint1_linear" x1="42.9524" y1="19.6428" x2="42.9524" y2="51.3333" gradientUnits="userSpaceOnUse">
<stop offset="0.34375" stop-color="#823B40"/>
<stop offset="1" stop-color="#9E4B33"/>
</linearGradient>
</defs>
</svg>
