<svg width="201" height="354" viewBox="0 0 201 354" fill="none" xmlns="http://www.w3.org/2000/svg">
<path d="M77.9398 325.682C78.4256 330.257 80.0267 342.175 82.8951 334.249C84.8066 328.967 87.6788 327.673 89.8939 327.587C91.9536 327.507 93.1262 329.561 93.1262 331.622L92.6238 337.19C92.3942 339.734 92.8192 342.297 93.8569 344.632C95.048 347.312 96.9757 349.632 99.5337 351.067C101.448 352.141 103.077 352.869 101.652 351.301C99.4564 348.885 104.511 344.392 106.686 342.644C107.301 342.15 107.901 341.642 108.458 341.084L114.822 334.721C116.258 333.284 117.388 331.571 118.142 329.685L119.336 326.7C120.045 324.928 120.409 323.037 120.409 321.129V320.38C120.409 318.281 119.969 316.206 119.116 314.288L117.341 310.294C117.113 309.782 116.842 309.289 116.531 308.822L114.724 306.111C114.015 305.047 112.82 304.408 111.541 304.408C109.748 304.408 108.196 305.653 107.807 307.403L107.124 310.478C106.906 311.461 106.151 312.236 105.174 312.48C104.085 312.752 102.941 312.31 102.318 311.376L98.1577 305.135C97.1262 303.587 95.4845 302.553 93.6436 302.29C91.6978 302.012 89.7302 302.624 88.2859 303.957L83.4052 308.463C80.8694 310.803 79.2182 313.947 78.7302 317.363L78.0168 322.357C77.8591 323.461 77.8221 324.573 77.9398 325.682Z" fill="#FFA800" stroke="black" stroke-width="2"/>
<path d="M123.499 282.311V74.5961L124.951 77.017L125.92 79.9221L126.888 87.1849L129.309 103.163L131.73 119.625L134.151 134.151L139.477 157.876L141.898 167.075L146.255 176.275L198.063 236.314L199.516 238.735L200 240.671V268.754L199.516 269.723L198.547 270.691L196.127 271.659L180.633 275.049L149.161 280.375L142.866 281.343L135.119 281.827L123.499 282.311Z" fill="white" stroke="black" stroke-width="2"/>
<path d="M77.5012 282.311V74.5961L76.0487 77.017L75.0803 79.9221L74.1119 87.1849L71.691 103.163L69.2701 119.625L66.8492 134.151L61.5231 157.876L59.1022 167.075L54.7445 176.275L2.93676 236.314L1.4842 238.735L1.00002 240.671V268.754L1.4842 269.723L2.45257 270.691L4.8735 271.659L20.3674 275.049L51.8394 280.375L58.1338 281.343L65.8808 281.827L77.5012 282.311Z" fill="white" stroke="black" stroke-width="2"/>
<path d="M81.3747 37.798L79.9881 43.6912C79.6219 45.2474 79.3807 46.8303 79.2668 48.4249L77.5012 73.1435L76.5328 282.311H100.016H123.499V72.8471L122.19 48.6869C122.094 46.9186 121.842 45.1622 121.437 43.4383L120.109 37.798L117.204 29.5669L114.203 21.5641C113.3 19.1557 112.22 16.8176 110.97 14.5691L110.426 13.5888L108.645 10.028C107.898 8.53258 106.994 7.12032 105.95 5.81475L104.085 3.48413C103.795 3.12138 103.45 2.80558 103.064 2.54789C101.641 1.59924 99.8041 1.53598 98.3192 2.38448L98.2547 2.42135C97.6608 2.76073 97.1493 3.22736 96.7571 3.78776L93.9635 7.77859L90.5742 13.5888L90.0296 14.5691C88.7804 16.8176 87.6998 19.1557 86.7967 21.5641L83.7956 29.5669L81.3747 37.798Z" fill="white" stroke="black" stroke-width="2"/>
<path d="M94.5224 49.6602L85.6318 55.0484C85.6202 55.0554 85.6106 55.0652 85.6036 55.0767L84.4731 56.961C83.9409 57.848 84.5798 58.9764 85.6142 58.9764H113.819C114.853 58.9764 115.492 57.848 114.96 56.961L113.838 55.0911C113.826 55.0701 113.808 55.0524 113.787 55.0397L104.911 49.6602C103.973 49.0919 102.897 48.7914 101.801 48.7914H99.7165H97.6322C96.5357 48.7914 95.4601 49.0919 94.5224 49.6602Z" fill="#DCEEFF" stroke="black" stroke-width="2"/>
<path d="M75.0803 300.226L76.4838 282.796H123.499L125.92 300.226L126.287 309.412C126.352 311.036 125.111 312.417 123.489 312.525L119.141 312.815H80.8905L77.4792 312.553C75.8701 312.429 74.6472 311.054 74.7117 309.442L75.0803 300.226Z" fill="#363636" stroke="black" stroke-width="2"/>
<path d="M101.737 330.285L104.131 289.574L103.673 264.364C103.656 263.419 103.567 262.476 103.407 261.544L100.867 246.723C100.795 246.304 100.431 245.998 100.006 245.998C99.5893 245.998 99.2308 246.291 99.1491 246.7L96.2655 261.118C96.0226 262.332 95.9003 263.568 95.9003 264.806V289.574L98.7745 330.293C98.7947 330.578 98.8975 330.853 99.0691 331.082C99.6616 331.872 100.85 331.877 101.443 331.087C101.617 330.854 101.72 330.575 101.737 330.285Z" fill="#C4C4C4" stroke="black" stroke-width="2"/>
<path d="M112.847 18.9148H88.1533L93.4793 8.74696L96.2481 4.39591C96.6566 3.75405 97.2034 3.21165 97.8486 2.80842L97.8998 2.77643C99.62 1.70127 101.819 1.76906 103.469 2.94817C103.908 3.26129 104.293 3.64304 104.61 4.07872L106.599 6.81394C107.534 8.09988 108.349 9.46935 109.032 10.905L112.847 18.9148Z" fill="#292929"/>
<g clip-path="url(#clip0)">
<path d="M51.3817 255.626C51.3817 261.212 46.9955 265.81 41.6656 265.81C36.3358 265.81 31.9495 261.212 31.9495 255.626C31.9495 250.039 36.2332 245.442 41.6656 245.442C46.8925 245.442 51.3817 250.04 51.3817 255.626Z" fill="#0F3A97"/>
<path d="M43.8572 260.986C48.0082 262.778 47.288 258.25 45.0752 254.783C43.8211 252.819 42.1855 251.183 41.1539 250.393C37.7334 247.774 35.6219 249.363 38.0372 254.528C38.8182 256.198 39.8212 257.326 40.6046 258.388C41.2029 259.199 42.3682 259.606 41.9577 259.99C41.495 260.424 40.375 258.51 40.375 258.51C39.5477 257.463 38.7592 256.346 37.9465 254.813C36.0899 251.312 36.3576 247.739 39.7184 249.295C42.5706 250.617 45.2948 254.324 46.3903 256.956C46.8961 258.172 48.2754 262.981 43.8823 261.037" fill="white"/>
<path d="M30.9489 258.645C32.7751 257.369 34.5064 256.545 37.4528 255.524C41.5931 254.089 44.7092 253.124 48.5328 251.108C50.2442 250.205 53.2138 248.181 54.2756 246.422C53.9577 247.103 52.9728 248.428 52.5272 249.015C47.3395 255.83 36.2894 255.443 31.0218 258.715" fill="#F7410A"/>
<path d="M49.0621 258.415L49.026 258.766L48.6942 258.804L49.0289 258.842L49.0654 259.206L49.102 258.842L49.4306 258.797L49.0991 258.766L49.0621 258.415ZM48.3315 261.024C48.3315 261.094 48.2765 261.152 48.2097 261.152C48.1774 261.152 48.1465 261.138 48.1237 261.114C48.1008 261.09 48.088 261.058 48.0878 261.024C48.0878 260.954 48.1429 260.896 48.2097 260.896C48.2419 260.897 48.2728 260.91 48.2956 260.934C48.3184 260.958 48.3313 260.99 48.3315 261.024Z" fill="white"/>
<path d="M48.2105 260.635L48.1739 260.986L47.8422 261.024L48.1769 261.062L48.2136 261.426L48.2502 261.062L48.5786 261.018L48.2468 260.986L48.2105 260.635ZM39.249 250.482C39.249 250.552 39.194 250.61 39.1273 250.61C39.095 250.61 39.0641 250.596 39.0413 250.573C39.0185 250.549 39.0056 250.516 39.0054 250.482C39.0054 250.412 39.0603 250.355 39.1273 250.355C39.194 250.355 39.249 250.412 39.249 250.482Z" fill="white"/>
<path d="M39.127 250.093L39.0904 250.444L38.7585 250.483L39.0934 250.521L39.13 250.885L39.1664 250.521L39.4952 250.476L39.1633 250.444L39.127 250.093ZM43.7782 247.394C43.7782 247.464 43.7231 247.522 43.6563 247.522C43.5895 247.522 43.5347 247.464 43.5347 247.394C43.5347 247.324 43.5894 247.266 43.6563 247.266C43.7232 247.266 43.7782 247.324 43.7782 247.394Z" fill="white"/>
<path d="M43.6564 247.005L43.6201 247.356L43.2884 247.394L43.6232 247.432L43.6594 247.796L43.696 247.432L44.0246 247.388L43.6928 247.356L43.6564 247.005ZM38.2718 263.067C38.2718 263.137 38.2169 263.195 38.1501 263.195C38.1179 263.194 38.087 263.181 38.0641 263.157C38.0413 263.133 38.0284 263.101 38.0283 263.067C38.0283 262.997 38.0832 262.939 38.1501 262.939C38.2169 262.939 38.2718 262.997 38.2718 263.067Z" fill="white"/>
<path d="M38.153 262.677L38.1165 263.028L37.7847 263.067L38.1195 263.105L38.156 263.468L38.1924 263.105L38.5212 263.06L38.1895 263.028L38.153 262.677Z" fill="white"/>
<path d="M54.2747 246.422C52.794 251.031 46.8624 254.59 41.8692 257.988C38.8569 260.038 35.8662 262.398 33.8072 264.406C33.2646 264.935 33.9178 264.208 33.7098 264.432C36.5832 260.96 39.8884 258.893 41.7149 257.591C44.8038 255.389 46.5607 254.834 51.8899 249.684" fill="#F7410A"/>
<path d="M32.184 257.841C31.6522 258.114 31.1759 258.383 30.7717 258.646L31.0176 258.74C31.3711 258.512 31.7954 258.274 32.2424 258.064L32.184 257.841ZM34.9914 262.998C34.4855 263.461 33.9879 263.934 33.4989 264.417L33.4767 264.769C33.9381 264.27 34.5049 263.732 35.1591 263.16" fill="#EE293D"/>
<path d="M43.8572 260.986C48.0082 262.778 47.288 258.25 45.0753 254.783C43.821 252.819 42.2745 251.261 41.1539 250.393C39.8454 249.38 39.7177 249.296 39.7177 249.296C42.6396 250.751 45.2941 254.324 46.3894 256.957C46.8954 258.172 48.2746 262.982 43.8814 261.037" fill="white"/>
</g>
<defs>
<clipPath id="clip0">
<rect width="23.5039" height="20.3701" fill="white" transform="translate(30.7717 245.441)"/>
</clipPath>
</defs>
</svg>
