<svg width="50" height="32" viewBox="0 0 50 32" fill="none" xmlns="http://www.w3.org/2000/svg">
<path d="M25.4054 2.97295L22.7027 4.05403L25.2044 20.3151C25.3225 21.0826 25.9485 21.671 26.7219 21.7413C26.8349 21.7516 26.9487 21.7504 27.0615 21.7379L27.9411 21.6402C28.0522 21.6278 28.1621 21.6062 28.2697 21.5754L28.8753 21.4024C28.9942 21.3684 29.1097 21.3235 29.2203 21.2682L30.1351 20.8108L31.6216 19.8648L32.5676 19.1892L33.5582 18.4687C33.8813 18.2337 34.1267 17.9073 34.2626 17.5315L38.1685 6.73272C38.4695 5.90057 38.3467 4.97399 37.8392 4.24904C37.7484 4.11928 37.6464 3.99771 37.5344 3.88571L37.01 3.36131C36.7515 3.1028 36.4731 2.86494 36.1774 2.64991L35.7716 2.35473C35.3486 2.04713 34.8925 1.78789 34.4118 1.58187L34.1892 1.48646L33.6522 1.30747C33.2008 1.15699 32.734 1.05716 32.2606 1.00982L32.1931 1.00307C31.8131 0.965068 31.4302 0.965068 31.0501 1.00307C30.5326 1.05482 30.0245 1.17662 29.5398 1.36511L25.4054 2.97295Z" fill="#C6CBCD" stroke="black" stroke-width="0.5"/>
<path d="M30.6028 28.44L39.9646 2.42907L49.6765 3.3378L41.7959 30.7886L30.6028 28.44Z" fill="url(#paint0_linear)" stroke="black" stroke-width="0.5"/>
<path d="M0.366245 22.264L11.5611 0.267151L19.7586 1.15655L8.78018 24.3037L0.366245 22.264Z" fill="url(#paint1_linear)" stroke="black" stroke-width="0.5"/>
<path d="M33.4022 11.3936L33.4045 11.4066L33.408 11.4192C34.1253 13.9621 33.3455 16.5476 31.7675 18.4378C30.1882 20.3297 27.8331 21.4975 25.4323 21.2379L25.4189 21.2365H25.4054C23.4934 21.2365 21.5306 20.024 20.0338 18.1873C18.5405 16.3548 17.5473 13.9428 17.5473 11.6216C17.5473 6.99752 20.8054 4.68745 23.4318 4.02813C25.509 3.64125 27.8021 4.32186 29.6839 5.69196C31.5667 7.06279 33.0097 9.10392 33.4022 11.3936Z" fill="url(#paint2_radial)" stroke="black" stroke-width="0.5"/>
<rect x="16.6538" y="8.589" width="3.4516" height="0.675676" transform="rotate(22.7711 16.6538 8.589)" fill="url(#paint3_linear)" stroke="black" stroke-width="0.675676"/>
<path d="M21.1836 7.12023L8.10809 13.1081L13.9594 28.5H14.5L15.9865 27.6892L23.7838 22.8378L28.2432 19.1892L28.6884 18.744C29.2007 18.2317 29.6512 17.6613 30.0309 17.0443L30.1439 16.8607C30.4076 16.4322 30.6258 15.9773 30.7951 15.5035L30.9053 15.1947C31.111 14.6187 31.2162 14.0116 31.2162 13.4C31.2162 12.7602 31.1011 12.1255 30.8765 11.5264L30.7347 11.1484C30.516 10.5652 30.2261 10.0112 29.8716 9.49913L29.8474 9.46423C29.4109 8.83375 28.885 8.27014 28.2862 7.79111L27.8161 7.41502C27.3835 7.06898 26.8932 6.8022 26.3677 6.62703C25.8209 6.44478 25.2453 6.36474 24.6696 6.39091L24.0882 6.41733C23.0838 6.46299 22.0977 6.70163 21.1836 7.12023Z" fill="url(#paint4_linear)" stroke="black" stroke-width="0.5"/>
<path d="M17.1527 21.2849C17.4338 23.4778 17.1224 25.2701 16.3234 26.4962C15.5407 27.6974 14.2463 28.4241 12.3784 28.4241C10.5497 28.4241 8.58022 27.352 7.04956 25.651C5.52418 23.956 4.5 21.7059 4.5 19.4646C4.5 17.1472 5.01106 15.8269 5.67776 15.0108C6.33992 14.2002 7.21087 13.8147 8.13037 13.4844C10.097 13.1301 12.1844 13.8614 13.8806 15.3117C15.5855 16.7693 16.8492 18.9176 17.1527 21.2849Z" fill="url(#paint5_radial)"/>
<path d="M17.1527 21.2849C17.4338 23.4778 17.1224 25.2701 16.3234 26.4962C15.5407 27.6974 14.2463 28.4241 12.3784 28.4241C10.5497 28.4241 8.58022 27.352 7.04956 25.651C5.52418 23.956 4.5 21.7059 4.5 19.4646C4.5 17.1472 5.01106 15.8269 5.67776 15.0108C6.33992 14.2002 7.21087 13.8147 8.13037 13.4844C10.097 13.1301 12.1844 13.8614 13.8806 15.3117C15.5855 16.7693 16.8492 18.9176 17.1527 21.2849Z" stroke="black"/>
<path d="M17.1527 21.2849C17.4338 23.4778 17.1224 25.2701 16.3234 26.4962C15.5407 27.6974 14.2463 28.4241 12.3784 28.4241C10.5497 28.4241 8.58022 27.352 7.04956 25.651C5.52418 23.956 4.5 21.7059 4.5 19.4646C4.5 17.1472 5.01106 15.8269 5.67776 15.0108C6.33992 14.2002 7.21087 13.8147 8.13037 13.4844C10.097 13.1301 12.1844 13.8614 13.8806 15.3117C15.5855 16.7693 16.8492 18.9176 17.1527 21.2849Z" stroke="url(#paint6_linear)"/>
<rect x="31.2335" y="14.4469" width="3.92727" height="1.15135" transform="rotate(15.106 31.2335 14.4469)" fill="url(#paint7_linear)" stroke="black" stroke-width="0.2"/>
<defs>
<linearGradient id="paint0_linear" x1="40.1351" y1="2.16211" x2="40.1351" y2="31.081" gradientUnits="userSpaceOnUse">
<stop stop-color="#1251FF"/>
<stop offset="1" stop-color="#002FAF"/>
</linearGradient>
<linearGradient id="paint1_linear" x1="10.0676" y1="0" x2="10.0676" y2="24.5946" gradientUnits="userSpaceOnUse">
<stop stop-color="#1251FF"/>
<stop offset="1" stop-color="#002FAF"/>
</linearGradient>
<radialGradient id="paint2_radial" cx="0" cy="0" r="1" gradientUnits="userSpaceOnUse" gradientTransform="translate(25 13.5135) rotate(-29.0546) scale(9.73911 9.07125)">
<stop offset="0.315633" stop-color="#56555A" stop-opacity="0.59"/>
<stop offset="0.882685" stop-color="#595B5F"/>
</radialGradient>
<linearGradient id="paint3_linear" x1="18.5367" y1="8.14673" x2="18.5367" y2="9.49808" gradientUnits="userSpaceOnUse">
<stop stop-color="#FAFAFA"/>
<stop offset="1" stop-color="#989898"/>
</linearGradient>
<linearGradient id="paint4_linear" x1="19.6621" y1="6.35132" x2="19.6621" y2="28.5" gradientUnits="userSpaceOnUse">
<stop stop-color="#FAFAFA"/>
<stop offset="1" stop-color="#989898"/>
</linearGradient>
<radialGradient id="paint5_radial" cx="0" cy="0" r="1" gradientUnits="userSpaceOnUse" gradientTransform="translate(8.05409 16.0862) rotate(62.9595) scale(14.5652 16.9353)">
<stop/>
<stop offset="1" stop-color="#2F2F2F"/>
</radialGradient>
<linearGradient id="paint6_linear" x1="2.64868" y1="3.11325" x2="18.7335" y2="28.9241" gradientUnits="userSpaceOnUse">
<stop stop-color="#D6D6D6"/>
<stop offset="1" stop-color="#676767"/>
</linearGradient>
<linearGradient id="paint7_linear" x1="33.2266" y1="14.3243" x2="33.2266" y2="15.6757" gradientUnits="userSpaceOnUse">
<stop stop-color="#FAFAFA"/>
<stop offset="1" stop-color="#989898"/>
</linearGradient>
</defs>
</svg>
