<svg width="315" height="315" viewBox="0 0 315 315" fill="none" xmlns="http://www.w3.org/2000/svg">
<mask id="mask0" mask-type="alpha" maskUnits="userSpaceOnUse" x="4" y="6" width="307" height="306">
<rect x="5.00699" y="7.20972" width="304.986" height="303.885" rx="151.942" fill="#001D38" stroke="black"/>
</mask>
<g mask="url(#mask0)">
<rect x="-62.937" y="0.82605" width="422.858" height="302.885" fill="#031627"/>
<mask id="mask1" mask-type="alpha" maskUnits="userSpaceOnUse" x="-15" y="175" width="335" height="335">
<circle cx="152.413" cy="342.535" r="167.413" fill="#C4C4C4"/>
</mask>
<g mask="url(#mask1)">
<path d="M152.413 509.947C244.872 509.947 319.825 434.994 319.825 342.535C319.825 250.075 244.872 175.122 152.413 175.122C59.9532 175.122 -15 250.075 -15 342.535C-15 434.994 59.9532 509.947 152.413 509.947Z" fill="#0B59D9"/>
<path d="M3.43212 236.415C17.4579 187.655 90.4565 214.658 109.886 214.327C124.461 214.079 139.073 203.552 153.025 213.684C160.435 218.854 114.631 223.494 115.846 232.555C116.831 239.898 136.026 251.64 142.75 248.436C154.519 242.643 143.469 234.075 150.969 229.006C159.939 222.942 182.172 241.15 180.491 251.985C178.636 263.938 119.02 267.681 112.481 298.509C111.356 303.816 120.092 311.473 113.04 314.577C108.37 316.629 110.051 306.96 102.828 301.435C91.1831 292.529 62.9908 322.619 76.4207 329.584C83.1473 333.073 92.586 317.865 96.6006 323.855C100.525 329.711 85.3906 329.524 92.6764 339.799C101.221 351.846 107.998 355.68 118.274 349.328C141.752 335.939 187.777 364.834 203.47 393.981C217.027 419.153 132.845 440.689 162.615 503.716C166.502 511.946 128.653 504.63 133.22 458.378C137.787 412.125 86.3616 405.613 106.689 370.814C117.715 351.943 60.1482 341.544 44.783 311.152C36.3622 294.487 37.7383 280.063 41.1301 259.334C48.6034 213.664 -0.0567613 248.539 3.43212 236.415Z" fill="#0BD96D"/>
<path d="M230.561 345.404C243.826 373.429 268.547 353.755 279.887 363.9C301.403 383.149 286.359 449.558 311.649 459.747C324.64 464.984 365.646 369.867 366.393 357.548C367.39 341.105 323.98 312.521 337.434 308.597C351.841 304.395 352.973 340.168 368.448 340.546C383.924 340.924 396.895 326.433 391.99 317.751C387.081 309.069 366.905 308.46 371.81 303.551C376.719 298.646 411.058 308.252 420.119 328.258C429.176 348.26 428.436 356.959 435.986 356.581C443.536 356.202 448.063 317.704 460.144 321.856C472.221 326.008 497.366 392.883 502.66 388.044C508.472 382.731 479.574 356.654 485.808 344.125C492.444 330.786 496.392 354.498 504.321 346.191C512.246 337.888 492.98 333.555 501.662 325.63C510.344 317.704 530.35 318.836 528.083 304.87C525.82 290.905 507.324 285.621 513.739 279.959C520.158 274.298 529.101 295.629 533.745 292.79C540.897 288.417 520.365 240.44 535.104 232.93C554.538 223.026 553.637 255.671 565.748 251.613C579.298 247.07 587.247 223.334 549.974 208.997C510.722 193.899 475.241 187.862 421.642 199.561C402.745 203.686 375.353 222.587 350.683 217.304C336.757 214.32 314.645 207.034 296.709 212.017C284.28 215.469 274.44 232.776 281.612 238.063C288.78 243.346 315.288 215.094 319.731 222.962C329.17 239.677 291.576 241.729 279.951 247.709C269.538 253.063 246.632 278.178 254.852 283C263.444 288.045 273.827 269.319 283.624 268.987C293.776 268.642 295.728 287.068 302.039 281.921C307.145 277.753 286.259 265.619 293.525 265.063C304.155 264.256 307.714 281.58 314.08 279.825C324.914 276.835 320.97 263.985 331.055 262.595C338.277 261.601 355.434 272.697 353.314 277.395C348.081 288.98 329.773 267.119 323.234 282.253C319.875 290.024 344.907 279.45 340.983 295.706C337.691 309.344 286.386 288.397 265.128 288.233C247.155 287.838 221.028 325.265 230.561 345.404Z" fill="#0BD96D"/>
<path d="M100.565 199.983C106.732 197.181 131.975 202.039 122.801 207.456C111.199 214.307 94.4008 202.785 100.565 199.983Z" fill="#0BD96D"/>
<path d="M154.894 207.145C145.766 203.412 164.61 196.745 178.06 213.748C184.074 221.345 168.906 229.963 168.719 224.208C168.471 216.487 165.856 211.628 154.894 207.145Z" fill="#0BD96D"/>
<path d="M201.893 227.944C211.358 232.264 273.485 201.594 265.168 191.077C257.926 181.916 168.186 175.122 168.842 187.588C169.683 203.489 199.131 194.616 200.46 205.414C201.789 216.209 192.427 223.628 201.893 227.944Z" fill="#0BD96D"/>
<g opacity="0.5">
<path opacity="0.5" d="M212.681 365.973C254.23 283.448 227.557 193.21 227.685 193.002C310.993 236.034 343.477 335.283 301.932 417.807C260.384 500.331 159.652 533.599 77.1272 492.054C79.5011 492.774 171.133 448.497 212.681 365.973Z" fill="#1B028A"/>
</g>
</g>
</g>
<path fill-rule="evenodd" clip-rule="evenodd" d="M157.5 315C244.485 315 315 244.485 315 157.5C315 70.5152 244.485 0 157.5 0C70.5152 0 0 70.5152 0 157.5C0 244.485 70.5152 315 157.5 315ZM157.5 296.943C234.512 296.943 296.943 234.512 296.943 157.5C296.943 80.4879 234.512 18.0573 157.5 18.0573C80.488 18.0573 18.0574 80.4879 18.0574 157.5C18.0574 234.512 80.488 296.943 157.5 296.943Z" fill="#C0C0C0"/>
<path fill-rule="evenodd" clip-rule="evenodd" d="M157.5 315C244.485 315 315 244.485 315 157.5C315 70.5152 244.485 0 157.5 0C70.5152 0 0 70.5152 0 157.5C0 244.485 70.5152 315 157.5 315ZM157.5 296.943C234.512 296.943 296.943 234.512 296.943 157.5C296.943 80.4879 234.512 18.0573 157.5 18.0573C80.488 18.0573 18.0574 80.4879 18.0574 157.5C18.0574 234.512 80.488 296.943 157.5 296.943Z" fill="url(#paint0_radial)"/>
<path d="M210.405 126.973L207.703 128.054L210.204 144.315C210.322 145.083 210.948 145.671 211.722 145.741C211.835 145.752 211.949 145.75 212.062 145.738L212.941 145.64C213.052 145.628 213.162 145.606 213.27 145.575L213.875 145.402C213.994 145.368 214.11 145.323 214.22 145.268L215.135 144.811L216.622 143.865L217.568 143.189L218.558 142.469C218.881 142.234 219.127 141.907 219.263 141.532L223.169 130.733C223.47 129.901 223.347 128.974 222.839 128.249C222.748 128.119 222.646 127.998 222.534 127.886L222.01 127.361C221.751 127.103 221.473 126.865 221.177 126.65L220.772 126.355C220.349 126.047 219.893 125.788 219.412 125.582L219.189 125.486L218.652 125.307C218.201 125.157 217.734 125.057 217.261 125.01L217.193 125.003C216.813 124.965 216.43 124.965 216.05 125.003C215.533 125.055 215.025 125.177 214.54 125.365L210.405 126.973Z" fill="#C6CBCD" stroke="black" stroke-width="0.5"/>
<path d="M215.603 152.44L224.965 126.429L234.677 127.338L226.796 154.789L215.603 152.44Z" fill="url(#paint1_linear)" stroke="black" stroke-width="0.5"/>
<path d="M185.366 146.264L196.561 124.267L204.759 125.157L193.78 148.304L185.366 146.264Z" fill="url(#paint2_linear)" stroke="black" stroke-width="0.5"/>
<path d="M218.402 135.394L218.404 135.407L218.408 135.419C219.125 137.962 218.345 140.548 216.768 142.438C215.188 144.33 212.833 145.497 210.432 145.238L210.419 145.236H210.405C208.493 145.236 206.531 144.024 205.034 142.187C203.54 140.355 202.547 137.943 202.547 135.622C202.547 130.998 205.805 128.687 208.432 128.028C210.509 127.641 212.802 128.322 214.684 129.692C216.567 131.063 218.01 133.104 218.402 135.394Z" fill="url(#paint3_radial)" stroke="black" stroke-width="0.5"/>
<rect x="201.654" y="132.589" width="3.4516" height="0.675676" transform="rotate(22.7711 201.654 132.589)" fill="url(#paint4_linear)" stroke="black" stroke-width="0.675676"/>
<path d="M206.184 131.12L193.108 137.108L198.959 152.5H199.5L200.986 151.689L208.784 146.838L213.243 143.189L213.688 142.744C214.201 142.232 214.651 141.661 215.031 141.044L215.144 140.861C215.408 140.432 215.626 139.977 215.795 139.503L215.905 139.195C216.111 138.619 216.216 138.012 216.216 137.4C216.216 136.76 216.101 136.126 215.876 135.526L215.735 135.148C215.516 134.565 215.226 134.011 214.872 133.499L214.847 133.464C214.411 132.834 213.885 132.27 213.286 131.791L212.816 131.415C212.384 131.069 211.893 130.802 211.368 130.627C210.821 130.445 210.245 130.365 209.67 130.391L209.088 130.417C208.084 130.463 207.098 130.702 206.184 131.12Z" fill="url(#paint5_linear)" stroke="black" stroke-width="0.5"/>
<path d="M202.153 145.285C202.434 147.478 202.122 149.27 201.323 150.496C200.541 151.697 199.246 152.424 197.378 152.424C195.55 152.424 193.58 151.352 192.05 149.651C190.524 147.956 189.5 145.706 189.5 143.465C189.5 141.147 190.011 139.827 190.678 139.011C191.34 138.2 192.211 137.815 193.13 137.484C195.097 137.13 197.184 137.861 198.881 139.312C200.586 140.769 201.849 142.918 202.153 145.285ZM218.189 134.681C219.676 139.951 214.946 145.356 209.946 144.816C205.916 144.816 201.838 139.728 201.838 134.951C201.838 130.175 205.216 127.789 207.919 127.113C212.243 126.302 217.378 129.951 218.189 134.681Z" fill="url(#paint6_radial)"/>
<path d="M202.153 145.285C202.434 147.478 202.122 149.27 201.323 150.496C200.541 151.697 199.246 152.424 197.378 152.424C195.55 152.424 193.58 151.352 192.05 149.651C190.524 147.956 189.5 145.706 189.5 143.465C189.5 141.147 190.011 139.827 190.678 139.011C191.34 138.2 192.211 137.815 193.13 137.484C195.097 137.13 197.184 137.861 198.881 139.312C200.586 140.769 201.849 142.918 202.153 145.285ZM218.189 134.681C219.676 139.951 214.946 145.356 209.946 144.816C205.916 144.816 201.838 139.728 201.838 134.951C201.838 130.175 205.216 127.789 207.919 127.113C212.243 126.302 217.378 129.951 218.189 134.681Z" stroke="black"/>
<path d="M202.153 145.285C202.434 147.478 202.122 149.27 201.323 150.496C200.541 151.697 199.246 152.424 197.378 152.424C195.55 152.424 193.58 151.352 192.05 149.651C190.524 147.956 189.5 145.706 189.5 143.465C189.5 141.147 190.011 139.827 190.678 139.011C191.34 138.2 192.211 137.815 193.13 137.484C195.097 137.13 197.184 137.861 198.881 139.312C200.586 140.769 201.849 142.918 202.153 145.285ZM218.189 134.681C219.676 139.951 214.946 145.356 209.946 144.816C205.916 144.816 201.838 139.728 201.838 134.951C201.838 130.175 205.216 127.789 207.919 127.113C212.243 126.302 217.378 129.951 218.189 134.681Z" stroke="url(#paint7_linear)"/>
<rect x="216.233" y="138.447" width="3.92727" height="1.15135" transform="rotate(15.106 216.233 138.447)" fill="url(#paint8_linear)" stroke="black" stroke-width="0.2"/>
<defs>
<radialGradient id="paint0_radial" cx="0" cy="0" r="1" gradientUnits="userSpaceOnUse" gradientTransform="translate(157.5 157.5) rotate(90) scale(157.5 165.376)">
<stop offset="0.651042" stop-color="white"/>
<stop offset="1" stop-color="white" stop-opacity="0"/>
</radialGradient>
<linearGradient id="paint1_linear" x1="225.135" y1="126.162" x2="225.135" y2="155.081" gradientUnits="userSpaceOnUse">
<stop stop-color="#1251FF"/>
<stop offset="1" stop-color="#002FAF"/>
</linearGradient>
<linearGradient id="paint2_linear" x1="195.068" y1="124" x2="195.068" y2="148.595" gradientUnits="userSpaceOnUse">
<stop stop-color="#1251FF"/>
<stop offset="1" stop-color="#002FAF"/>
</linearGradient>
<radialGradient id="paint3_radial" cx="0" cy="0" r="1" gradientUnits="userSpaceOnUse" gradientTransform="translate(210 137.514) rotate(-29.0546) scale(9.73911 9.07125)">
<stop offset="0.315633" stop-color="#56555A" stop-opacity="0.59"/>
<stop offset="0.882685" stop-color="#595B5F"/>
</radialGradient>
<linearGradient id="paint4_linear" x1="203.537" y1="132.147" x2="203.537" y2="133.498" gradientUnits="userSpaceOnUse">
<stop stop-color="#FAFAFA"/>
<stop offset="1" stop-color="#989898"/>
</linearGradient>
<linearGradient id="paint5_linear" x1="204.662" y1="130.351" x2="204.662" y2="152.5" gradientUnits="userSpaceOnUse">
<stop stop-color="#FAFAFA"/>
<stop offset="1" stop-color="#989898"/>
</linearGradient>
<radialGradient id="paint6_radial" cx="0" cy="0" r="1" gradientUnits="userSpaceOnUse" gradientTransform="translate(193.054 140.086) rotate(62.9595) scale(14.5652 16.9353)">
<stop/>
<stop offset="1" stop-color="#2F2F2F"/>
</radialGradient>
<linearGradient id="paint7_linear" x1="187.649" y1="127.113" x2="203.733" y2="152.924" gradientUnits="userSpaceOnUse">
<stop stop-color="#D6D6D6"/>
<stop offset="1" stop-color="#676767"/>
</linearGradient>
<linearGradient id="paint8_linear" x1="218.227" y1="138.324" x2="218.227" y2="139.676" gradientUnits="userSpaceOnUse">
<stop stop-color="#FAFAFA"/>
<stop offset="1" stop-color="#989898"/>
</linearGradient>
</defs>
</svg>
