<svg width="183" height="164" viewBox="0 0 183 164" fill="none" xmlns="http://www.w3.org/2000/svg">
<path d="M75.6997 20.5157L75.9474 20.5136L76.0958 20.3153L89.3709 2.56895C89.9918 1.73899 91.2472 1.7738 91.8211 2.63691L103.561 20.2926L103.708 20.5136L103.973 20.5157L168.118 21.0398C176.08 21.1048 182.5 27.5774 182.5 35.5393V149C182.5 157.008 176.008 163.5 168 163.5H15C6.99187 163.5 0.5 157.008 0.5 149V35.5339C0.5 27.5741 6.91675 21.1024 14.8763 21.0345L75.6997 20.5157Z" fill="#EDEDED" stroke="black"/>
<path d="M72.676 37.92L74.174 42.75L77.394 37.92H80.04L78.262 48H75.728L76.736 42.316L74.58 45.704H72.746L71.794 42.316L70.786 48H68.266L70.044 37.92H72.676ZM86.8642 45.844C86.8642 46.0867 86.9856 46.208 87.2282 46.208C87.4802 46.208 87.6902 46.1613 87.8582 46.068L87.7882 47.65C87.3402 48.014 86.8362 48.196 86.2762 48.196C85.2496 48.196 84.6802 47.8227 84.5682 47.076C84.1016 47.8227 83.4156 48.196 82.5102 48.196C80.9796 48.196 80.2142 47.538 80.2142 46.222C80.2142 45.998 80.2376 45.7507 80.2842 45.48L80.5782 43.842C80.7276 43.002 81.0682 42.3347 81.6002 41.84C82.1416 41.336 82.8416 41.084 83.7002 41.084C84.5682 41.084 85.1562 41.2847 85.4642 41.686L85.5342 41.266H87.6622L86.8782 45.676C86.8689 45.732 86.8642 45.788 86.8642 45.844ZM82.7202 45.172C82.7016 45.256 82.6922 45.3727 82.6922 45.522C82.6922 45.6713 82.7622 45.8207 82.9022 45.97C83.0422 46.11 83.2756 46.18 83.6022 46.18C83.9382 46.18 84.2276 46.0493 84.4702 45.788L84.8902 43.436C84.7876 43.2027 84.5449 43.086 84.1622 43.086C83.4436 43.086 83.0236 43.4313 82.9022 44.122L82.7202 45.172ZM95.5101 42.694C95.5101 43.0113 95.4541 43.3193 95.3421 43.618C95.2394 43.9167 95.1368 44.136 95.0341 44.276L94.8801 44.472H92.7661C92.9994 44.2573 93.1161 43.9913 93.1161 43.674C93.1161 43.506 93.0601 43.3707 92.9481 43.268C92.8454 43.156 92.7008 43.1 92.5141 43.1C92.1968 43.1 91.9214 43.2587 91.6881 43.576L90.9041 48H88.5241L89.7141 41.266H91.9261L91.7581 42.204C92.2901 41.448 92.9341 41.07 93.6901 41.07C94.2968 41.07 94.7494 41.2147 95.0481 41.504C95.3561 41.7933 95.5101 42.19 95.5101 42.694ZM98.9075 48.196C97.8248 48.196 97.0455 47.9533 96.5695 47.468C96.2148 47.1133 96.0375 46.6373 96.0375 46.04C96.0375 45.844 96.0562 45.634 96.0935 45.41L97.0455 39.992L99.6075 38.928L99.2015 41.266H103.066L102.716 43.24H98.8515L98.5715 44.822C98.5342 44.9993 98.5155 45.158 98.5155 45.298C98.5155 45.886 98.7955 46.18 99.3555 46.18C99.6542 46.18 99.9015 46.054 100.098 45.802C100.303 45.55 100.443 45.214 100.518 44.794H102.842C102.45 47.062 101.138 48.196 98.9075 48.196ZM106.423 48.196C104.482 48.196 103.511 47.524 103.511 46.18C103.511 45.9933 103.53 45.7927 103.567 45.578L103.861 43.842C104.02 42.946 104.43 42.26 105.093 41.784C105.765 41.2987 106.652 41.056 107.753 41.056C109.629 41.056 110.567 41.7653 110.567 43.184C110.567 43.3893 110.548 43.6133 110.511 43.856L110.343 44.85H106.073L106.017 45.172C105.998 45.284 105.989 45.3867 105.989 45.48C105.989 45.9933 106.292 46.25 106.899 46.25C107.123 46.25 107.314 46.18 107.473 46.04C107.632 45.9 107.725 45.7367 107.753 45.55L110.077 45.578C109.769 47.3233 108.551 48.196 106.423 48.196ZM108.103 43.996C108.14 43.8373 108.159 43.6927 108.159 43.562C108.159 43.422 108.098 43.282 107.977 43.142C107.856 43.002 107.66 42.932 107.389 42.932C107.128 42.932 106.885 43.0207 106.661 43.198C106.446 43.3753 106.297 43.6413 106.213 43.996H108.103Z" fill="#414141"/>
<path d="M21.2209 58.876C21.2769 58.876 21.4049 58.876 21.6049 58.876C21.8049 58.868 22.0289 58.864 22.2769 58.864C22.5249 58.864 22.7729 58.864 23.0209 58.864C23.2689 58.856 23.4729 58.852 23.6329 58.852C24.6089 58.852 25.3289 59.072 25.7929 59.512C26.2569 59.944 26.4889 60.54 26.4889 61.3C26.4889 61.668 26.4249 62.008 26.2969 62.32C26.1689 62.624 25.9769 62.888 25.7209 63.112C25.4729 63.336 25.1609 63.512 24.7849 63.64C24.4169 63.76 23.9849 63.82 23.4889 63.82H22.6489V67H21.2209V58.876ZM22.6489 62.752H23.5729C24.0769 62.752 24.4369 62.62 24.6529 62.356C24.8689 62.092 24.9769 61.756 24.9769 61.348C24.9769 61.164 24.9529 60.984 24.9049 60.808C24.8569 60.632 24.7729 60.476 24.6529 60.34C24.5409 60.196 24.3849 60.084 24.1849 60.004C23.9929 59.916 23.7489 59.872 23.4529 59.872C23.2769 59.872 23.1209 59.872 22.9849 59.872C22.8569 59.872 22.7449 59.876 22.6489 59.884V62.752ZM31.8677 64.108C31.8677 64.588 31.8957 64.992 31.9517 65.32C32.0157 65.64 32.0837 65.9 32.1557 66.1C32.2437 66.34 32.3397 66.528 32.4437 66.664L31.3757 67.096C31.2717 66.992 31.1757 66.868 31.0877 66.724C31.0157 66.596 30.9477 66.444 30.8837 66.268C30.8197 66.084 30.7797 65.868 30.7637 65.62C30.6277 66.1 30.4077 66.464 30.1037 66.712C29.8077 66.952 29.4037 67.072 28.8917 67.072C28.5157 67.072 28.1877 67.004 27.9077 66.868C27.6357 66.724 27.4077 66.524 27.2237 66.268C27.0397 66.004 26.9037 65.688 26.8157 65.32C26.7277 64.952 26.6837 64.544 26.6837 64.096C26.6837 63.64 26.7517 63.22 26.8877 62.836C27.0317 62.444 27.2277 62.108 27.4757 61.828C27.7317 61.548 28.0357 61.328 28.3877 61.168C28.7397 61.008 29.1277 60.928 29.5517 60.928C29.7917 60.928 30.0397 60.948 30.2957 60.988C30.5597 61.02 30.8037 61.056 31.0277 61.096C31.2517 61.136 31.4397 61.176 31.5917 61.216C31.7517 61.248 31.8437 61.268 31.8677 61.276V64.108ZM29.1197 66.112C29.3197 66.112 29.5037 66.044 29.6717 65.908C29.8397 65.772 29.9837 65.596 30.1037 65.38C30.2317 65.156 30.3277 64.904 30.3917 64.624C30.4637 64.336 30.4997 64.044 30.4997 63.748V62.02C30.4197 61.996 30.2997 61.968 30.1397 61.936C29.9797 61.904 29.8357 61.888 29.7077 61.888C29.4037 61.888 29.1517 61.94 28.9517 62.044C28.7597 62.148 28.6037 62.292 28.4837 62.476C28.3637 62.66 28.2797 62.88 28.2317 63.136C28.1837 63.392 28.1597 63.672 28.1597 63.976C28.1597 64.256 28.1677 64.524 28.1837 64.78C28.1997 65.036 28.2397 65.264 28.3037 65.464C28.3757 65.664 28.4757 65.824 28.6037 65.944C28.7317 66.056 28.9037 66.112 29.1197 66.112ZM35.9189 62.272C35.7749 62.272 35.6309 62.308 35.4869 62.38C35.3429 62.452 35.2149 62.552 35.1029 62.68C34.9909 62.8 34.8989 62.948 34.8269 63.124C34.7549 63.3 34.7189 63.496 34.7189 63.712V67H33.3509V63.976C33.3509 63.496 33.3189 63.096 33.2549 62.776C33.1909 62.448 33.1229 62.184 33.0509 61.984C32.9629 61.752 32.8669 61.564 32.7629 61.42L33.8429 60.988C33.9149 61.076 33.9909 61.184 34.0709 61.312C34.1349 61.424 34.1989 61.556 34.2629 61.708C34.3269 61.86 34.3789 62.04 34.4189 62.248C34.5789 61.784 34.8109 61.452 35.1149 61.252C35.4189 61.044 35.7629 60.94 36.1469 60.94C36.3309 60.94 36.5029 60.964 36.6629 61.012C36.8229 61.052 36.8989 61.072 36.8909 61.072L36.5069 62.404C36.5149 62.404 36.4669 62.384 36.3629 62.344C36.2669 62.296 36.1189 62.272 35.9189 62.272ZM42.1333 64.108C42.1333 64.588 42.1613 64.992 42.2173 65.32C42.2813 65.64 42.3493 65.9 42.4213 66.1C42.5093 66.34 42.6053 66.528 42.7093 66.664L41.6413 67.096C41.5373 66.992 41.4413 66.868 41.3533 66.724C41.2813 66.596 41.2133 66.444 41.1493 66.268C41.0853 66.084 41.0453 65.868 41.0293 65.62C40.8933 66.1 40.6733 66.464 40.3693 66.712C40.0733 66.952 39.6693 67.072 39.1573 67.072C38.7813 67.072 38.4533 67.004 38.1733 66.868C37.9013 66.724 37.6733 66.524 37.4893 66.268C37.3053 66.004 37.1693 65.688 37.0813 65.32C36.9933 64.952 36.9493 64.544 36.9493 64.096C36.9493 63.64 37.0173 63.22 37.1533 62.836C37.2973 62.444 37.4933 62.108 37.7413 61.828C37.9973 61.548 38.3013 61.328 38.6533 61.168C39.0053 61.008 39.3933 60.928 39.8173 60.928C40.0573 60.928 40.3053 60.948 40.5613 60.988C40.8253 61.02 41.0693 61.056 41.2933 61.096C41.5173 61.136 41.7053 61.176 41.8573 61.216C42.0173 61.248 42.1093 61.268 42.1333 61.276V64.108ZM39.3853 66.112C39.5853 66.112 39.7693 66.044 39.9373 65.908C40.1053 65.772 40.2493 65.596 40.3693 65.38C40.4973 65.156 40.5933 64.904 40.6573 64.624C40.7293 64.336 40.7653 64.044 40.7653 63.748V62.02C40.6853 61.996 40.5653 61.968 40.4053 61.936C40.2453 61.904 40.1013 61.888 39.9733 61.888C39.6693 61.888 39.4173 61.94 39.2173 62.044C39.0253 62.148 38.8693 62.292 38.7493 62.476C38.6293 62.66 38.5453 62.88 38.4973 63.136C38.4493 63.392 38.4253 63.672 38.4253 63.976C38.4253 64.256 38.4333 64.524 38.4493 64.78C38.4653 65.036 38.5053 65.264 38.5693 65.464C38.6413 65.664 38.7413 65.824 38.8693 65.944C38.9973 66.056 39.1693 66.112 39.3853 66.112ZM51.6495 61.024L51.6735 61.12C51.6815 61.192 51.6935 61.288 51.7095 61.408C51.7255 61.52 51.7375 61.652 51.7455 61.804C51.7615 61.948 51.7695 62.096 51.7695 62.248C51.7695 63.136 51.7015 63.888 51.5655 64.504C51.4375 65.112 51.2375 65.608 50.9655 65.992C50.7015 66.368 50.3615 66.64 49.9455 66.808C49.5375 66.976 49.0535 67.06 48.4935 67.06C47.8615 67.06 47.4095 66.88 47.1375 66.52C46.8735 66.152 46.7415 65.648 46.7415 65.008V61.024H48.1095V64.972C48.1095 65.308 48.1695 65.58 48.2895 65.788C48.4095 65.996 48.6135 66.1 48.9015 66.1C49.1895 66.1 49.4295 65.992 49.6215 65.776C49.8135 65.56 49.9655 65.28 50.0775 64.936C50.1895 64.584 50.2695 64.188 50.3175 63.748C50.3655 63.3 50.3895 62.848 50.3895 62.392C50.3895 62.224 50.3815 62.06 50.3655 61.9C50.3575 61.732 50.3415 61.584 50.3175 61.456C50.3015 61.328 50.2895 61.224 50.2815 61.144L50.2575 61.024H51.6495ZM54.3545 67.048C53.9305 67.048 53.6065 66.924 53.3825 66.676C53.1585 66.42 53.0465 66.092 53.0465 65.692V61.024H54.4145V65.572C54.4145 65.756 54.4425 65.88 54.4985 65.944C54.5545 66.008 54.6385 66.04 54.7505 66.04C54.7825 66.04 54.8145 66.04 54.8465 66.04C54.8865 66.04 54.9225 66.036 54.9545 66.028C54.9865 66.028 55.0225 66.024 55.0625 66.016L55.2065 66.88C55.1505 66.912 55.0785 66.94 54.9905 66.964C54.9185 66.988 54.8265 67.008 54.7145 67.024C54.6105 67.04 54.4905 67.048 54.3545 67.048ZM53.7545 58.36C54.0105 58.36 54.2065 58.436 54.3425 58.588C54.4785 58.74 54.5465 58.936 54.5465 59.176C54.5465 59.416 54.4745 59.616 54.3305 59.776C54.1945 59.936 53.9905 60.016 53.7185 60.016C53.4625 60.016 53.2625 59.94 53.1185 59.788C52.9825 59.628 52.9145 59.436 52.9145 59.212C52.9145 58.964 52.9825 58.76 53.1185 58.6C53.2625 58.44 53.4745 58.36 53.7545 58.36ZM57.9288 60.88C58.1608 60.88 58.3888 60.904 58.6128 60.952C58.8368 61 59.0368 61.056 59.2128 61.12C59.4208 61.192 59.6128 61.268 59.7888 61.348L59.3808 62.284C59.2208 62.212 59.0608 62.148 58.9008 62.092C58.7648 62.044 58.6128 62 58.4448 61.96C58.2848 61.912 58.1248 61.888 57.9648 61.888C57.7808 61.888 57.6208 61.932 57.4848 62.02C57.3568 62.108 57.2928 62.24 57.2928 62.416C57.2928 62.872 57.6248 63.228 58.2888 63.484C58.5368 63.58 58.7608 63.684 58.9608 63.796C59.1608 63.9 59.3288 64.024 59.4648 64.168C59.6088 64.312 59.7168 64.48 59.7888 64.672C59.8608 64.856 59.8968 65.076 59.8968 65.332C59.8968 65.556 59.8488 65.776 59.7528 65.992C59.6648 66.208 59.5288 66.4 59.3448 66.568C59.1688 66.736 58.9488 66.872 58.6848 66.976C58.4288 67.072 58.1368 67.12 57.8088 67.12C57.5448 67.12 57.2848 67.088 57.0288 67.024C56.7728 66.968 56.5408 66.904 56.3328 66.832C56.1328 66.76 55.9728 66.692 55.8528 66.628L55.6728 66.544L56.1168 65.536L56.2728 65.62C56.3768 65.684 56.5088 65.752 56.6688 65.824C56.8288 65.896 57.0008 65.964 57.1848 66.028C57.3688 66.084 57.5368 66.112 57.6888 66.112C57.9688 66.112 58.1768 66.056 58.3128 65.944C58.4488 65.832 58.5168 65.684 58.5168 65.5C58.5168 65.292 58.4408 65.104 58.2888 64.936C58.1448 64.76 57.9248 64.616 57.6288 64.504C57.0128 64.272 56.5688 64.008 56.2968 63.712C56.0328 63.416 55.9008 63.032 55.9008 62.56C55.9008 62.336 55.9528 62.124 56.0568 61.924C56.1608 61.716 56.3008 61.536 56.4768 61.384C56.6608 61.224 56.8768 61.1 57.1248 61.012C57.3728 60.924 57.6408 60.88 57.9288 60.88ZM62.3701 67.048C61.9461 67.048 61.6221 66.924 61.3981 66.676C61.1741 66.42 61.0621 66.092 61.0621 65.692V61.024H62.4301V65.572C62.4301 65.756 62.4581 65.88 62.5141 65.944C62.5701 66.008 62.6541 66.04 62.7661 66.04C62.7981 66.04 62.8301 66.04 62.8621 66.04C62.9021 66.04 62.9381 66.036 62.9701 66.028C63.0021 66.028 63.0381 66.024 63.0781 66.016L63.2221 66.88C63.1661 66.912 63.0941 66.94 63.0061 66.964C62.9341 66.988 62.8421 67.008 62.7301 67.024C62.6261 67.04 62.5061 67.048 62.3701 67.048ZM61.7701 58.36C62.0261 58.36 62.2221 58.436 62.3581 58.588C62.4941 58.74 62.5621 58.936 62.5621 59.176C62.5621 59.416 62.4901 59.616 62.3461 59.776C62.2101 59.936 62.0061 60.016 61.7341 60.016C61.4781 60.016 61.2781 59.94 61.1341 59.788C60.9981 59.628 60.9301 59.436 60.9301 59.212C60.9301 58.964 60.9981 58.76 61.1341 58.6C61.2781 58.44 61.4901 58.36 61.7701 58.36ZM63.4735 61.024H64.5535L64.7935 59.62L65.9215 59.368V61.024H67.3975L67.2295 61.996H65.9215V65.548C65.9215 65.756 65.9775 65.892 66.0895 65.956C66.2015 66.012 66.3255 66.04 66.4615 66.04C66.5735 66.04 66.6855 66.032 66.7975 66.016C66.9095 66 67.0095 65.98 67.0975 65.956C67.2015 65.932 67.3015 65.904 67.3975 65.872L67.6255 66.772L67.5175 66.808C67.4455 66.84 67.3375 66.876 67.1935 66.916C67.0575 66.948 66.8935 66.976 66.7015 67C66.5175 67.032 66.3135 67.048 66.0895 67.048C65.8655 67.048 65.6575 67.024 65.4655 66.976C65.2815 66.928 65.1215 66.852 64.9855 66.748C64.8495 66.636 64.7415 66.496 64.6615 66.328C64.5895 66.16 64.5535 65.952 64.5535 65.704V61.996H63.4735V61.024ZM73.1177 64.108C73.1177 64.588 73.1457 64.992 73.2017 65.32C73.2657 65.64 73.3337 65.9 73.4057 66.1C73.4937 66.34 73.5897 66.528 73.6937 66.664L72.6257 67.096C72.5217 66.992 72.4257 66.868 72.3377 66.724C72.2657 66.596 72.1977 66.444 72.1337 66.268C72.0697 66.084 72.0297 65.868 72.0137 65.62C71.8777 66.1 71.6577 66.464 71.3537 66.712C71.0577 66.952 70.6537 67.072 70.1417 67.072C69.7657 67.072 69.4377 67.004 69.1577 66.868C68.8857 66.724 68.6577 66.524 68.4737 66.268C68.2897 66.004 68.1537 65.688 68.0657 65.32C67.9777 64.952 67.9337 64.544 67.9337 64.096C67.9337 63.64 68.0017 63.22 68.1377 62.836C68.2817 62.444 68.4777 62.108 68.7257 61.828C68.9817 61.548 69.2857 61.328 69.6377 61.168C69.9897 61.008 70.3777 60.928 70.8017 60.928C71.0417 60.928 71.2897 60.948 71.5457 60.988C71.8097 61.02 72.0537 61.056 72.2777 61.096C72.5017 61.136 72.6897 61.176 72.8417 61.216C73.0017 61.248 73.0937 61.268 73.1177 61.276V64.108ZM70.3697 66.112C70.5697 66.112 70.7537 66.044 70.9217 65.908C71.0897 65.772 71.2337 65.596 71.3537 65.38C71.4817 65.156 71.5777 64.904 71.6417 64.624C71.7137 64.336 71.7497 64.044 71.7497 63.748V62.02C71.6697 61.996 71.5497 61.968 71.3897 61.936C71.2297 61.904 71.0857 61.888 70.9577 61.888C70.6537 61.888 70.4017 61.94 70.2017 62.044C70.0097 62.148 69.8537 62.292 69.7337 62.476C69.6137 62.66 69.5297 62.88 69.4817 63.136C69.4337 63.392 69.4097 63.672 69.4097 63.976C69.4097 64.256 69.4177 64.524 69.4337 64.78C69.4497 65.036 69.4897 65.264 69.5537 65.464C69.6257 65.664 69.7257 65.824 69.8537 65.944C69.9817 66.056 70.1537 66.112 70.3697 66.112ZM77.1689 62.272C77.0249 62.272 76.8809 62.308 76.7369 62.38C76.5929 62.452 76.4649 62.552 76.3529 62.68C76.2409 62.8 76.1489 62.948 76.0769 63.124C76.0049 63.3 75.9689 63.496 75.9689 63.712V67H74.6009V63.976C74.6009 63.496 74.5689 63.096 74.5049 62.776C74.4409 62.448 74.3729 62.184 74.3009 61.984C74.2129 61.752 74.1169 61.564 74.0129 61.42L75.0929 60.988C75.1649 61.076 75.2409 61.184 75.3209 61.312C75.3849 61.424 75.4489 61.556 75.5129 61.708C75.5769 61.86 75.6289 62.04 75.6689 62.248C75.8289 61.784 76.0609 61.452 76.3649 61.252C76.6689 61.044 77.0129 60.94 77.3969 60.94C77.5809 60.94 77.7529 60.964 77.9129 61.012C78.0729 61.052 78.1489 61.072 78.1409 61.072L77.7569 62.404C77.7649 62.404 77.7169 62.384 77.6129 62.344C77.5169 62.296 77.3689 62.272 77.1689 62.272ZM86.8292 61.024L86.8532 61.12C86.8612 61.192 86.8732 61.288 86.8892 61.408C86.9052 61.52 86.9172 61.652 86.9252 61.804C86.9412 61.948 86.9492 62.096 86.9492 62.248C86.9492 63.136 86.8812 63.888 86.7452 64.504C86.6172 65.112 86.4172 65.608 86.1452 65.992C85.8812 66.368 85.5412 66.64 85.1252 66.808C84.7172 66.976 84.2332 67.06 83.6732 67.06C83.0412 67.06 82.5892 66.88 82.3172 66.52C82.0532 66.152 81.9212 65.648 81.9212 65.008V61.024H83.2892V64.972C83.2892 65.308 83.3492 65.58 83.4692 65.788C83.5892 65.996 83.7932 66.1 84.0812 66.1C84.3692 66.1 84.6092 65.992 84.8012 65.776C84.9932 65.56 85.1452 65.28 85.2572 64.936C85.3692 64.584 85.4492 64.188 85.4972 63.748C85.5452 63.3 85.5692 62.848 85.5692 62.392C85.5692 62.224 85.5612 62.06 85.5452 61.9C85.5372 61.732 85.5212 61.584 85.4972 61.456C85.4812 61.328 85.4692 61.224 85.4612 61.144L85.4372 61.024H86.8292ZM90.6501 60.88C91.5701 60.88 92.2381 61.152 92.6541 61.696C93.0701 62.24 93.2781 62.988 93.2781 63.94C93.2781 64.388 93.2221 64.808 93.1101 65.2C92.9981 65.584 92.8261 65.92 92.5941 66.208C92.3701 66.488 92.0861 66.712 91.7421 66.88C91.3981 67.04 90.9981 67.12 90.5421 67.12C90.0861 67.12 89.6901 67.052 89.3541 66.916C89.0261 66.772 88.7541 66.568 88.5381 66.304C88.3221 66.04 88.1621 65.72 88.0581 65.344C87.9621 64.968 87.9141 64.544 87.9141 64.072C87.9141 63.616 87.9701 63.196 88.0821 62.812C88.1941 62.42 88.3621 62.084 88.5861 61.804C88.8181 61.516 89.1061 61.292 89.4501 61.132C89.7941 60.964 90.1941 60.88 90.6501 60.88ZM90.5301 61.888C90.2981 61.888 90.1061 61.94 89.9541 62.044C89.8101 62.148 89.6941 62.296 89.6061 62.488C89.5261 62.672 89.4701 62.892 89.4381 63.148C89.4061 63.396 89.3901 63.664 89.3901 63.952C89.3901 64.248 89.4061 64.528 89.4381 64.792C89.4781 65.056 89.5461 65.288 89.6421 65.488C89.7381 65.68 89.8661 65.832 90.0261 65.944C90.1941 66.056 90.4061 66.112 90.6621 66.112C90.8941 66.112 91.0821 66.06 91.2261 65.956C91.3781 65.852 91.4941 65.708 91.5741 65.524C91.6621 65.332 91.7221 65.112 91.7541 64.864C91.7861 64.616 91.8021 64.348 91.8021 64.06C91.8021 63.764 91.7821 63.484 91.7421 63.22C91.7101 62.956 91.6461 62.724 91.5501 62.524C91.4541 62.324 91.3221 62.168 91.1541 62.056C90.9941 61.944 90.7861 61.888 90.5301 61.888ZM97.7134 62.428C97.5934 62.292 97.4694 62.176 97.3414 62.08C97.2214 61.984 97.0574 61.936 96.8494 61.936C96.7294 61.936 96.5934 61.956 96.4414 61.996C96.2974 62.028 96.1614 62.116 96.0334 62.26C95.9054 62.396 95.7974 62.6 95.7094 62.872C95.6294 63.144 95.5894 63.512 95.5894 63.976C95.5894 64.448 95.6294 64.824 95.7094 65.104C95.7974 65.376 95.9054 65.588 96.0334 65.74C96.1694 65.892 96.3134 65.992 96.4654 66.04C96.6174 66.08 96.7654 66.1 96.9094 66.1C97.0214 66.1 97.1374 66.092 97.2574 66.076C97.3774 66.052 97.4934 66.028 97.6054 66.004C97.7174 65.972 97.8134 65.944 97.8934 65.92C97.9814 65.896 98.0454 65.876 98.0854 65.86L98.4214 66.724C98.3974 66.732 98.3414 66.756 98.2534 66.796C98.1734 66.836 98.0614 66.876 97.9174 66.916C97.7734 66.956 97.6014 66.992 97.4014 67.024C97.2014 67.064 96.9774 67.084 96.7294 67.084C96.2654 67.084 95.8694 67.016 95.5414 66.88C95.2134 66.736 94.9414 66.536 94.7254 66.28C94.5174 66.024 94.3614 65.716 94.2574 65.356C94.1614 64.996 94.1134 64.596 94.1134 64.156C94.1134 63.628 94.1814 63.16 94.3174 62.752C94.4614 62.344 94.6574 62.004 94.9054 61.732C95.1534 61.452 95.4454 61.24 95.7814 61.096C96.1174 60.952 96.4774 60.88 96.8614 60.88C97.2374 60.88 97.5534 60.952 97.8094 61.096C98.0734 61.24 98.2974 61.44 98.4814 61.696L97.7134 62.428ZM98.918 64.156C98.918 63.62 98.99 63.148 99.134 62.74C99.286 62.332 99.49 61.992 99.746 61.72C100.01 61.44 100.318 61.232 100.67 61.096C101.022 60.952 101.402 60.88 101.81 60.88C102.17 60.88 102.474 60.924 102.722 61.012C102.978 61.1 103.186 61.22 103.346 61.372C103.506 61.524 103.622 61.704 103.694 61.912C103.774 62.12 103.814 62.344 103.814 62.584C103.814 62.872 103.734 63.148 103.574 63.412C103.414 63.668 103.182 63.896 102.878 64.096C102.582 64.288 102.222 64.444 101.798 64.564C101.374 64.676 100.898 64.736 100.37 64.744C100.394 64.928 100.43 65.104 100.478 65.272C100.534 65.432 100.61 65.576 100.706 65.704C100.81 65.824 100.942 65.92 101.102 65.992C101.262 66.064 101.462 66.1 101.702 66.1C101.878 66.1 102.066 66.08 102.266 66.04C102.466 66 102.65 65.952 102.818 65.896C103.018 65.832 103.214 65.76 103.406 65.68L103.766 66.532C103.558 66.636 103.334 66.728 103.094 66.808C102.886 66.88 102.646 66.944 102.374 67C102.102 67.056 101.814 67.084 101.51 67.084C101.046 67.084 100.65 67.016 100.322 66.88C99.994 66.736 99.726 66.536 99.518 66.28C99.31 66.024 99.158 65.716 99.062 65.356C98.966 64.996 98.918 64.596 98.918 64.156ZM101.702 61.816C101.438 61.816 101.218 61.88 101.042 62.008C100.874 62.128 100.738 62.288 100.634 62.488C100.53 62.68 100.454 62.9 100.406 63.148C100.366 63.388 100.342 63.632 100.334 63.88C100.718 63.864 101.042 63.816 101.306 63.736C101.578 63.648 101.798 63.544 101.966 63.424C102.134 63.296 102.254 63.16 102.326 63.016C102.406 62.872 102.446 62.728 102.446 62.584C102.446 62.352 102.378 62.168 102.242 62.032C102.106 61.888 101.926 61.816 101.702 61.816ZM99.41 59.896L101.666 57.652L103.91 59.896L103.394 60.544L103.262 60.46C103.166 60.404 103.034 60.324 102.866 60.22C102.706 60.108 102.522 59.976 102.314 59.824C102.106 59.664 101.89 59.488 101.666 59.296C101.434 59.496 101.21 59.672 100.994 59.824C100.786 59.976 100.602 60.108 100.442 60.22C100.282 60.324 100.158 60.404 100.07 60.46L99.926 60.544L99.41 59.896ZM108.117 69.652V63.976C108.117 63.496 108.085 63.096 108.021 62.776C107.957 62.448 107.889 62.184 107.817 61.984C107.729 61.752 107.633 61.564 107.529 61.42L108.609 60.988C108.705 61.084 108.793 61.204 108.873 61.348C108.937 61.468 109.001 61.616 109.065 61.792C109.129 61.96 109.177 62.16 109.209 62.392C109.345 61.912 109.561 61.548 109.857 61.3C110.153 61.052 110.565 60.928 111.093 60.928C111.469 60.928 111.793 61 112.065 61.144C112.345 61.28 112.573 61.48 112.749 61.744C112.933 62 113.069 62.312 113.157 62.68C113.245 63.048 113.289 63.456 113.289 63.904C113.289 64.36 113.221 64.784 113.085 65.176C112.949 65.56 112.753 65.892 112.497 66.172C112.249 66.452 111.949 66.672 111.597 66.832C111.245 66.992 110.853 67.072 110.421 67.072C110.269 67.072 110.113 67.064 109.953 67.048C109.801 67.032 109.645 67.016 109.485 67V69.412L108.117 69.652ZM110.865 61.888C110.665 61.888 110.481 61.956 110.313 62.092C110.145 62.228 109.997 62.408 109.869 62.632C109.749 62.856 109.653 63.108 109.581 63.388C109.517 63.668 109.485 63.956 109.485 64.252V65.98C109.565 66.004 109.685 66.032 109.845 66.064C110.005 66.096 110.145 66.112 110.265 66.112C110.569 66.112 110.821 66.06 111.021 65.956C111.221 65.852 111.381 65.708 111.501 65.524C111.621 65.34 111.705 65.12 111.753 64.864C111.801 64.608 111.825 64.328 111.825 64.024C111.825 63.744 111.817 63.476 111.801 63.22C111.785 62.964 111.741 62.736 111.669 62.536C111.605 62.336 111.509 62.18 111.381 62.068C111.253 61.948 111.081 61.888 110.865 61.888ZM117.177 62.272C117.033 62.272 116.889 62.308 116.745 62.38C116.601 62.452 116.473 62.552 116.361 62.68C116.249 62.8 116.157 62.948 116.085 63.124C116.013 63.3 115.977 63.496 115.977 63.712V67H114.609V63.976C114.609 63.496 114.577 63.096 114.513 62.776C114.449 62.448 114.381 62.184 114.309 61.984C114.221 61.752 114.125 61.564 114.021 61.42L115.101 60.988C115.173 61.076 115.249 61.184 115.329 61.312C115.393 61.424 115.457 61.556 115.521 61.708C115.585 61.86 115.637 62.04 115.677 62.248C115.837 61.784 116.069 61.452 116.373 61.252C116.677 61.044 117.021 60.94 117.405 60.94C117.589 60.94 117.761 60.964 117.921 61.012C118.081 61.052 118.157 61.072 118.149 61.072L117.765 62.404C117.773 62.404 117.725 62.384 117.621 62.344C117.525 62.296 117.377 62.272 117.177 62.272ZM118.207 64.156C118.207 63.62 118.279 63.148 118.423 62.74C118.575 62.332 118.779 61.992 119.035 61.72C119.299 61.44 119.607 61.232 119.959 61.096C120.311 60.952 120.691 60.88 121.099 60.88C121.459 60.88 121.763 60.924 122.011 61.012C122.267 61.1 122.475 61.22 122.635 61.372C122.795 61.524 122.911 61.704 122.983 61.912C123.063 62.12 123.103 62.344 123.103 62.584C123.103 62.872 123.023 63.148 122.863 63.412C122.703 63.668 122.471 63.896 122.167 64.096C121.871 64.288 121.511 64.444 121.087 64.564C120.663 64.676 120.187 64.736 119.659 64.744C119.683 64.928 119.719 65.104 119.767 65.272C119.823 65.432 119.899 65.576 119.995 65.704C120.099 65.824 120.231 65.92 120.391 65.992C120.551 66.064 120.751 66.1 120.991 66.1C121.167 66.1 121.355 66.08 121.555 66.04C121.755 66 121.939 65.952 122.107 65.896C122.307 65.832 122.503 65.76 122.695 65.68L123.055 66.532C122.847 66.636 122.623 66.728 122.383 66.808C122.175 66.88 121.935 66.944 121.663 67C121.391 67.056 121.103 67.084 120.799 67.084C120.335 67.084 119.939 67.016 119.611 66.88C119.283 66.736 119.015 66.536 118.807 66.28C118.599 66.024 118.447 65.716 118.351 65.356C118.255 64.996 118.207 64.596 118.207 64.156ZM120.991 61.816C120.727 61.816 120.507 61.88 120.331 62.008C120.163 62.128 120.027 62.288 119.923 62.488C119.819 62.68 119.743 62.9 119.695 63.148C119.655 63.388 119.631 63.632 119.623 63.88C120.007 63.864 120.331 63.816 120.595 63.736C120.867 63.648 121.087 63.544 121.255 63.424C121.423 63.296 121.543 63.16 121.615 63.016C121.695 62.872 121.735 62.728 121.735 62.584C121.735 62.352 121.667 62.168 121.531 62.032C121.395 61.888 121.215 61.816 120.991 61.816ZM127.479 62.428C127.359 62.292 127.235 62.176 127.107 62.08C126.987 61.984 126.823 61.936 126.615 61.936C126.495 61.936 126.359 61.956 126.207 61.996C126.063 62.028 125.927 62.116 125.799 62.26C125.671 62.396 125.563 62.6 125.475 62.872C125.395 63.144 125.355 63.512 125.355 63.976C125.355 64.448 125.395 64.824 125.475 65.104C125.563 65.376 125.671 65.588 125.799 65.74C125.935 65.892 126.079 65.992 126.231 66.04C126.383 66.08 126.531 66.1 126.675 66.1C126.787 66.1 126.903 66.092 127.023 66.076C127.143 66.052 127.259 66.028 127.371 66.004C127.483 65.972 127.579 65.944 127.659 65.92C127.747 65.896 127.811 65.876 127.851 65.86L128.187 66.724C128.163 66.732 128.107 66.756 128.019 66.796C127.939 66.836 127.827 66.876 127.683 66.916C127.539 66.956 127.367 66.992 127.167 67.024C126.967 67.064 126.743 67.084 126.495 67.084C126.031 67.084 125.635 67.016 125.307 66.88C124.979 66.736 124.707 66.536 124.491 66.28C124.283 66.024 124.127 65.716 124.023 65.356C123.927 64.996 123.879 64.596 123.879 64.156C123.879 63.628 123.947 63.16 124.083 62.752C124.227 62.344 124.423 62.004 124.671 61.732C124.919 61.452 125.211 61.24 125.547 61.096C125.883 60.952 126.243 60.88 126.627 60.88C127.003 60.88 127.319 60.952 127.575 61.096C127.839 61.24 128.063 61.44 128.247 61.696L127.479 62.428ZM130.421 67.048C129.997 67.048 129.673 66.924 129.449 66.676C129.225 66.42 129.113 66.092 129.113 65.692V61.024H130.481V65.572C130.481 65.756 130.509 65.88 130.565 65.944C130.621 66.008 130.705 66.04 130.817 66.04C130.849 66.04 130.881 66.04 130.913 66.04C130.953 66.04 130.989 66.036 131.021 66.028C131.053 66.028 131.089 66.024 131.129 66.016L131.273 66.88C131.217 66.912 131.145 66.94 131.057 66.964C130.985 66.988 130.893 67.008 130.781 67.024C130.677 67.04 130.557 67.048 130.421 67.048ZM129.821 58.36C130.077 58.36 130.273 58.436 130.409 58.588C130.545 58.74 130.613 58.936 130.613 59.176C130.613 59.416 130.541 59.616 130.397 59.776C130.261 59.936 130.057 60.016 129.785 60.016C129.529 60.016 129.329 59.94 129.185 59.788C129.049 59.628 128.981 59.436 128.981 59.212C128.981 58.964 129.049 58.76 129.185 58.6C129.329 58.44 129.541 58.36 129.821 58.36ZM133.995 60.88C134.227 60.88 134.455 60.904 134.679 60.952C134.903 61 135.103 61.056 135.279 61.12C135.487 61.192 135.679 61.268 135.855 61.348L135.447 62.284C135.287 62.212 135.127 62.148 134.967 62.092C134.831 62.044 134.679 62 134.511 61.96C134.351 61.912 134.191 61.888 134.031 61.888C133.847 61.888 133.687 61.932 133.551 62.02C133.423 62.108 133.359 62.24 133.359 62.416C133.359 62.872 133.691 63.228 134.355 63.484C134.603 63.58 134.827 63.684 135.027 63.796C135.227 63.9 135.395 64.024 135.531 64.168C135.675 64.312 135.783 64.48 135.855 64.672C135.927 64.856 135.963 65.076 135.963 65.332C135.963 65.556 135.915 65.776 135.819 65.992C135.731 66.208 135.595 66.4 135.411 66.568C135.235 66.736 135.015 66.872 134.751 66.976C134.495 67.072 134.203 67.12 133.875 67.12C133.611 67.12 133.351 67.088 133.095 67.024C132.839 66.968 132.607 66.904 132.399 66.832C132.199 66.76 132.039 66.692 131.919 66.628L131.739 66.544L132.183 65.536L132.339 65.62C132.443 65.684 132.575 65.752 132.735 65.824C132.895 65.896 133.067 65.964 133.251 66.028C133.435 66.084 133.603 66.112 133.755 66.112C134.035 66.112 134.243 66.056 134.379 65.944C134.515 65.832 134.583 65.684 134.583 65.5C134.583 65.292 134.507 65.104 134.355 64.936C134.211 64.76 133.991 64.616 133.695 64.504C133.079 64.272 132.635 64.008 132.363 63.712C132.099 63.416 131.967 63.032 131.967 62.56C131.967 62.336 132.019 62.124 132.123 61.924C132.227 61.716 132.367 61.536 132.543 61.384C132.727 61.224 132.943 61.1 133.191 61.012C133.439 60.924 133.707 60.88 133.995 60.88ZM142 64.108C142 64.588 142.028 64.992 142.084 65.32C142.148 65.64 142.216 65.9 142.288 66.1C142.376 66.34 142.472 66.528 142.576 66.664L141.508 67.096C141.404 66.992 141.308 66.868 141.22 66.724C141.148 66.596 141.08 66.444 141.016 66.268C140.952 66.084 140.912 65.868 140.896 65.62C140.76 66.1 140.54 66.464 140.236 66.712C139.94 66.952 139.536 67.072 139.024 67.072C138.648 67.072 138.32 67.004 138.04 66.868C137.768 66.724 137.54 66.524 137.356 66.268C137.172 66.004 137.036 65.688 136.948 65.32C136.86 64.952 136.816 64.544 136.816 64.096C136.816 63.64 136.884 63.22 137.02 62.836C137.164 62.444 137.36 62.108 137.608 61.828C137.864 61.548 138.168 61.328 138.52 61.168C138.872 61.008 139.26 60.928 139.684 60.928C139.924 60.928 140.172 60.948 140.428 60.988C140.692 61.02 140.936 61.056 141.16 61.096C141.384 61.136 141.572 61.176 141.724 61.216C141.884 61.248 141.976 61.268 142 61.276V64.108ZM139.252 66.112C139.452 66.112 139.636 66.044 139.804 65.908C139.972 65.772 140.116 65.596 140.236 65.38C140.364 65.156 140.46 64.904 140.524 64.624C140.596 64.336 140.632 64.044 140.632 63.748V62.02C140.552 61.996 140.432 61.968 140.272 61.936C140.112 61.904 139.968 61.888 139.84 61.888C139.536 61.888 139.284 61.94 139.084 62.044C138.892 62.148 138.736 62.292 138.616 62.476C138.496 62.66 138.412 62.88 138.364 63.136C138.316 63.392 138.292 63.672 138.292 63.976C138.292 64.256 138.3 64.524 138.316 64.78C138.332 65.036 138.372 65.264 138.436 65.464C138.508 65.664 138.608 65.824 138.736 65.944C138.864 66.056 139.036 66.112 139.252 66.112ZM146.009 61.024H147.089L147.329 59.62L148.457 59.368V61.024H149.933L149.765 61.996H148.457V65.548C148.457 65.756 148.513 65.892 148.625 65.956C148.737 66.012 148.861 66.04 148.997 66.04C149.109 66.04 149.221 66.032 149.333 66.016C149.445 66 149.545 65.98 149.633 65.956C149.737 65.932 149.837 65.904 149.933 65.872L150.161 66.772L150.053 66.808C149.981 66.84 149.873 66.876 149.729 66.916C149.593 66.948 149.429 66.976 149.237 67C149.053 67.032 148.849 67.048 148.625 67.048C148.401 67.048 148.193 67.024 148.001 66.976C147.817 66.928 147.657 66.852 147.521 66.748C147.385 66.636 147.277 66.496 147.197 66.328C147.125 66.16 147.089 65.952 147.089 65.704V61.996H146.009V61.024ZM150.469 64.156C150.469 63.62 150.541 63.148 150.685 62.74C150.837 62.332 151.041 61.992 151.297 61.72C151.561 61.44 151.869 61.232 152.221 61.096C152.573 60.952 152.953 60.88 153.361 60.88C153.721 60.88 154.025 60.924 154.273 61.012C154.529 61.1 154.737 61.22 154.897 61.372C155.057 61.524 155.173 61.704 155.245 61.912C155.325 62.12 155.365 62.344 155.365 62.584C155.365 62.872 155.285 63.148 155.125 63.412C154.965 63.668 154.733 63.896 154.429 64.096C154.133 64.288 153.773 64.444 153.349 64.564C152.925 64.676 152.449 64.736 151.921 64.744C151.945 64.928 151.981 65.104 152.029 65.272C152.085 65.432 152.161 65.576 152.257 65.704C152.361 65.824 152.493 65.92 152.653 65.992C152.813 66.064 153.013 66.1 153.253 66.1C153.429 66.1 153.617 66.08 153.817 66.04C154.017 66 154.201 65.952 154.369 65.896C154.569 65.832 154.765 65.76 154.957 65.68L155.317 66.532C155.109 66.636 154.885 66.728 154.645 66.808C154.437 66.88 154.197 66.944 153.925 67C153.653 67.056 153.365 67.084 153.061 67.084C152.597 67.084 152.201 67.016 151.873 66.88C151.545 66.736 151.277 66.536 151.069 66.28C150.861 66.024 150.709 65.716 150.613 65.356C150.517 64.996 150.469 64.596 150.469 64.156ZM153.253 61.816C152.989 61.816 152.769 61.88 152.593 62.008C152.425 62.128 152.289 62.288 152.185 62.488C152.081 62.68 152.005 62.9 151.957 63.148C151.917 63.388 151.893 63.632 151.885 63.88C152.269 63.864 152.593 63.816 152.857 63.736C153.129 63.648 153.349 63.544 153.517 63.424C153.685 63.296 153.805 63.16 153.877 63.016C153.957 62.872 153.997 62.728 153.997 62.584C153.997 62.352 153.929 62.168 153.793 62.032C153.657 61.888 153.477 61.816 153.253 61.816ZM159.177 62.272C159.033 62.272 158.889 62.308 158.745 62.38C158.601 62.452 158.473 62.552 158.361 62.68C158.249 62.8 158.157 62.948 158.085 63.124C158.013 63.3 157.977 63.496 157.977 63.712V67H156.609V63.976C156.609 63.496 156.577 63.096 156.513 62.776C156.449 62.448 156.381 62.184 156.309 61.984C156.221 61.752 156.125 61.564 156.021 61.42L157.101 60.988C157.173 61.076 157.249 61.184 157.329 61.312C157.393 61.424 157.457 61.556 157.521 61.708C157.585 61.86 157.637 62.04 157.677 62.248C157.837 61.784 158.069 61.452 158.373 61.252C158.677 61.044 159.021 60.94 159.405 60.94C159.589 60.94 159.761 60.964 159.921 61.012C160.081 61.052 160.157 61.072 160.149 61.072L159.765 62.404C159.773 62.404 159.725 62.384 159.621 62.344C159.525 62.296 159.377 62.272 159.177 62.272ZM162.142 65.32C162.422 65.32 162.638 65.404 162.79 65.572C162.942 65.74 163.018 65.956 163.018 66.22C163.018 66.476 162.942 66.692 162.79 66.868C162.638 67.044 162.41 67.132 162.106 67.132C161.826 67.132 161.61 67.044 161.458 66.868C161.314 66.692 161.242 66.484 161.242 66.244C161.242 65.988 161.318 65.772 161.47 65.596C161.622 65.412 161.846 65.32 162.142 65.32ZM162.142 60.88C162.422 60.88 162.638 60.964 162.79 61.132C162.942 61.3 163.018 61.516 163.018 61.78C163.018 62.036 162.942 62.252 162.79 62.428C162.638 62.604 162.41 62.692 162.106 62.692C161.826 62.692 161.61 62.604 161.458 62.428C161.314 62.252 161.242 62.048 161.242 61.816C161.242 61.552 161.318 61.332 161.47 61.156C161.622 60.972 161.846 60.88 162.142 60.88Z" fill="#414141"/>
</svg>
